{
	"asset":{
		"generator":"Khronos glTF Blender I/O v4.4.56",
		"version":"2.0"
	},
	"scene":0,
	"scenes":[
		{
			"extras":{
				"skinify":{
					"connect_mesh":0,
					"connect_parents":0,
					"generate_all":0,
					"thickness":0.800000011920929,
					"finger_thickness":0.25,
					"apply_mod":1,
					"parent_armature":1,
					"sub_level":1
				}
			},
			"name":"Scene",
			"nodes":[
				0,
				1,
				2,
				3,
				4,
				5,
				6,
				7,
				8,
				9,
				10,
				11,
				12
			]
		}
	],
	"nodes":[
		{
			"mesh":0,
			"name":"Cube.003",
			"scale":[
				0.05752439424395561,
				0.05752439424395561,
				0.05752439424395561
			],
			"translation":[
				-0.6405434012413025,
				0.5896593928337097,
				0.7990303635597229
			]
		},
		{
			"mesh":1,
			"name":"Cube.004",
			"rotation":[
				-1,
				0,
				0,
				1.6292068494294654e-07
			],
			"scale":[
				0.02011120319366455,
				0.02011120319366455,
				0.02011120319366455
			],
			"translation":[
				-0.6459305286407471,
				0.5321889519691467,
				0.8059438467025757
			]
		},
		{
			"mesh":2,
			"name":"Cube.005",
			"rotation":[
				0,
				0,
				0.7071068286895752,
				0.7071068286895752
			],
			"scale":[
				0.02011120319366455,
				0.02011120319366455,
				0.02011120319366455
			],
			"translation":[
				-0.5283839106559753,
				-0.0324803851544857,
				0.5950415134429932
			]
		},
		{
			"mesh":3,
			"name":"Plane.001",
			"scale":[
				0.05779987946152687,
				0.2129969596862793,
				0.2129969596862793
			],
			"translation":[
				-0.6405189037322998,
				0.5850099325180054,
				0.6832817196846008
			]
		},
		{
			"mesh":4,
			"name":"Cube",
			"translation":[
				-0.06380677223205566,
				0.0045576258562505245,
				0
			]
		},
		{
			"name":"Empty",
			"rotation":[
				0.70710688829422,
				0,
				0,
				0.7071066498756409
			],
			"scale":[
				1.2638120651245117,
				1.2638120651245117,
				1.2638120651245117
			],
			"translation":[
				1.2994705438613892,
				-1.8058685064315796,
				-4.315482139587402
			]
		},
		{
			"name":"Empty.001",
			"rotation":[
				0.5000000596046448,
				0.5,
				-0.5,
				0.5
			],
			"scale":[
				1.2638120651245117,
				1.2638120651245117,
				1.2638120651245117
			],
			"translation":[
				1.3152216672897339,
				-1.8760801553726196,
				1.2604271173477173
			]
		},
		{
			"name":"Empty.002",
			"rotation":[
				-1,
				0,
				0,
				1.6292068494294654e-07
			],
			"scale":[
				1.2638120651245117,
				1.2638120651245117,
				1.2638120651245117
			],
			"translation":[
				0.6851754188537598,
				-1.8058685064315796,
				1.0162845849990845
			]
		},
		{
			"mesh":5,
			"name":"B\u00e9zierCircle.001",
			"scale":[
				0.42645955085754395,
				0.42645955085754395,
				0.42645955085754395
			],
			"translation":[
				-0.656769871711731,
				0.5917867422103882,
				0.8178643584251404
			]
		},
		{
			"name":"B\u00e9zierCircle.003",
			"translation":[
				-2.450744152069092,
				0.004245936870574951,
				0.3522060811519623
			]
		},
		{
			"mesh":6,
			"name":"Plane",
			"translation":[
				-3.6984455585479736,
				0.3360897898674011,
				-0.9787065982818604
			]
		},
		{
			"mesh":7,
			"name":"Cube.002",
			"rotation":[
				0,
				0,
				0.7071068286895752,
				0.7071068286895752
			],
			"scale":[
				0.02011120319366455,
				0.02011120319366455,
				0.02011120319366455
			],
			"translation":[
				-0.5284563302993774,
				0.36137014627456665,
				0.5950415134429932
			]
		},
		{
			"mesh":8,
			"name":"Cube.001",
			"scale":[
				0.02011120319366455,
				0.02011120319366455,
				0.02011120319366455
			],
			"translation":[
				-0.19249726831912994,
				0.45357608795166016,
				0.27700331807136536
			]
		}
	],
	"materials":[
		{
			"doubleSided":true,
			"name":"Material",
			"pbrMetallicRoughness":{
				"baseColorFactor":[
					0.800000011920929,
					0.800000011920929,
					0.800000011920929,
					1
				],
				"metallicFactor":0,
				"roughnessFactor":0.5
			}
		}
	],
	"meshes":[
		{
			"name":"Cube.005",
			"primitives":[
				{
					"attributes":{
						"POSITION":0,
						"NORMAL":1,
						"TEXCOORD_0":2,
						"TANGENT":3
					},
					"indices":4
				}
			]
		},
		{
			"name":"Cube.006",
			"primitives":[
				{
					"attributes":{
						"POSITION":5,
						"NORMAL":6,
						"TEXCOORD_0":7,
						"TANGENT":8
					},
					"indices":9
				}
			]
		},
		{
			"name":"Cube.007",
			"primitives":[
				{
					"attributes":{
						"POSITION":10,
						"NORMAL":11,
						"TEXCOORD_0":12,
						"TANGENT":13
					},
					"indices":14
				}
			]
		},
		{
			"name":"Plane.001",
			"primitives":[
				{
					"attributes":{
						"POSITION":15,
						"NORMAL":16,
						"TEXCOORD_0":17,
						"TANGENT":18
					},
					"indices":19
				}
			]
		},
		{
			"name":"Cube",
			"primitives":[
				{
					"attributes":{
						"POSITION":20,
						"NORMAL":21,
						"TEXCOORD_0":22,
						"TANGENT":23
					},
					"indices":24,
					"material":0
				}
			]
		},
		{
			"name":"B\u00e9zierCircle.001",
			"primitives":[
				{
					"attributes":{
						"POSITION":25,
						"NORMAL":26,
						"TEXCOORD_0":27,
						"TANGENT":28
					},
					"indices":29
				}
			]
		},
		{
			"name":"Plane",
			"primitives":[
				{
					"attributes":{
						"POSITION":30,
						"NORMAL":31,
						"TEXCOORD_0":32,
						"TANGENT":33
					},
					"indices":34
				}
			]
		},
		{
			"name":"Cube.001",
			"primitives":[
				{
					"attributes":{
						"POSITION":35,
						"NORMAL":36,
						"TEXCOORD_0":37,
						"TANGENT":38
					},
					"indices":39
				}
			]
		},
		{
			"name":"Cube.004",
			"primitives":[
				{
					"attributes":{
						"POSITION":40,
						"NORMAL":41,
						"TEXCOORD_0":42,
						"TANGENT":43
					},
					"indices":44
				}
			]
		}
	],
	"accessors":[
		{
			"bufferView":0,
			"componentType":5126,
			"count":1124,
			"max":[
				20.926401138305664,
				0.6055140495300293,
				0.8745021224021912
			],
			"min":[
				-0.8745021224021912,
				-0.6055140495300293,
				-28.655078887939453
			],
			"type":"VEC3"
		},
		{
			"bufferView":1,
			"componentType":5126,
			"count":1124,
			"type":"VEC3"
		},
		{
			"bufferView":2,
			"componentType":5126,
			"count":1124,
			"type":"VEC2"
		},
		{
			"bufferView":3,
			"componentType":5126,
			"count":1124,
			"type":"VEC4"
		},
		{
			"bufferView":4,
			"componentType":5123,
			"count":4608,
			"type":"SCALAR"
		},
		{
			"bufferView":5,
			"componentType":5126,
			"count":65160,
			"max":[
				58.85994338989258,
				0.039463646709918976,
				81.11231994628906
			],
			"min":[
				-0.9694528579711914,
				-0.5547411441802979,
				-0.9635782241821289
			],
			"type":"VEC3"
		},
		{
			"bufferView":6,
			"componentType":5126,
			"count":65160,
			"type":"VEC3"
		},
		{
			"bufferView":7,
			"componentType":5126,
			"count":65160,
			"type":"VEC2"
		},
		{
			"bufferView":8,
			"componentType":5126,
			"count":65160,
			"type":"VEC4"
		},
		{
			"bufferView":9,
			"componentType":5123,
			"count":101376,
			"type":"SCALAR"
		},
		{
			"bufferView":10,
			"componentType":5126,
			"count":19396,
			"max":[
				0.9792101979255676,
				0.03943639621138573,
				0.9850877523422241
			],
			"min":[
				-0.9694528579711914,
				-46.240264892578125,
				-60.160213470458984
			],
			"type":"VEC3"
		},
		{
			"bufferView":11,
			"componentType":5126,
			"count":19396,
			"type":"VEC3"
		},
		{
			"bufferView":12,
			"componentType":5126,
			"count":19396,
			"type":"VEC2"
		},
		{
			"bufferView":13,
			"componentType":5126,
			"count":19396,
			"type":"VEC4"
		},
		{
			"bufferView":14,
			"componentType":5123,
			"count":101376,
			"type":"SCALAR"
		},
		{
			"bufferView":15,
			"componentType":5126,
			"count":1408,
			"max":[
				1.3331393003463745,
				0.04044761881232262,
				0.43474066257476807
			],
			"min":[
				-1.333139419555664,
				-0.0021079827565699816,
				-1.1701995134353638
			],
			"type":"VEC3"
		},
		{
			"bufferView":16,
			"componentType":5126,
			"count":1408,
			"type":"VEC3"
		},
		{
			"bufferView":17,
			"componentType":5126,
			"count":1408,
			"type":"VEC2"
		},
		{
			"bufferView":18,
			"componentType":5126,
			"count":1408,
			"type":"VEC4"
		},
		{
			"bufferView":19,
			"componentType":5123,
			"count":2112,
			"type":"SCALAR"
		},
		{
			"bufferView":20,
			"componentType":5126,
			"count":4373,
			"max":[
				0.45764249563217163,
				0.42678889632225037,
				0.65642249584198
			],
			"min":[
				-0.45764249563217163,
				-0.11675792932510376,
				-0.6551273465156555
			],
			"type":"VEC3"
		},
		{
			"bufferView":21,
			"componentType":5126,
			"count":4373,
			"type":"VEC3"
		},
		{
			"bufferView":22,
			"componentType":5126,
			"count":4373,
			"type":"VEC2"
		},
		{
			"bufferView":23,
			"componentType":5126,
			"count":4373,
			"type":"VEC4"
		},
		{
			"bufferView":24,
			"componentType":5123,
			"count":17244,
			"type":"SCALAR"
		},
		{
			"bufferView":25,
			"componentType":5126,
			"count":9604,
			"max":[
				3.8147754669189453,
				0.09834219515323639,
				1.0339106321334839
			],
			"min":[
				-1.0339105129241943,
				-0.09834248572587967,
				-4.869511604309082
			],
			"type":"VEC3"
		},
		{
			"bufferView":26,
			"componentType":5126,
			"count":9604,
			"type":"VEC3"
		},
		{
			"bufferView":27,
			"componentType":5126,
			"count":9604,
			"type":"VEC2"
		},
		{
			"bufferView":28,
			"componentType":5126,
			"count":9604,
			"type":"VEC4"
		},
		{
			"bufferView":29,
			"componentType":5123,
			"count":55296,
			"type":"SCALAR"
		},
		{
			"bufferView":30,
			"componentType":5126,
			"count":160,
			"max":[
				4.2519426345825195,
				0.2190963178873062,
				1.819200038909912
			],
			"min":[
				3.0173346996307373,
				0.09564179927110672,
				0.1382131576538086
			],
			"type":"VEC3"
		},
		{
			"bufferView":31,
			"componentType":5126,
			"count":160,
			"type":"VEC3"
		},
		{
			"bufferView":32,
			"componentType":5126,
			"count":160,
			"type":"VEC2"
		},
		{
			"bufferView":33,
			"componentType":5126,
			"count":160,
			"type":"VEC4"
		},
		{
			"bufferView":34,
			"componentType":5123,
			"count":336,
			"type":"SCALAR"
		},
		{
			"bufferView":35,
			"componentType":5126,
			"count":19396,
			"max":[
				0.9792096018791199,
				0.03943639621138573,
				0.9850877523422241
			],
			"min":[
				-0.9694530963897705,
				-46.247467041015625,
				-60.160213470458984
			],
			"type":"VEC3"
		},
		{
			"bufferView":36,
			"componentType":5126,
			"count":19396,
			"type":"VEC3"
		},
		{
			"bufferView":37,
			"componentType":5126,
			"count":19396,
			"type":"VEC2"
		},
		{
			"bufferView":38,
			"componentType":5126,
			"count":19396,
			"type":"VEC4"
		},
		{
			"bufferView":39,
			"componentType":5123,
			"count":101376,
			"type":"SCALAR"
		},
		{
			"bufferView":40,
			"componentType":5126,
			"count":64611,
			"max":[
				13.767343521118164,
				0.03943639621138573,
				0.9850877523422241
			],
			"min":[
				-0.9694528579711914,
				-0.5547448396682739,
				-28.532251358032227
			],
			"type":"VEC3"
		},
		{
			"bufferView":41,
			"componentType":5126,
			"count":64611,
			"type":"VEC3"
		},
		{
			"bufferView":42,
			"componentType":5126,
			"count":64611,
			"type":"VEC2"
		},
		{
			"bufferView":43,
			"componentType":5126,
			"count":64611,
			"type":"VEC4"
		},
		{
			"bufferView":44,
			"componentType":5123,
			"count":101376,
			"type":"SCALAR"
		}
	],
	"bufferViews":[
		{
			"buffer":0,
			"byteLength":13488,
			"byteOffset":0,
			"target":34962
		},
		{
			"buffer":0,
			"byteLength":13488,
			"byteOffset":13488,
			"target":34962
		},
		{
			"buffer":0,
			"byteLength":8992,
			"byteOffset":26976,
			"target":34962
		},
		{
			"buffer":0,
			"byteLength":17984,
			"byteOffset":35968,
			"target":34962
		},
		{
			"buffer":0,
			"byteLength":9216,
			"byteOffset":53952,
			"target":34963
		},
		{
			"buffer":0,
			"byteLength":781920,
			"byteOffset":63168,
			"target":34962
		},
		{
			"buffer":0,
			"byteLength":781920,
			"byteOffset":845088,
			"target":34962
		},
		{
			"buffer":0,
			"byteLength":521280,
			"byteOffset":1627008,
			"target":34962
		},
		{
			"buffer":0,
			"byteLength":1042560,
			"byteOffset":2148288,
			"target":34962
		},
		{
			"buffer":0,
			"byteLength":202752,
			"byteOffset":3190848,
			"target":34963
		},
		{
			"buffer":0,
			"byteLength":232752,
			"byteOffset":3393600,
			"target":34962
		},
		{
			"buffer":0,
			"byteLength":232752,
			"byteOffset":3626352,
			"target":34962
		},
		{
			"buffer":0,
			"byteLength":155168,
			"byteOffset":3859104,
			"target":34962
		},
		{
			"buffer":0,
			"byteLength":310336,
			"byteOffset":4014272,
			"target":34962
		},
		{
			"buffer":0,
			"byteLength":202752,
			"byteOffset":4324608,
			"target":34963
		},
		{
			"buffer":0,
			"byteLength":16896,
			"byteOffset":4527360,
			"target":34962
		},
		{
			"buffer":0,
			"byteLength":16896,
			"byteOffset":4544256,
			"target":34962
		},
		{
			"buffer":0,
			"byteLength":11264,
			"byteOffset":4561152,
			"target":34962
		},
		{
			"buffer":0,
			"byteLength":22528,
			"byteOffset":4572416,
			"target":34962
		},
		{
			"buffer":0,
			"byteLength":4224,
			"byteOffset":4594944,
			"target":34963
		},
		{
			"buffer":0,
			"byteLength":52476,
			"byteOffset":4599168,
			"target":34962
		},
		{
			"buffer":0,
			"byteLength":52476,
			"byteOffset":4651644,
			"target":34962
		},
		{
			"buffer":0,
			"byteLength":34984,
			"byteOffset":4704120,
			"target":34962
		},
		{
			"buffer":0,
			"byteLength":69968,
			"byteOffset":4739104,
			"target":34962
		},
		{
			"buffer":0,
			"byteLength":34488,
			"byteOffset":4809072,
			"target":34963
		},
		{
			"buffer":0,
			"byteLength":115248,
			"byteOffset":4843560,
			"target":34962
		},
		{
			"buffer":0,
			"byteLength":115248,
			"byteOffset":4958808,
			"target":34962
		},
		{
			"buffer":0,
			"byteLength":76832,
			"byteOffset":5074056,
			"target":34962
		},
		{
			"buffer":0,
			"byteLength":153664,
			"byteOffset":5150888,
			"target":34962
		},
		{
			"buffer":0,
			"byteLength":110592,
			"byteOffset":5304552,
			"target":34963
		},
		{
			"buffer":0,
			"byteLength":1920,
			"byteOffset":5415144,
			"target":34962
		},
		{
			"buffer":0,
			"byteLength":1920,
			"byteOffset":5417064,
			"target":34962
		},
		{
			"buffer":0,
			"byteLength":1280,
			"byteOffset":5418984,
			"target":34962
		},
		{
			"buffer":0,
			"byteLength":2560,
			"byteOffset":5420264,
			"target":34962
		},
		{
			"buffer":0,
			"byteLength":672,
			"byteOffset":5422824,
			"target":34963
		},
		{
			"buffer":0,
			"byteLength":232752,
			"byteOffset":5423496,
			"target":34962
		},
		{
			"buffer":0,
			"byteLength":232752,
			"byteOffset":5656248,
			"target":34962
		},
		{
			"buffer":0,
			"byteLength":155168,
			"byteOffset":5889000,
			"target":34962
		},
		{
			"buffer":0,
			"byteLength":310336,
			"byteOffset":6044168,
			"target":34962
		},
		{
			"buffer":0,
			"byteLength":202752,
			"byteOffset":6354504,
			"target":34963
		},
		{
			"buffer":0,
			"byteLength":775332,
			"byteOffset":6557256,
			"target":34962
		},
		{
			"buffer":0,
			"byteLength":775332,
			"byteOffset":7332588,
			"target":34962
		},
		{
			"buffer":0,
			"byteLength":516888,
			"byteOffset":8107920,
			"target":34962
		},
		{
			"buffer":0,
			"byteLength":1033776,
			"byteOffset":8624808,
			"target":34962
		},
		{
			"buffer":0,
			"byteLength":202752,
			"byteOffset":9658584,
			"target":34963
		}
	],
	"buffers":[
		{
			"byteLength":9861336,
			"uri":"infected_dron-b07d917eff64d851e3299cf183184189.bin"
		}
	]
}
