{
	"asset":{
		"generator":"Khronos glTF Blender I/O v4.4.56",
		"version":"2.0"
	},
	"extensionsUsed":[
		"KHR_materials_unlit"
	],
	"scene":0,
	"scenes":[
		{
			"extras":{
				"skinify":{
					"connect_mesh":0,
					"connect_parents":0,
					"generate_all":0,
					"thickness":0.800000011920929,
					"finger_thickness":0.25,
					"apply_mod":1,
					"parent_armature":1,
					"sub_level":1
				}
			},
			"name":"Scene",
			"nodes":[
				38
			]
		}
	],
	"nodes":[
		{
			"name":"spine.006",
			"rotation":[
				-0.006496004294604063,
				0.0017149251652881503,
				-0.003377087414264679,
				0.9999717473983765
			],
			"translation":[
				-1.4551915228366852e-10,
				0.9013965129852295,
				-2.397428033873439e-09
			]
		},
		{
			"children":[
				0
			],
			"name":"spine.005",
			"rotation":[
				-0.3345949053764343,
				-0.05271359533071518,
				-0.007713619153946638,
				0.9408549666404724
			],
			"scale":[
				1,
				1,
				0.9999997615814209
			],
			"translation":[
				2.7939677238464355e-09,
				0.03809451684355736,
				-1.367880031466484e-08
			]
		},
		{
			"children":[
				1
			],
			"name":"spine.004",
			"rotation":[
				0.36860644817352295,
				0.05045006424188614,
				0.009437757544219494,
				0.9281675815582275
			],
			"scale":[
				1,
				1.000000238418579,
				1.0000001192092896
			],
			"translation":[
				-2.9598545836506673e-10,
				0.19812603294849396,
				-9.893483365885913e-09
			]
		},
		{
			"name":"hand.L",
			"rotation":[
				0.013422111980617046,
				-0.18459457159042358,
				-0.02970993146300316,
				0.9822738766670227
			],
			"scale":[
				1,
				1,
				0.9999999403953552
			],
			"translation":[
				-1.1175870895385742e-08,
				0.2984803020954132,
				1.955777406692505e-08
			]
		},
		{
			"children":[
				3
			],
			"name":"forearm.L",
			"rotation":[
				0.18360209465026855,
				0.1854933649301529,
				-0.010171170346438885,
				0.9652870297431946
			],
			"scale":[
				1,
				0.9999999403953552,
				1
			],
			"translation":[
				1.862645149230957e-09,
				0.27198290824890137,
				2.421438694000244e-08
			]
		},
		{
			"children":[
				4
			],
			"name":"upper_arm.L",
			"rotation":[
				-0.2065083533525467,
				0.7930091619491577,
				-0.13496659696102142,
				0.5570232272148132
			],
			"scale":[
				0.9999999403953552,
				1,
				0.9999999403953552
			],
			"translation":[
				0.003463245928287506,
				0.18053600192070007,
				0.04272836074233055
			]
		},
		{
			"children":[
				5
			],
			"name":"shoulder.L",
			"rotation":[
				-0.6946884989738464,
				-0.302396297454834,
				-0.5527381300926208,
				0.34705185890197754
			],
			"scale":[
				1.0000001192092896,
				1.0000001192092896,
				1
			],
			"translation":[
				0.09537848830223083,
				0.17033208906650543,
				-0.03613729029893875
			]
		},
		{
			"name":"hand.R",
			"rotation":[
				0.013420426286756992,
				0.18459458649158478,
				0.029709529131650925,
				0.9822739362716675
			],
			"scale":[
				1,
				0.9999999403953552,
				1
			],
			"translation":[
				-7.078051567077637e-08,
				0.2984807789325714,
				-2.561137080192566e-09
			]
		},
		{
			"children":[
				7
			],
			"name":"forearm.R",
			"rotation":[
				0.1836056113243103,
				-0.18549315631389618,
				0.01017154473811388,
				0.965286374092102
			],
			"scale":[
				0.9999999403953552,
				1.0000001192092896,
				1.0000001192092896
			],
			"translation":[
				7.543712854385376e-08,
				0.27198344469070435,
				-4.6566128730773926e-08
			]
		},
		{
			"children":[
				8
			],
			"name":"upper_arm.R",
			"rotation":[
				-0.20650912821292877,
				-0.793009340763092,
				0.1349649876356125,
				0.5570230484008789
			],
			"scale":[
				1,
				1,
				0.9999999403953552
			],
			"translation":[
				-0.003463238477706909,
				0.18053606152534485,
				0.042728111147880554
			]
		},
		{
			"children":[
				9
			],
			"name":"shoulder.R",
			"rotation":[
				-0.6909877061843872,
				0.31027451157569885,
				0.5492351055145264,
				0.35299649834632874
			],
			"scale":[
				1,
				1.0000001192092896,
				1.0000001192092896
			],
			"translation":[
				-0.08050084114074707,
				0.17228370904922485,
				-0.03604079410433769
			]
		},
		{
			"name":"breast.L",
			"rotation":[
				0.004002935253083706,
				0.6856605410575867,
				0.7279003262519836,
				0.003849583677947521
			],
			"scale":[
				1.0000001192092896,
				1,
				1
			],
			"translation":[
				0.09955704212188721,
				0.020360494032502174,
				-0.04778816178441048
			]
		},
		{
			"name":"breast.R",
			"rotation":[
				0.004002933856099844,
				0.6856604218482971,
				0.7279004454612732,
				0.003849582513794303
			],
			"scale":[
				1.0000001192092896,
				0.999999463558197,
				0.9999999403953552
			],
			"translation":[
				-0.08801846206188202,
				0.022441504523158073,
				-0.04768526926636696
			]
		},
		{
			"children":[
				2,
				6,
				10,
				11,
				12
			],
			"name":"spine.003",
			"rotation":[
				-0.01326037384569645,
				0.0006393575458787382,
				2.9554019420174882e-05,
				0.999911904335022
			],
			"scale":[
				0.9999999403953552,
				1,
				0.9999999403953552
			],
			"translation":[
				1.306034391745925e-09,
				0.16557496786117554,
				-5.0122253014706075e-09
			]
		},
		{
			"children":[
				13
			],
			"name":"spine.002",
			"rotation":[
				-0.031693365424871445,
				0.001962559297680855,
				-0.014347353018820286,
				0.9993926882743835
			],
			"scale":[
				1.0000001192092896,
				1,
				1.0000001192092896
			],
			"translation":[
				-5.820766091346741e-10,
				0.1376037895679474,
				-3.892637323588133e-10
			]
		},
		{
			"children":[
				14
			],
			"name":"spine.001",
			"rotation":[
				-0.27386969327926636,
				0.0048401313833892345,
				0.020079225301742554,
				0.9615449905395508
			],
			"scale":[
				1,
				1.0000001192092896,
				1
			],
			"translation":[
				1.3460521586239338e-10,
				0.21777737140655518,
				1.1996235116384923e-08
			]
		},
		{
			"name":"pelvis.L",
			"rotation":[
				-0.36729517579078674,
				-0.7712752223014832,
				-0.2781626880168915,
				0.43915191292762756
			],
			"scale":[
				1,
				0.9999998211860657,
				0.9999998807907104
			],
			"translation":[
				4.3655745685100555e-11,
				3.35278187435506e-08,
				-1.1095835361629725e-10
			]
		},
		{
			"name":"pelvis.R",
			"rotation":[
				-0.36658966541290283,
				0.7723845839500427,
				0.2790915369987488,
				0.4371979236602783
			],
			"scale":[
				0.9999998807907104,
				0.9999997615814209,
				0.9999998211860657
			],
			"translation":[
				-0.0035373708233237267,
				3.3527406628763856e-08,
				8.955707016866654e-06
			]
		},
		{
			"name":"toe.L",
			"rotation":[
				-1.0947760031854159e-08,
				0.9889351725578308,
				-0.14834842085838318,
				8.997176337288693e-07
			],
			"scale":[
				0.9999999403953552,
				0.9999998807907104,
				0.9999998807907104
			],
			"translation":[
				7.566995918750763e-10,
				0.20511077344417572,
				4.6566128730773926e-09
			]
		},
		{
			"name":"heel.02.L",
			"rotation":[
				0.6872513890266418,
				0.6872503161430359,
				-0.16639167070388794,
				0.16639243066310883
			],
			"scale":[
				0.9999999403953552,
				0.9999997019767761,
				0.9999999403953552
			],
			"translation":[
				-0.09459252655506134,
				0.21288293600082397,
				0.07652172446250916
			]
		},
		{
			"children":[
				18,
				19
			],
			"name":"foot.L",
			"rotation":[
				-0.6147566437721252,
				-0.03380332142114639,
				0.057749368250370026,
				0.7858731746673584
			],
			"scale":[
				0.9999999403953552,
				1.0000001192092896,
				1.0000001192092896
			],
			"translation":[
				-3.073364496231079e-08,
				0.3314908742904663,
				1.30385160446167e-08
			]
		},
		{
			"children":[
				20
			],
			"name":"shin.L",
			"rotation":[
				6.599822518182918e-05,
				0.025773730129003525,
				0.0005991289508529007,
				0.9996676445007324
			],
			"scale":[
				1,
				0.9999999403953552,
				1
			],
			"translation":[
				1.210719347000122e-08,
				0.2810361683368683,
				2.2351741790771484e-08
			]
		},
		{
			"children":[
				21
			],
			"name":"thigh.L",
			"rotation":[
				0.9726465940475464,
				0.06423823535442352,
				-0.09378628432750702,
				0.20257407426834106
			],
			"scale":[
				0.9999997615814209,
				0.9999998211860657,
				0.9999993443489075
			],
			"translation":[
				0.1991608738899231,
				0.04364989325404167,
				0.02191629819571972
			]
		},
		{
			"name":"toe.R",
			"rotation":[
				-4.500353725234163e-07,
				-0.9889351725578308,
				0.1483483463525772,
				4.200290732114809e-06
			],
			"scale":[
				1,
				1.000000238418579,
				1
			],
			"translation":[
				8.789356797933578e-09,
				0.20511089265346527,
				-3.026798367500305e-09
			]
		},
		{
			"name":"heel.02.R",
			"rotation":[
				0.6872517466545105,
				-0.6872497797012329,
				0.1663917899131775,
				0.16639283299446106
			],
			"scale":[
				1,
				0.9999999403953552,
				1
			],
			"translation":[
				0.09459255635738373,
				0.21288327872753143,
				0.0765216276049614
			]
		},
		{
			"children":[
				23,
				24
			],
			"name":"foot.R",
			"rotation":[
				-0.6147560477256775,
				0.033802710473537445,
				-0.05774977430701256,
				0.7858736515045166
			],
			"scale":[
				0.9999998807907104,
				0.9999999403953552,
				0.9999999403953552
			],
			"translation":[
				-1.210719347000122e-08,
				0.33149081468582153,
				-5.587935447692871e-09
			]
		},
		{
			"children":[
				25
			],
			"name":"shin.R",
			"rotation":[
				6.59292854834348e-05,
				-0.02577372081577778,
				-0.0005991508369334042,
				0.9996676445007324
			],
			"scale":[
				1,
				0.9999999403953552,
				1
			],
			"translation":[
				0,
				0.2810360789299011,
				-2.2351741790771484e-08
			]
		},
		{
			"children":[
				26
			],
			"name":"thigh.R",
			"rotation":[
				0.9728808999061584,
				-0.06372511386871338,
				0.09132387489080429,
				0.2027360200881958
			],
			"scale":[
				0.9999998807907104,
				0.9999999403953552,
				1.0000001192092896
			],
			"translation":[
				-0.20258472859859467,
				0.043649762868881226,
				0.022933466359972954
			]
		},
		{
			"children":[
				15,
				16,
				17,
				22,
				27
			],
			"name":"spine",
			"rotation":[
				0.28843629360198975,
				-0.0012120817555114627,
				-0.00036512690712697804,
				0.9574982523918152
			],
			"scale":[
				1,
				1,
				0.9999998211860657
			],
			"translation":[
				0.0017686914652585983,
				0.743685245513916,
				-0.107251837849617
			]
		},
		{
			"name":"forearm.L.001",
			"rotation":[
				0.05596793442964554,
				-0.0810282975435257,
				-0.985210120677948,
				0.140224888920784
			],
			"scale":[
				0.9999999403953552,
				1.0000001192092896,
				1
			],
			"translation":[
				0.47397151589393616,
				0.8106166124343872,
				-0.060932379215955734
			]
		},
		{
			"name":"forearm.R.001",
			"rotation":[
				0.05596793442964554,
				0.0810282975435257,
				0.985210120677948,
				0.140224888920784
			],
			"scale":[
				0.9999999403953552,
				1.0000001192092896,
				1
			],
			"translation":[
				-0.47397151589393616,
				0.8106166124343872,
				-0.060932379215955734
			]
		},
		{
			"name":"upper_arm.R.001",
			"rotation":[
				-0.186091810464859,
				-0.6758812069892883,
				0.6893975734710693,
				0.1824432611465454
			],
			"scale":[
				1,
				0.9999999403953552,
				1
			],
			"translation":[
				-0.3686971068382263,
				1.1902036666870117,
				-0.8616117835044861
			]
		},
		{
			"name":"upper_arm.L.001",
			"rotation":[
				-0.186091810464859,
				0.6758812069892883,
				-0.6893975734710693,
				0.1824432611465454
			],
			"scale":[
				1,
				0.9999999403953552,
				1
			],
			"translation":[
				0.3686971068382263,
				1.1902036666870117,
				-0.8616117835044861
			]
		},
		{
			"name":"shin.L.001",
			"rotation":[
				0.7024077773094177,
				0.05365508422255516,
				0.053250137716531754,
				0.7077491879463196
			],
			"scale":[
				1,
				0.9999999403953552,
				1
			],
			"translation":[
				0.30164048075675964,
				0.16209731996059418,
				-0.17916430532932281
			]
		},
		{
			"name":"shin.R.001",
			"rotation":[
				0.7024077773094177,
				-0.05365508422255516,
				-0.053250137716531754,
				0.7077491879463196
			],
			"scale":[
				1,
				0.9999999403953552,
				1
			],
			"translation":[
				-0.30164048075675964,
				0.16209731996059418,
				-0.17916430532932281
			]
		},
		{
			"name":"thigh.L.001",
			"rotation":[
				0.699579656124115,
				0.07791151851415634,
				0.07719343155622482,
				0.7060873508453369
			],
			"scale":[
				1,
				0.9999999403953552,
				0.9999999403953552
			],
			"translation":[
				0.34600597620010376,
				0.6065068244934082,
				0.8365453481674194
			]
		},
		{
			"name":"thigh.R.001",
			"rotation":[
				0.699579656124115,
				-0.07791151851415634,
				-0.07719343155622482,
				0.7060873508453369
			],
			"scale":[
				1,
				0.9999999403953552,
				0.9999999403953552
			],
			"translation":[
				-0.34600597620010376,
				0.6065068244934082,
				0.8365453481674194
			]
		},
		{
			"mesh":0,
			"name":"Cube.002",
			"skin":0
		},
		{
			"children":[
				37,
				28,
				29,
				30,
				31,
				32,
				33,
				34,
				35,
				36
			],
			"name":"metarig.001"
		}
	],
	"animations":[
		{
			"channels":[
				{
					"sampler":0,
					"target":{
						"node":28,
						"path":"translation"
					}
				},
				{
					"sampler":1,
					"target":{
						"node":28,
						"path":"rotation"
					}
				},
				{
					"sampler":2,
					"target":{
						"node":28,
						"path":"scale"
					}
				},
				{
					"sampler":3,
					"target":{
						"node":15,
						"path":"translation"
					}
				},
				{
					"sampler":4,
					"target":{
						"node":15,
						"path":"rotation"
					}
				},
				{
					"sampler":5,
					"target":{
						"node":15,
						"path":"scale"
					}
				},
				{
					"sampler":6,
					"target":{
						"node":14,
						"path":"translation"
					}
				},
				{
					"sampler":7,
					"target":{
						"node":14,
						"path":"rotation"
					}
				},
				{
					"sampler":8,
					"target":{
						"node":14,
						"path":"scale"
					}
				},
				{
					"sampler":9,
					"target":{
						"node":13,
						"path":"translation"
					}
				},
				{
					"sampler":10,
					"target":{
						"node":13,
						"path":"rotation"
					}
				},
				{
					"sampler":11,
					"target":{
						"node":13,
						"path":"scale"
					}
				},
				{
					"sampler":12,
					"target":{
						"node":2,
						"path":"translation"
					}
				},
				{
					"sampler":13,
					"target":{
						"node":2,
						"path":"rotation"
					}
				},
				{
					"sampler":14,
					"target":{
						"node":2,
						"path":"scale"
					}
				},
				{
					"sampler":15,
					"target":{
						"node":1,
						"path":"translation"
					}
				},
				{
					"sampler":16,
					"target":{
						"node":1,
						"path":"rotation"
					}
				},
				{
					"sampler":17,
					"target":{
						"node":1,
						"path":"scale"
					}
				},
				{
					"sampler":18,
					"target":{
						"node":0,
						"path":"translation"
					}
				},
				{
					"sampler":19,
					"target":{
						"node":0,
						"path":"rotation"
					}
				},
				{
					"sampler":20,
					"target":{
						"node":0,
						"path":"scale"
					}
				},
				{
					"sampler":21,
					"target":{
						"node":6,
						"path":"translation"
					}
				},
				{
					"sampler":22,
					"target":{
						"node":6,
						"path":"rotation"
					}
				},
				{
					"sampler":23,
					"target":{
						"node":6,
						"path":"scale"
					}
				},
				{
					"sampler":24,
					"target":{
						"node":5,
						"path":"translation"
					}
				},
				{
					"sampler":25,
					"target":{
						"node":5,
						"path":"rotation"
					}
				},
				{
					"sampler":26,
					"target":{
						"node":5,
						"path":"scale"
					}
				},
				{
					"sampler":27,
					"target":{
						"node":4,
						"path":"translation"
					}
				},
				{
					"sampler":28,
					"target":{
						"node":4,
						"path":"rotation"
					}
				},
				{
					"sampler":29,
					"target":{
						"node":4,
						"path":"scale"
					}
				},
				{
					"sampler":30,
					"target":{
						"node":3,
						"path":"translation"
					}
				},
				{
					"sampler":31,
					"target":{
						"node":3,
						"path":"rotation"
					}
				},
				{
					"sampler":32,
					"target":{
						"node":3,
						"path":"scale"
					}
				},
				{
					"sampler":33,
					"target":{
						"node":10,
						"path":"translation"
					}
				},
				{
					"sampler":34,
					"target":{
						"node":10,
						"path":"rotation"
					}
				},
				{
					"sampler":35,
					"target":{
						"node":10,
						"path":"scale"
					}
				},
				{
					"sampler":36,
					"target":{
						"node":9,
						"path":"translation"
					}
				},
				{
					"sampler":37,
					"target":{
						"node":9,
						"path":"rotation"
					}
				},
				{
					"sampler":38,
					"target":{
						"node":9,
						"path":"scale"
					}
				},
				{
					"sampler":39,
					"target":{
						"node":8,
						"path":"translation"
					}
				},
				{
					"sampler":40,
					"target":{
						"node":8,
						"path":"rotation"
					}
				},
				{
					"sampler":41,
					"target":{
						"node":8,
						"path":"scale"
					}
				},
				{
					"sampler":42,
					"target":{
						"node":7,
						"path":"translation"
					}
				},
				{
					"sampler":43,
					"target":{
						"node":7,
						"path":"rotation"
					}
				},
				{
					"sampler":44,
					"target":{
						"node":7,
						"path":"scale"
					}
				},
				{
					"sampler":45,
					"target":{
						"node":11,
						"path":"translation"
					}
				},
				{
					"sampler":46,
					"target":{
						"node":11,
						"path":"rotation"
					}
				},
				{
					"sampler":47,
					"target":{
						"node":11,
						"path":"scale"
					}
				},
				{
					"sampler":48,
					"target":{
						"node":12,
						"path":"translation"
					}
				},
				{
					"sampler":49,
					"target":{
						"node":12,
						"path":"rotation"
					}
				},
				{
					"sampler":50,
					"target":{
						"node":12,
						"path":"scale"
					}
				},
				{
					"sampler":51,
					"target":{
						"node":16,
						"path":"translation"
					}
				},
				{
					"sampler":52,
					"target":{
						"node":16,
						"path":"rotation"
					}
				},
				{
					"sampler":53,
					"target":{
						"node":16,
						"path":"scale"
					}
				},
				{
					"sampler":54,
					"target":{
						"node":17,
						"path":"translation"
					}
				},
				{
					"sampler":55,
					"target":{
						"node":17,
						"path":"rotation"
					}
				},
				{
					"sampler":56,
					"target":{
						"node":17,
						"path":"scale"
					}
				},
				{
					"sampler":57,
					"target":{
						"node":22,
						"path":"translation"
					}
				},
				{
					"sampler":58,
					"target":{
						"node":22,
						"path":"rotation"
					}
				},
				{
					"sampler":59,
					"target":{
						"node":22,
						"path":"scale"
					}
				},
				{
					"sampler":60,
					"target":{
						"node":21,
						"path":"translation"
					}
				},
				{
					"sampler":61,
					"target":{
						"node":21,
						"path":"rotation"
					}
				},
				{
					"sampler":62,
					"target":{
						"node":21,
						"path":"scale"
					}
				},
				{
					"sampler":63,
					"target":{
						"node":20,
						"path":"translation"
					}
				},
				{
					"sampler":64,
					"target":{
						"node":20,
						"path":"rotation"
					}
				},
				{
					"sampler":65,
					"target":{
						"node":20,
						"path":"scale"
					}
				},
				{
					"sampler":66,
					"target":{
						"node":18,
						"path":"translation"
					}
				},
				{
					"sampler":67,
					"target":{
						"node":18,
						"path":"rotation"
					}
				},
				{
					"sampler":68,
					"target":{
						"node":18,
						"path":"scale"
					}
				},
				{
					"sampler":69,
					"target":{
						"node":19,
						"path":"translation"
					}
				},
				{
					"sampler":70,
					"target":{
						"node":19,
						"path":"rotation"
					}
				},
				{
					"sampler":71,
					"target":{
						"node":19,
						"path":"scale"
					}
				},
				{
					"sampler":72,
					"target":{
						"node":27,
						"path":"translation"
					}
				},
				{
					"sampler":73,
					"target":{
						"node":27,
						"path":"rotation"
					}
				},
				{
					"sampler":74,
					"target":{
						"node":27,
						"path":"scale"
					}
				},
				{
					"sampler":75,
					"target":{
						"node":26,
						"path":"translation"
					}
				},
				{
					"sampler":76,
					"target":{
						"node":26,
						"path":"rotation"
					}
				},
				{
					"sampler":77,
					"target":{
						"node":26,
						"path":"scale"
					}
				},
				{
					"sampler":78,
					"target":{
						"node":25,
						"path":"translation"
					}
				},
				{
					"sampler":79,
					"target":{
						"node":25,
						"path":"rotation"
					}
				},
				{
					"sampler":80,
					"target":{
						"node":25,
						"path":"scale"
					}
				},
				{
					"sampler":81,
					"target":{
						"node":23,
						"path":"translation"
					}
				},
				{
					"sampler":82,
					"target":{
						"node":23,
						"path":"rotation"
					}
				},
				{
					"sampler":83,
					"target":{
						"node":23,
						"path":"scale"
					}
				},
				{
					"sampler":84,
					"target":{
						"node":24,
						"path":"translation"
					}
				},
				{
					"sampler":85,
					"target":{
						"node":24,
						"path":"rotation"
					}
				},
				{
					"sampler":86,
					"target":{
						"node":24,
						"path":"scale"
					}
				},
				{
					"sampler":87,
					"target":{
						"node":29,
						"path":"translation"
					}
				},
				{
					"sampler":88,
					"target":{
						"node":29,
						"path":"rotation"
					}
				},
				{
					"sampler":89,
					"target":{
						"node":29,
						"path":"scale"
					}
				},
				{
					"sampler":90,
					"target":{
						"node":30,
						"path":"translation"
					}
				},
				{
					"sampler":91,
					"target":{
						"node":30,
						"path":"rotation"
					}
				},
				{
					"sampler":92,
					"target":{
						"node":30,
						"path":"scale"
					}
				},
				{
					"sampler":93,
					"target":{
						"node":31,
						"path":"translation"
					}
				},
				{
					"sampler":94,
					"target":{
						"node":31,
						"path":"rotation"
					}
				},
				{
					"sampler":95,
					"target":{
						"node":31,
						"path":"scale"
					}
				},
				{
					"sampler":96,
					"target":{
						"node":32,
						"path":"translation"
					}
				},
				{
					"sampler":97,
					"target":{
						"node":32,
						"path":"rotation"
					}
				},
				{
					"sampler":98,
					"target":{
						"node":32,
						"path":"scale"
					}
				},
				{
					"sampler":99,
					"target":{
						"node":33,
						"path":"translation"
					}
				},
				{
					"sampler":100,
					"target":{
						"node":33,
						"path":"rotation"
					}
				},
				{
					"sampler":101,
					"target":{
						"node":33,
						"path":"scale"
					}
				},
				{
					"sampler":102,
					"target":{
						"node":34,
						"path":"translation"
					}
				},
				{
					"sampler":103,
					"target":{
						"node":34,
						"path":"rotation"
					}
				},
				{
					"sampler":104,
					"target":{
						"node":34,
						"path":"scale"
					}
				},
				{
					"sampler":105,
					"target":{
						"node":35,
						"path":"translation"
					}
				},
				{
					"sampler":106,
					"target":{
						"node":35,
						"path":"rotation"
					}
				},
				{
					"sampler":107,
					"target":{
						"node":35,
						"path":"scale"
					}
				},
				{
					"sampler":108,
					"target":{
						"node":36,
						"path":"translation"
					}
				},
				{
					"sampler":109,
					"target":{
						"node":36,
						"path":"rotation"
					}
				},
				{
					"sampler":110,
					"target":{
						"node":36,
						"path":"scale"
					}
				}
			],
			"name":"Jump_Start",
			"samplers":[
				{
					"input":17,
					"interpolation":"LINEAR",
					"output":18
				},
				{
					"input":17,
					"interpolation":"LINEAR",
					"output":19
				},
				{
					"input":17,
					"interpolation":"LINEAR",
					"output":20
				},
				{
					"input":21,
					"interpolation":"LINEAR",
					"output":22
				},
				{
					"input":21,
					"interpolation":"LINEAR",
					"output":23
				},
				{
					"input":21,
					"interpolation":"LINEAR",
					"output":24
				},
				{
					"input":21,
					"interpolation":"LINEAR",
					"output":25
				},
				{
					"input":17,
					"interpolation":"LINEAR",
					"output":26
				},
				{
					"input":17,
					"interpolation":"LINEAR",
					"output":27
				},
				{
					"input":21,
					"interpolation":"LINEAR",
					"output":28
				},
				{
					"input":21,
					"interpolation":"LINEAR",
					"output":29
				},
				{
					"input":21,
					"interpolation":"STEP",
					"output":30
				},
				{
					"input":21,
					"interpolation":"LINEAR",
					"output":31
				},
				{
					"input":21,
					"interpolation":"LINEAR",
					"output":32
				},
				{
					"input":21,
					"interpolation":"STEP",
					"output":33
				},
				{
					"input":21,
					"interpolation":"LINEAR",
					"output":34
				},
				{
					"input":17,
					"interpolation":"LINEAR",
					"output":35
				},
				{
					"input":17,
					"interpolation":"LINEAR",
					"output":36
				},
				{
					"input":21,
					"interpolation":"LINEAR",
					"output":37
				},
				{
					"input":21,
					"interpolation":"LINEAR",
					"output":38
				},
				{
					"input":21,
					"interpolation":"LINEAR",
					"output":39
				},
				{
					"input":21,
					"interpolation":"LINEAR",
					"output":40
				},
				{
					"input":21,
					"interpolation":"LINEAR",
					"output":41
				},
				{
					"input":21,
					"interpolation":"STEP",
					"output":42
				},
				{
					"input":21,
					"interpolation":"LINEAR",
					"output":43
				},
				{
					"input":17,
					"interpolation":"LINEAR",
					"output":44
				},
				{
					"input":17,
					"interpolation":"LINEAR",
					"output":45
				},
				{
					"input":21,
					"interpolation":"LINEAR",
					"output":46
				},
				{
					"input":17,
					"interpolation":"LINEAR",
					"output":47
				},
				{
					"input":17,
					"interpolation":"LINEAR",
					"output":48
				},
				{
					"input":21,
					"interpolation":"LINEAR",
					"output":49
				},
				{
					"input":17,
					"interpolation":"LINEAR",
					"output":50
				},
				{
					"input":17,
					"interpolation":"LINEAR",
					"output":51
				},
				{
					"input":21,
					"interpolation":"LINEAR",
					"output":52
				},
				{
					"input":21,
					"interpolation":"LINEAR",
					"output":53
				},
				{
					"input":21,
					"interpolation":"STEP",
					"output":54
				},
				{
					"input":21,
					"interpolation":"LINEAR",
					"output":55
				},
				{
					"input":17,
					"interpolation":"LINEAR",
					"output":56
				},
				{
					"input":17,
					"interpolation":"LINEAR",
					"output":57
				},
				{
					"input":21,
					"interpolation":"LINEAR",
					"output":58
				},
				{
					"input":17,
					"interpolation":"LINEAR",
					"output":59
				},
				{
					"input":17,
					"interpolation":"LINEAR",
					"output":60
				},
				{
					"input":21,
					"interpolation":"LINEAR",
					"output":61
				},
				{
					"input":17,
					"interpolation":"LINEAR",
					"output":62
				},
				{
					"input":17,
					"interpolation":"LINEAR",
					"output":63
				},
				{
					"input":21,
					"interpolation":"LINEAR",
					"output":64
				},
				{
					"input":21,
					"interpolation":"LINEAR",
					"output":65
				},
				{
					"input":21,
					"interpolation":"LINEAR",
					"output":66
				},
				{
					"input":21,
					"interpolation":"LINEAR",
					"output":67
				},
				{
					"input":21,
					"interpolation":"LINEAR",
					"output":68
				},
				{
					"input":21,
					"interpolation":"LINEAR",
					"output":69
				},
				{
					"input":21,
					"interpolation":"LINEAR",
					"output":70
				},
				{
					"input":21,
					"interpolation":"LINEAR",
					"output":71
				},
				{
					"input":21,
					"interpolation":"STEP",
					"output":72
				},
				{
					"input":21,
					"interpolation":"LINEAR",
					"output":73
				},
				{
					"input":21,
					"interpolation":"LINEAR",
					"output":74
				},
				{
					"input":21,
					"interpolation":"STEP",
					"output":75
				},
				{
					"input":21,
					"interpolation":"LINEAR",
					"output":76
				},
				{
					"input":17,
					"interpolation":"LINEAR",
					"output":77
				},
				{
					"input":17,
					"interpolation":"LINEAR",
					"output":78
				},
				{
					"input":21,
					"interpolation":"LINEAR",
					"output":79
				},
				{
					"input":17,
					"interpolation":"LINEAR",
					"output":80
				},
				{
					"input":17,
					"interpolation":"LINEAR",
					"output":81
				},
				{
					"input":21,
					"interpolation":"LINEAR",
					"output":82
				},
				{
					"input":17,
					"interpolation":"LINEAR",
					"output":83
				},
				{
					"input":21,
					"interpolation":"LINEAR",
					"output":84
				},
				{
					"input":21,
					"interpolation":"LINEAR",
					"output":85
				},
				{
					"input":21,
					"interpolation":"LINEAR",
					"output":86
				},
				{
					"input":21,
					"interpolation":"STEP",
					"output":87
				},
				{
					"input":21,
					"interpolation":"LINEAR",
					"output":88
				},
				{
					"input":21,
					"interpolation":"LINEAR",
					"output":89
				},
				{
					"input":21,
					"interpolation":"STEP",
					"output":90
				},
				{
					"input":17,
					"interpolation":"LINEAR",
					"output":91
				},
				{
					"input":17,
					"interpolation":"LINEAR",
					"output":92
				},
				{
					"input":17,
					"interpolation":"LINEAR",
					"output":93
				},
				{
					"input":21,
					"interpolation":"LINEAR",
					"output":94
				},
				{
					"input":17,
					"interpolation":"LINEAR",
					"output":95
				},
				{
					"input":17,
					"interpolation":"LINEAR",
					"output":96
				},
				{
					"input":21,
					"interpolation":"LINEAR",
					"output":97
				},
				{
					"input":17,
					"interpolation":"LINEAR",
					"output":98
				},
				{
					"input":21,
					"interpolation":"LINEAR",
					"output":99
				},
				{
					"input":21,
					"interpolation":"LINEAR",
					"output":100
				},
				{
					"input":17,
					"interpolation":"LINEAR",
					"output":101
				},
				{
					"input":21,
					"interpolation":"LINEAR",
					"output":102
				},
				{
					"input":21,
					"interpolation":"LINEAR",
					"output":103
				},
				{
					"input":21,
					"interpolation":"LINEAR",
					"output":104
				},
				{
					"input":21,
					"interpolation":"LINEAR",
					"output":105
				},
				{
					"input":17,
					"interpolation":"LINEAR",
					"output":106
				},
				{
					"input":17,
					"interpolation":"LINEAR",
					"output":107
				},
				{
					"input":21,
					"interpolation":"LINEAR",
					"output":108
				},
				{
					"input":17,
					"interpolation":"LINEAR",
					"output":109
				},
				{
					"input":17,
					"interpolation":"LINEAR",
					"output":110
				},
				{
					"input":21,
					"interpolation":"LINEAR",
					"output":111
				},
				{
					"input":17,
					"interpolation":"LINEAR",
					"output":112
				},
				{
					"input":21,
					"interpolation":"STEP",
					"output":113
				},
				{
					"input":21,
					"interpolation":"STEP",
					"output":114
				},
				{
					"input":17,
					"interpolation":"LINEAR",
					"output":115
				},
				{
					"input":21,
					"interpolation":"STEP",
					"output":116
				},
				{
					"input":21,
					"interpolation":"STEP",
					"output":117
				},
				{
					"input":17,
					"interpolation":"LINEAR",
					"output":118
				},
				{
					"input":21,
					"interpolation":"STEP",
					"output":119
				},
				{
					"input":21,
					"interpolation":"STEP",
					"output":120
				},
				{
					"input":17,
					"interpolation":"LINEAR",
					"output":121
				},
				{
					"input":21,
					"interpolation":"STEP",
					"output":122
				},
				{
					"input":21,
					"interpolation":"STEP",
					"output":123
				},
				{
					"input":17,
					"interpolation":"LINEAR",
					"output":124
				},
				{
					"input":21,
					"interpolation":"STEP",
					"output":125
				},
				{
					"input":21,
					"interpolation":"STEP",
					"output":126
				},
				{
					"input":17,
					"interpolation":"LINEAR",
					"output":127
				},
				{
					"input":21,
					"interpolation":"STEP",
					"output":128
				},
				{
					"input":21,
					"interpolation":"STEP",
					"output":129
				}
			]
		}
	],
	"materials":[
		{
			"doubleSided":true,
			"extensions":{
				"KHR_materials_unlit":{}
			},
			"name":"Emission.001",
			"pbrMetallicRoughness":{
				"baseColorTexture":{
					"index":0
				},
				"metallicFactor":0,
				"roughnessFactor":0.9
			}
		},
		{
			"extensions":{
				"KHR_materials_unlit":{}
			},
			"name":"Linea.001",
			"pbrMetallicRoughness":{
				"baseColorFactor":[
					0,
					0,
					0,
					1
				],
				"metallicFactor":0,
				"roughnessFactor":0.9
			}
		}
	],
	"meshes":[
		{
			"name":"Cube.002",
			"primitives":[
				{
					"attributes":{
						"POSITION":0,
						"NORMAL":1,
						"TEXCOORD_0":2,
						"JOINTS_0":3,
						"JOINTS_1":4,
						"WEIGHTS_0":5,
						"WEIGHTS_1":6
					},
					"indices":7,
					"material":0
				},
				{
					"attributes":{
						"POSITION":8,
						"NORMAL":9,
						"TEXCOORD_0":10,
						"JOINTS_0":11,
						"JOINTS_1":12,
						"WEIGHTS_0":13,
						"WEIGHTS_1":14
					},
					"indices":15,
					"material":1
				}
			]
		}
	],
	"textures":[
		{
			"sampler":0,
			"source":0
		}
	],
	"images":[
		{
			"mimeType":"image/png",
			"name":"pepe.001",
			"uri":"../../addons/proto-csgs/textures/textures/pepe.001.png"
		}
	],
	"skins":[
		{
			"inverseBindMatrices":16,
			"joints":[
				28,
				15,
				14,
				13,
				2,
				1,
				0,
				6,
				5,
				4,
				3,
				10,
				9,
				8,
				7,
				11,
				12,
				16,
				17,
				22,
				21,
				20,
				18,
				19,
				27,
				26,
				25,
				23,
				24,
				29,
				30,
				31,
				32,
				33,
				34,
				35,
				36
			],
			"name":"metarig.001"
		}
	],
	"accessors":[
		{
			"bufferView":0,
			"componentType":5126,
			"count":5747,
			"max":[
				0.7531636953353882,
				2.884260654449463,
				0.47140830755233765
			],
			"min":[
				-0.7531636953353882,
				0.02397053688764572,
				-0.614349365234375
			],
			"type":"VEC3"
		},
		{
			"bufferView":1,
			"componentType":5126,
			"count":5747,
			"type":"VEC3"
		},
		{
			"bufferView":2,
			"componentType":5126,
			"count":5747,
			"type":"VEC2"
		},
		{
			"bufferView":3,
			"componentType":5121,
			"count":5747,
			"type":"VEC4"
		},
		{
			"bufferView":4,
			"componentType":5121,
			"count":5747,
			"type":"VEC4"
		},
		{
			"bufferView":5,
			"componentType":5126,
			"count":5747,
			"type":"VEC4"
		},
		{
			"bufferView":6,
			"componentType":5126,
			"count":5747,
			"type":"VEC4"
		},
		{
			"bufferView":7,
			"componentType":5123,
			"count":25800,
			"type":"SCALAR"
		},
		{
			"bufferView":8,
			"componentType":5126,
			"count":5747,
			"max":[
				0.776477575302124,
				2.9072604179382324,
				0.49435555934906006
			],
			"min":[
				-0.776477575302124,
				0.000649975729174912,
				-0.6376692652702332
			],
			"type":"VEC3"
		},
		{
			"bufferView":9,
			"componentType":5126,
			"count":5747,
			"type":"VEC3"
		},
		{
			"bufferView":10,
			"componentType":5126,
			"count":5747,
			"type":"VEC2"
		},
		{
			"bufferView":11,
			"componentType":5121,
			"count":5747,
			"type":"VEC4"
		},
		{
			"bufferView":12,
			"componentType":5121,
			"count":5747,
			"type":"VEC4"
		},
		{
			"bufferView":13,
			"componentType":5126,
			"count":5747,
			"type":"VEC4"
		},
		{
			"bufferView":14,
			"componentType":5126,
			"count":5747,
			"type":"VEC4"
		},
		{
			"bufferView":15,
			"componentType":5123,
			"count":25800,
			"type":"SCALAR"
		},
		{
			"bufferView":16,
			"componentType":5126,
			"count":37,
			"type":"MAT4"
		},
		{
			"bufferView":17,
			"componentType":5126,
			"count":50,
			"max":[
				2.0833333333333335
			],
			"min":[
				0.041666666666666664
			],
			"type":"SCALAR"
		},
		{
			"bufferView":18,
			"componentType":5126,
			"count":50,
			"type":"VEC3"
		},
		{
			"bufferView":19,
			"componentType":5126,
			"count":50,
			"type":"VEC4"
		},
		{
			"bufferView":20,
			"componentType":5126,
			"count":50,
			"type":"VEC3"
		},
		{
			"bufferView":21,
			"componentType":5126,
			"count":2,
			"max":[
				2.0833333333333335
			],
			"min":[
				0.041666666666666664
			],
			"type":"SCALAR"
		},
		{
			"bufferView":22,
			"componentType":5126,
			"count":2,
			"type":"VEC3"
		},
		{
			"bufferView":23,
			"componentType":5126,
			"count":2,
			"type":"VEC4"
		},
		{
			"bufferView":24,
			"componentType":5126,
			"count":2,
			"type":"VEC3"
		},
		{
			"bufferView":25,
			"componentType":5126,
			"count":2,
			"type":"VEC3"
		},
		{
			"bufferView":26,
			"componentType":5126,
			"count":50,
			"type":"VEC4"
		},
		{
			"bufferView":27,
			"componentType":5126,
			"count":50,
			"type":"VEC3"
		},
		{
			"bufferView":28,
			"componentType":5126,
			"count":2,
			"type":"VEC3"
		},
		{
			"bufferView":29,
			"componentType":5126,
			"count":2,
			"type":"VEC4"
		},
		{
			"bufferView":30,
			"componentType":5126,
			"count":2,
			"type":"VEC3"
		},
		{
			"bufferView":31,
			"componentType":5126,
			"count":2,
			"type":"VEC3"
		},
		{
			"bufferView":32,
			"componentType":5126,
			"count":2,
			"type":"VEC4"
		},
		{
			"bufferView":33,
			"componentType":5126,
			"count":2,
			"type":"VEC3"
		},
		{
			"bufferView":34,
			"componentType":5126,
			"count":2,
			"type":"VEC3"
		},
		{
			"bufferView":35,
			"componentType":5126,
			"count":50,
			"type":"VEC4"
		},
		{
			"bufferView":36,
			"componentType":5126,
			"count":50,
			"type":"VEC3"
		},
		{
			"bufferView":37,
			"componentType":5126,
			"count":2,
			"type":"VEC3"
		},
		{
			"bufferView":38,
			"componentType":5126,
			"count":2,
			"type":"VEC4"
		},
		{
			"bufferView":39,
			"componentType":5126,
			"count":2,
			"type":"VEC3"
		},
		{
			"bufferView":40,
			"componentType":5126,
			"count":2,
			"type":"VEC3"
		},
		{
			"bufferView":41,
			"componentType":5126,
			"count":2,
			"type":"VEC4"
		},
		{
			"bufferView":42,
			"componentType":5126,
			"count":2,
			"type":"VEC3"
		},
		{
			"bufferView":43,
			"componentType":5126,
			"count":2,
			"type":"VEC3"
		},
		{
			"bufferView":44,
			"componentType":5126,
			"count":50,
			"type":"VEC4"
		},
		{
			"bufferView":45,
			"componentType":5126,
			"count":50,
			"type":"VEC3"
		},
		{
			"bufferView":46,
			"componentType":5126,
			"count":2,
			"type":"VEC3"
		},
		{
			"bufferView":47,
			"componentType":5126,
			"count":50,
			"type":"VEC4"
		},
		{
			"bufferView":48,
			"componentType":5126,
			"count":50,
			"type":"VEC3"
		},
		{
			"bufferView":49,
			"componentType":5126,
			"count":2,
			"type":"VEC3"
		},
		{
			"bufferView":50,
			"componentType":5126,
			"count":50,
			"type":"VEC4"
		},
		{
			"bufferView":51,
			"componentType":5126,
			"count":50,
			"type":"VEC3"
		},
		{
			"bufferView":52,
			"componentType":5126,
			"count":2,
			"type":"VEC3"
		},
		{
			"bufferView":53,
			"componentType":5126,
			"count":2,
			"type":"VEC4"
		},
		{
			"bufferView":54,
			"componentType":5126,
			"count":2,
			"type":"VEC3"
		},
		{
			"bufferView":55,
			"componentType":5126,
			"count":2,
			"type":"VEC3"
		},
		{
			"bufferView":56,
			"componentType":5126,
			"count":50,
			"type":"VEC4"
		},
		{
			"bufferView":57,
			"componentType":5126,
			"count":50,
			"type":"VEC3"
		},
		{
			"bufferView":58,
			"componentType":5126,
			"count":2,
			"type":"VEC3"
		},
		{
			"bufferView":59,
			"componentType":5126,
			"count":50,
			"type":"VEC4"
		},
		{
			"bufferView":60,
			"componentType":5126,
			"count":50,
			"type":"VEC3"
		},
		{
			"bufferView":61,
			"componentType":5126,
			"count":2,
			"type":"VEC3"
		},
		{
			"bufferView":62,
			"componentType":5126,
			"count":50,
			"type":"VEC4"
		},
		{
			"bufferView":63,
			"componentType":5126,
			"count":50,
			"type":"VEC3"
		},
		{
			"bufferView":64,
			"componentType":5126,
			"count":2,
			"type":"VEC3"
		},
		{
			"bufferView":65,
			"componentType":5126,
			"count":2,
			"type":"VEC4"
		},
		{
			"bufferView":66,
			"componentType":5126,
			"count":2,
			"type":"VEC3"
		},
		{
			"bufferView":67,
			"componentType":5126,
			"count":2,
			"type":"VEC3"
		},
		{
			"bufferView":68,
			"componentType":5126,
			"count":2,
			"type":"VEC4"
		},
		{
			"bufferView":69,
			"componentType":5126,
			"count":2,
			"type":"VEC3"
		},
		{
			"bufferView":70,
			"componentType":5126,
			"count":2,
			"type":"VEC3"
		},
		{
			"bufferView":71,
			"componentType":5126,
			"count":2,
			"type":"VEC4"
		},
		{
			"bufferView":72,
			"componentType":5126,
			"count":2,
			"type":"VEC3"
		},
		{
			"bufferView":73,
			"componentType":5126,
			"count":2,
			"type":"VEC3"
		},
		{
			"bufferView":74,
			"componentType":5126,
			"count":2,
			"type":"VEC4"
		},
		{
			"bufferView":75,
			"componentType":5126,
			"count":2,
			"type":"VEC3"
		},
		{
			"bufferView":76,
			"componentType":5126,
			"count":2,
			"type":"VEC3"
		},
		{
			"bufferView":77,
			"componentType":5126,
			"count":50,
			"type":"VEC4"
		},
		{
			"bufferView":78,
			"componentType":5126,
			"count":50,
			"type":"VEC3"
		},
		{
			"bufferView":79,
			"componentType":5126,
			"count":2,
			"type":"VEC3"
		},
		{
			"bufferView":80,
			"componentType":5126,
			"count":50,
			"type":"VEC4"
		},
		{
			"bufferView":81,
			"componentType":5126,
			"count":50,
			"type":"VEC3"
		},
		{
			"bufferView":82,
			"componentType":5126,
			"count":2,
			"type":"VEC3"
		},
		{
			"bufferView":83,
			"componentType":5126,
			"count":50,
			"type":"VEC4"
		},
		{
			"bufferView":84,
			"componentType":5126,
			"count":2,
			"type":"VEC3"
		},
		{
			"bufferView":85,
			"componentType":5126,
			"count":2,
			"type":"VEC3"
		},
		{
			"bufferView":86,
			"componentType":5126,
			"count":2,
			"type":"VEC4"
		},
		{
			"bufferView":87,
			"componentType":5126,
			"count":2,
			"type":"VEC3"
		},
		{
			"bufferView":88,
			"componentType":5126,
			"count":2,
			"type":"VEC3"
		},
		{
			"bufferView":89,
			"componentType":5126,
			"count":2,
			"type":"VEC4"
		},
		{
			"bufferView":90,
			"componentType":5126,
			"count":2,
			"type":"VEC3"
		},
		{
			"bufferView":91,
			"componentType":5126,
			"count":50,
			"type":"VEC3"
		},
		{
			"bufferView":92,
			"componentType":5126,
			"count":50,
			"type":"VEC4"
		},
		{
			"bufferView":93,
			"componentType":5126,
			"count":50,
			"type":"VEC3"
		},
		{
			"bufferView":94,
			"componentType":5126,
			"count":2,
			"type":"VEC3"
		},
		{
			"bufferView":95,
			"componentType":5126,
			"count":50,
			"type":"VEC4"
		},
		{
			"bufferView":96,
			"componentType":5126,
			"count":50,
			"type":"VEC3"
		},
		{
			"bufferView":97,
			"componentType":5126,
			"count":2,
			"type":"VEC3"
		},
		{
			"bufferView":98,
			"componentType":5126,
			"count":50,
			"type":"VEC4"
		},
		{
			"bufferView":99,
			"componentType":5126,
			"count":2,
			"type":"VEC3"
		},
		{
			"bufferView":100,
			"componentType":5126,
			"count":2,
			"type":"VEC3"
		},
		{
			"bufferView":101,
			"componentType":5126,
			"count":50,
			"type":"VEC4"
		},
		{
			"bufferView":102,
			"componentType":5126,
			"count":2,
			"type":"VEC3"
		},
		{
			"bufferView":103,
			"componentType":5126,
			"count":2,
			"type":"VEC3"
		},
		{
			"bufferView":104,
			"componentType":5126,
			"count":2,
			"type":"VEC4"
		},
		{
			"bufferView":105,
			"componentType":5126,
			"count":2,
			"type":"VEC3"
		},
		{
			"bufferView":106,
			"componentType":5126,
			"count":50,
			"type":"VEC3"
		},
		{
			"bufferView":107,
			"componentType":5126,
			"count":50,
			"type":"VEC4"
		},
		{
			"bufferView":108,
			"componentType":5126,
			"count":2,
			"type":"VEC3"
		},
		{
			"bufferView":109,
			"componentType":5126,
			"count":50,
			"type":"VEC3"
		},
		{
			"bufferView":110,
			"componentType":5126,
			"count":50,
			"type":"VEC4"
		},
		{
			"bufferView":111,
			"componentType":5126,
			"count":2,
			"type":"VEC3"
		},
		{
			"bufferView":112,
			"componentType":5126,
			"count":50,
			"type":"VEC3"
		},
		{
			"bufferView":113,
			"componentType":5126,
			"count":2,
			"type":"VEC4"
		},
		{
			"bufferView":114,
			"componentType":5126,
			"count":2,
			"type":"VEC3"
		},
		{
			"bufferView":115,
			"componentType":5126,
			"count":50,
			"type":"VEC3"
		},
		{
			"bufferView":116,
			"componentType":5126,
			"count":2,
			"type":"VEC4"
		},
		{
			"bufferView":117,
			"componentType":5126,
			"count":2,
			"type":"VEC3"
		},
		{
			"bufferView":118,
			"componentType":5126,
			"count":50,
			"type":"VEC3"
		},
		{
			"bufferView":119,
			"componentType":5126,
			"count":2,
			"type":"VEC4"
		},
		{
			"bufferView":120,
			"componentType":5126,
			"count":2,
			"type":"VEC3"
		},
		{
			"bufferView":121,
			"componentType":5126,
			"count":50,
			"type":"VEC3"
		},
		{
			"bufferView":122,
			"componentType":5126,
			"count":2,
			"type":"VEC4"
		},
		{
			"bufferView":123,
			"componentType":5126,
			"count":2,
			"type":"VEC3"
		},
		{
			"bufferView":124,
			"componentType":5126,
			"count":50,
			"type":"VEC3"
		},
		{
			"bufferView":125,
			"componentType":5126,
			"count":2,
			"type":"VEC4"
		},
		{
			"bufferView":126,
			"componentType":5126,
			"count":2,
			"type":"VEC3"
		},
		{
			"bufferView":127,
			"componentType":5126,
			"count":50,
			"type":"VEC3"
		},
		{
			"bufferView":128,
			"componentType":5126,
			"count":2,
			"type":"VEC4"
		},
		{
			"bufferView":129,
			"componentType":5126,
			"count":2,
			"type":"VEC3"
		}
	],
	"bufferViews":[
		{
			"buffer":0,
			"byteLength":68964,
			"byteOffset":0,
			"target":34962
		},
		{
			"buffer":0,
			"byteLength":68964,
			"byteOffset":68964,
			"target":34962
		},
		{
			"buffer":0,
			"byteLength":45976,
			"byteOffset":137928,
			"target":34962
		},
		{
			"buffer":0,
			"byteLength":22988,
			"byteOffset":183904,
			"target":34962
		},
		{
			"buffer":0,
			"byteLength":22988,
			"byteOffset":206892,
			"target":34962
		},
		{
			"buffer":0,
			"byteLength":91952,
			"byteOffset":229880,
			"target":34962
		},
		{
			"buffer":0,
			"byteLength":91952,
			"byteOffset":321832,
			"target":34962
		},
		{
			"buffer":0,
			"byteLength":51600,
			"byteOffset":413784,
			"target":34963
		},
		{
			"buffer":0,
			"byteLength":68964,
			"byteOffset":465384,
			"target":34962
		},
		{
			"buffer":0,
			"byteLength":68964,
			"byteOffset":534348,
			"target":34962
		},
		{
			"buffer":0,
			"byteLength":45976,
			"byteOffset":603312,
			"target":34962
		},
		{
			"buffer":0,
			"byteLength":22988,
			"byteOffset":649288,
			"target":34962
		},
		{
			"buffer":0,
			"byteLength":22988,
			"byteOffset":672276,
			"target":34962
		},
		{
			"buffer":0,
			"byteLength":91952,
			"byteOffset":695264,
			"target":34962
		},
		{
			"buffer":0,
			"byteLength":91952,
			"byteOffset":787216,
			"target":34962
		},
		{
			"buffer":0,
			"byteLength":51600,
			"byteOffset":879168,
			"target":34963
		},
		{
			"buffer":0,
			"byteLength":2368,
			"byteOffset":930768
		},
		{
			"buffer":0,
			"byteLength":200,
			"byteOffset":933136
		},
		{
			"buffer":0,
			"byteLength":600,
			"byteOffset":933336
		},
		{
			"buffer":0,
			"byteLength":800,
			"byteOffset":933936
		},
		{
			"buffer":0,
			"byteLength":600,
			"byteOffset":934736
		},
		{
			"buffer":0,
			"byteLength":8,
			"byteOffset":935336
		},
		{
			"buffer":0,
			"byteLength":24,
			"byteOffset":935344
		},
		{
			"buffer":0,
			"byteLength":32,
			"byteOffset":935368
		},
		{
			"buffer":0,
			"byteLength":24,
			"byteOffset":935400
		},
		{
			"buffer":0,
			"byteLength":24,
			"byteOffset":935424
		},
		{
			"buffer":0,
			"byteLength":800,
			"byteOffset":935448
		},
		{
			"buffer":0,
			"byteLength":600,
			"byteOffset":936248
		},
		{
			"buffer":0,
			"byteLength":24,
			"byteOffset":936848
		},
		{
			"buffer":0,
			"byteLength":32,
			"byteOffset":936872
		},
		{
			"buffer":0,
			"byteLength":24,
			"byteOffset":936904
		},
		{
			"buffer":0,
			"byteLength":24,
			"byteOffset":936928
		},
		{
			"buffer":0,
			"byteLength":32,
			"byteOffset":936952
		},
		{
			"buffer":0,
			"byteLength":24,
			"byteOffset":936984
		},
		{
			"buffer":0,
			"byteLength":24,
			"byteOffset":937008
		},
		{
			"buffer":0,
			"byteLength":800,
			"byteOffset":937032
		},
		{
			"buffer":0,
			"byteLength":600,
			"byteOffset":937832
		},
		{
			"buffer":0,
			"byteLength":24,
			"byteOffset":938432
		},
		{
			"buffer":0,
			"byteLength":32,
			"byteOffset":938456
		},
		{
			"buffer":0,
			"byteLength":24,
			"byteOffset":938488
		},
		{
			"buffer":0,
			"byteLength":24,
			"byteOffset":938512
		},
		{
			"buffer":0,
			"byteLength":32,
			"byteOffset":938536
		},
		{
			"buffer":0,
			"byteLength":24,
			"byteOffset":938568
		},
		{
			"buffer":0,
			"byteLength":24,
			"byteOffset":938592
		},
		{
			"buffer":0,
			"byteLength":800,
			"byteOffset":938616
		},
		{
			"buffer":0,
			"byteLength":600,
			"byteOffset":939416
		},
		{
			"buffer":0,
			"byteLength":24,
			"byteOffset":940016
		},
		{
			"buffer":0,
			"byteLength":800,
			"byteOffset":940040
		},
		{
			"buffer":0,
			"byteLength":600,
			"byteOffset":940840
		},
		{
			"buffer":0,
			"byteLength":24,
			"byteOffset":941440
		},
		{
			"buffer":0,
			"byteLength":800,
			"byteOffset":941464
		},
		{
			"buffer":0,
			"byteLength":600,
			"byteOffset":942264
		},
		{
			"buffer":0,
			"byteLength":24,
			"byteOffset":942864
		},
		{
			"buffer":0,
			"byteLength":32,
			"byteOffset":942888
		},
		{
			"buffer":0,
			"byteLength":24,
			"byteOffset":942920
		},
		{
			"buffer":0,
			"byteLength":24,
			"byteOffset":942944
		},
		{
			"buffer":0,
			"byteLength":800,
			"byteOffset":942968
		},
		{
			"buffer":0,
			"byteLength":600,
			"byteOffset":943768
		},
		{
			"buffer":0,
			"byteLength":24,
			"byteOffset":944368
		},
		{
			"buffer":0,
			"byteLength":800,
			"byteOffset":944392
		},
		{
			"buffer":0,
			"byteLength":600,
			"byteOffset":945192
		},
		{
			"buffer":0,
			"byteLength":24,
			"byteOffset":945792
		},
		{
			"buffer":0,
			"byteLength":800,
			"byteOffset":945816
		},
		{
			"buffer":0,
			"byteLength":600,
			"byteOffset":946616
		},
		{
			"buffer":0,
			"byteLength":24,
			"byteOffset":947216
		},
		{
			"buffer":0,
			"byteLength":32,
			"byteOffset":947240
		},
		{
			"buffer":0,
			"byteLength":24,
			"byteOffset":947272
		},
		{
			"buffer":0,
			"byteLength":24,
			"byteOffset":947296
		},
		{
			"buffer":0,
			"byteLength":32,
			"byteOffset":947320
		},
		{
			"buffer":0,
			"byteLength":24,
			"byteOffset":947352
		},
		{
			"buffer":0,
			"byteLength":24,
			"byteOffset":947376
		},
		{
			"buffer":0,
			"byteLength":32,
			"byteOffset":947400
		},
		{
			"buffer":0,
			"byteLength":24,
			"byteOffset":947432
		},
		{
			"buffer":0,
			"byteLength":24,
			"byteOffset":947456
		},
		{
			"buffer":0,
			"byteLength":32,
			"byteOffset":947480
		},
		{
			"buffer":0,
			"byteLength":24,
			"byteOffset":947512
		},
		{
			"buffer":0,
			"byteLength":24,
			"byteOffset":947536
		},
		{
			"buffer":0,
			"byteLength":800,
			"byteOffset":947560
		},
		{
			"buffer":0,
			"byteLength":600,
			"byteOffset":948360
		},
		{
			"buffer":0,
			"byteLength":24,
			"byteOffset":948960
		},
		{
			"buffer":0,
			"byteLength":800,
			"byteOffset":948984
		},
		{
			"buffer":0,
			"byteLength":600,
			"byteOffset":949784
		},
		{
			"buffer":0,
			"byteLength":24,
			"byteOffset":950384
		},
		{
			"buffer":0,
			"byteLength":800,
			"byteOffset":950408
		},
		{
			"buffer":0,
			"byteLength":24,
			"byteOffset":951208
		},
		{
			"buffer":0,
			"byteLength":24,
			"byteOffset":951232
		},
		{
			"buffer":0,
			"byteLength":32,
			"byteOffset":951256
		},
		{
			"buffer":0,
			"byteLength":24,
			"byteOffset":951288
		},
		{
			"buffer":0,
			"byteLength":24,
			"byteOffset":951312
		},
		{
			"buffer":0,
			"byteLength":32,
			"byteOffset":951336
		},
		{
			"buffer":0,
			"byteLength":24,
			"byteOffset":951368
		},
		{
			"buffer":0,
			"byteLength":600,
			"byteOffset":951392
		},
		{
			"buffer":0,
			"byteLength":800,
			"byteOffset":951992
		},
		{
			"buffer":0,
			"byteLength":600,
			"byteOffset":952792
		},
		{
			"buffer":0,
			"byteLength":24,
			"byteOffset":953392
		},
		{
			"buffer":0,
			"byteLength":800,
			"byteOffset":953416
		},
		{
			"buffer":0,
			"byteLength":600,
			"byteOffset":954216
		},
		{
			"buffer":0,
			"byteLength":24,
			"byteOffset":954816
		},
		{
			"buffer":0,
			"byteLength":800,
			"byteOffset":954840
		},
		{
			"buffer":0,
			"byteLength":24,
			"byteOffset":955640
		},
		{
			"buffer":0,
			"byteLength":24,
			"byteOffset":955664
		},
		{
			"buffer":0,
			"byteLength":800,
			"byteOffset":955688
		},
		{
			"buffer":0,
			"byteLength":24,
			"byteOffset":956488
		},
		{
			"buffer":0,
			"byteLength":24,
			"byteOffset":956512
		},
		{
			"buffer":0,
			"byteLength":32,
			"byteOffset":956536
		},
		{
			"buffer":0,
			"byteLength":24,
			"byteOffset":956568
		},
		{
			"buffer":0,
			"byteLength":600,
			"byteOffset":956592
		},
		{
			"buffer":0,
			"byteLength":800,
			"byteOffset":957192
		},
		{
			"buffer":0,
			"byteLength":24,
			"byteOffset":957992
		},
		{
			"buffer":0,
			"byteLength":600,
			"byteOffset":958016
		},
		{
			"buffer":0,
			"byteLength":800,
			"byteOffset":958616
		},
		{
			"buffer":0,
			"byteLength":24,
			"byteOffset":959416
		},
		{
			"buffer":0,
			"byteLength":600,
			"byteOffset":959440
		},
		{
			"buffer":0,
			"byteLength":32,
			"byteOffset":960040
		},
		{
			"buffer":0,
			"byteLength":24,
			"byteOffset":960072
		},
		{
			"buffer":0,
			"byteLength":600,
			"byteOffset":960096
		},
		{
			"buffer":0,
			"byteLength":32,
			"byteOffset":960696
		},
		{
			"buffer":0,
			"byteLength":24,
			"byteOffset":960728
		},
		{
			"buffer":0,
			"byteLength":600,
			"byteOffset":960752
		},
		{
			"buffer":0,
			"byteLength":32,
			"byteOffset":961352
		},
		{
			"buffer":0,
			"byteLength":24,
			"byteOffset":961384
		},
		{
			"buffer":0,
			"byteLength":600,
			"byteOffset":961408
		},
		{
			"buffer":0,
			"byteLength":32,
			"byteOffset":962008
		},
		{
			"buffer":0,
			"byteLength":24,
			"byteOffset":962040
		},
		{
			"buffer":0,
			"byteLength":600,
			"byteOffset":962064
		},
		{
			"buffer":0,
			"byteLength":32,
			"byteOffset":962664
		},
		{
			"buffer":0,
			"byteLength":24,
			"byteOffset":962696
		},
		{
			"buffer":0,
			"byteLength":600,
			"byteOffset":962720
		},
		{
			"buffer":0,
			"byteLength":32,
			"byteOffset":963320
		},
		{
			"buffer":0,
			"byteLength":24,
			"byteOffset":963352
		}
	],
	"samplers":[
		{
			"magFilter":9729,
			"minFilter":9987
		}
	],
	"buffers":[
		{
			"byteLength":963376,
			"uri":"protaGodot-1ef9867ccf3f3c3fee4123a55c32befb.bin"
		}
	]
}
