# Blender 4.5.1 LTS
# www.blender.org
mtllib cono_laser_2.mtl
o Cylinder.001
v 0.000000 1.000000 -2.000000
v -0.000000 0.379321 0.000000
v 0.195090 0.980785 -2.000000
v 0.074002 0.372032 0.000000
v 0.382683 0.923880 -2.000000
v 0.145160 0.350447 0.000000
v 0.555570 0.831470 -2.000000
v 0.210739 0.315394 0.000000
v 0.707107 0.707107 -2.000000
v 0.268220 0.268220 0.000000
v 0.831470 0.555570 -2.000000
v 0.315394 0.210739 0.000000
v 0.923880 0.382683 -2.000000
v 0.350447 0.145160 0.000000
v 0.980785 0.195090 -2.000000
v 0.372032 0.074002 0.000000
v 1.000000 0.000000 -2.000000
v 0.379321 -0.000000 0.000000
v 0.980785 -0.195090 -2.000000
v 0.372032 -0.074002 0.000000
v 0.923880 -0.382683 -2.000000
v 0.350447 -0.145160 0.000000
v 0.831470 -0.555570 -2.000000
v 0.315394 -0.210739 0.000000
v 0.707107 -0.707107 -2.000000
v 0.268220 -0.268220 0.000000
v 0.555570 -0.831470 -2.000000
v 0.210739 -0.315394 0.000000
v 0.382683 -0.923879 -2.000000
v 0.145160 -0.350447 0.000000
v 0.195090 -0.980785 -2.000000
v 0.074002 -0.372032 0.000000
v 0.000000 -1.000000 -2.000000
v -0.000000 -0.379321 0.000000
v -0.195090 -0.980785 -2.000000
v -0.074002 -0.372032 0.000000
v -0.382683 -0.923879 -2.000000
v -0.145160 -0.350447 0.000000
v -0.555570 -0.831470 -2.000000
v -0.210739 -0.315394 0.000000
v -0.707107 -0.707107 -2.000000
v -0.268220 -0.268220 0.000000
v -0.831470 -0.555570 -2.000000
v -0.315394 -0.210739 0.000000
v -0.923880 -0.382683 -2.000000
v -0.350447 -0.145160 0.000000
v -0.980785 -0.195090 -2.000000
v -0.372032 -0.074002 0.000000
v -1.000000 0.000000 -2.000000
v -0.379321 -0.000000 0.000000
v -0.980785 0.195090 -2.000000
v -0.372032 0.074002 0.000000
v -0.923880 0.382683 -2.000000
v -0.350447 0.145160 0.000000
v -0.831470 0.555570 -2.000000
v -0.315394 0.210739 0.000000
v -0.707107 0.707107 -2.000000
v -0.268220 0.268220 0.000000
v -0.555570 0.831470 -2.000000
v -0.210739 0.315394 0.000000
v -0.382683 0.923880 -2.000000
v -0.145160 0.350447 0.000000
v -0.195090 0.980785 -2.000000
v -0.074002 0.372032 0.000000
v 0.000000 1.000000 -1.600000
v 0.000000 1.000000 -1.200000
v 0.000000 1.000000 -0.800000
v 0.000000 0.912779 -0.400000
v 0.178074 0.895240 -0.400000
v 0.195090 0.980785 -0.800000
v 0.195090 0.980785 -1.200000
v 0.195090 0.980785 -1.600000
v 0.349305 0.843297 -0.400000
v 0.382683 0.923880 -0.800000
v 0.382683 0.923880 -1.200000
v 0.382683 0.923880 -1.600000
v 0.507113 0.758948 -0.400000
v 0.555570 0.831470 -0.800000
v 0.555570 0.831470 -1.200000
v 0.555570 0.831470 -1.600000
v 0.645432 0.645432 -0.400000
v 0.707107 0.707107 -0.800000
v 0.707107 0.707107 -1.200000
v 0.707107 0.707107 -1.600000
v 0.758948 0.507113 -0.400000
v 0.831470 0.555570 -0.800000
v 0.831470 0.555570 -1.200000
v 0.831470 0.555570 -1.600000
v 0.843297 0.349305 -0.400000
v 0.923880 0.382683 -0.800000
v 0.923880 0.382683 -1.200000
v 0.923880 0.382683 -1.600000
v 0.895240 0.178074 -0.400000
v 0.980785 0.195090 -0.800000
v 0.980785 0.195090 -1.200000
v 0.980785 0.195090 -1.600000
v 0.912779 -0.000000 -0.400000
v 1.000000 -0.000000 -0.800000
v 1.000000 0.000000 -1.200000
v 1.000000 0.000000 -1.600000
v 0.895240 -0.178074 -0.400000
v 0.980785 -0.195090 -0.800000
v 0.980785 -0.195090 -1.200000
v 0.980785 -0.195090 -1.600000
v 0.843297 -0.349305 -0.400000
v 0.923880 -0.382683 -0.800000
v 0.923880 -0.382683 -1.200000
v 0.923880 -0.382683 -1.600000
v 0.758948 -0.507113 -0.400000
v 0.831470 -0.555570 -0.800000
v 0.831470 -0.555570 -1.200000
v 0.831470 -0.555570 -1.600000
v 0.645432 -0.645432 -0.400000
v 0.707107 -0.707107 -0.800000
v 0.707107 -0.707107 -1.200000
v 0.707107 -0.707107 -1.600000
v 0.507113 -0.758948 -0.400000
v 0.555570 -0.831470 -0.800000
v 0.555570 -0.831470 -1.200000
v 0.555570 -0.831470 -1.600000
v 0.349305 -0.843297 -0.400000
v 0.382683 -0.923880 -0.800000
v 0.382683 -0.923880 -1.200000
v 0.382683 -0.923880 -1.600000
v 0.178074 -0.895240 -0.400000
v 0.195090 -0.980785 -0.800000
v 0.195090 -0.980785 -1.200000
v 0.195090 -0.980785 -1.600000
v 0.000000 -0.912778 -0.400000
v 0.000000 -1.000000 -0.800000
v 0.000000 -1.000000 -1.200000
v 0.000000 -1.000000 -1.600000
v -0.178074 -0.895240 -0.400000
v -0.195090 -0.980785 -0.800000
v -0.195090 -0.980785 -1.200000
v -0.195090 -0.980785 -1.600000
v -0.349305 -0.843297 -0.400000
v -0.382683 -0.923880 -0.800000
v -0.382683 -0.923880 -1.200000
v -0.382683 -0.923880 -1.600000
v -0.507113 -0.758948 -0.400000
v -0.555570 -0.831470 -0.800000
v -0.555570 -0.831470 -1.200000
v -0.555570 -0.831470 -1.600000
v -0.645432 -0.645432 -0.400000
v -0.707107 -0.707107 -0.800000
v -0.707107 -0.707107 -1.200000
v -0.707107 -0.707107 -1.600000
v -0.758948 -0.507113 -0.400000
v -0.831470 -0.555570 -0.800000
v -0.831470 -0.555570 -1.200000
v -0.831470 -0.555570 -1.600000
v -0.843297 -0.349305 -0.400000
v -0.923880 -0.382683 -0.800000
v -0.923880 -0.382683 -1.200000
v -0.923880 -0.382683 -1.600000
v -0.895240 -0.178074 -0.400000
v -0.980785 -0.195090 -0.800000
v -0.980785 -0.195090 -1.200000
v -0.980785 -0.195090 -1.600000
v -0.912779 -0.000000 -0.400000
v -1.000000 -0.000000 -0.800000
v -1.000000 0.000000 -1.200000
v -1.000000 0.000000 -1.600000
v -0.895240 0.178074 -0.400000
v -0.980785 0.195090 -0.800000
v -0.980785 0.195090 -1.200000
v -0.980785 0.195090 -1.600000
v -0.843297 0.349305 -0.400000
v -0.923880 0.382683 -0.800000
v -0.923880 0.382683 -1.200000
v -0.923880 0.382683 -1.600000
v -0.758948 0.507113 -0.400000
v -0.831470 0.555570 -0.800000
v -0.831470 0.555570 -1.200000
v -0.831470 0.555570 -1.600000
v -0.645432 0.645432 -0.400000
v -0.707107 0.707107 -0.800000
v -0.707107 0.707107 -1.200000
v -0.707107 0.707107 -1.600000
v -0.507113 0.758948 -0.400000
v -0.555570 0.831470 -0.800000
v -0.555570 0.831470 -1.200000
v -0.555570 0.831470 -1.600000
v -0.349305 0.843297 -0.400000
v -0.382683 0.923880 -0.800000
v -0.382683 0.923880 -1.200000
v -0.382683 0.923880 -1.600000
v -0.178074 0.895240 -0.400000
v -0.195090 0.980785 -0.800000
v -0.195090 0.980785 -1.200000
v -0.195090 0.980785 -1.600000
v -0.000000 0.769805 -0.210811
v 0.150181 0.755013 -0.210811
v 0.294591 0.711207 -0.210811
v 0.427681 0.640069 -0.210811
v 0.544334 0.544334 -0.210811
v 0.640069 0.427680 -0.210811
v 0.711207 0.294591 -0.210811
v 0.755013 0.150181 -0.210811
v 0.769805 -0.000000 -0.210811
v 0.755013 -0.150181 -0.210811
v 0.711207 -0.294591 -0.210811
v 0.640069 -0.427681 -0.210811
v 0.544334 -0.544334 -0.210811
v 0.427681 -0.640069 -0.210811
v 0.294591 -0.711207 -0.210811
v 0.150181 -0.755013 -0.210811
v -0.000000 -0.769805 -0.210811
v -0.150181 -0.755013 -0.210811
v -0.294591 -0.711207 -0.210811
v -0.427681 -0.640069 -0.210811
v -0.544334 -0.544334 -0.210811
v -0.640069 -0.427681 -0.210811
v -0.711207 -0.294591 -0.210811
v -0.755013 -0.150181 -0.210811
v -0.769805 -0.000000 -0.210811
v -0.755013 0.150181 -0.210811
v -0.711207 0.294591 -0.210811
v -0.640069 0.427680 -0.210811
v -0.544334 0.544334 -0.210811
v -0.427681 0.640069 -0.210811
v -0.294591 0.711207 -0.210811
v -0.150181 0.755013 -0.210811
v -0.000000 0.651986 -0.105405
v 0.127196 0.639458 -0.105405
v 0.249504 0.602356 -0.105405
v 0.362224 0.542106 -0.105405
v 0.461024 0.461024 -0.105405
v 0.542106 0.362224 -0.105405
v 0.602356 0.249504 -0.105405
v 0.639458 0.127196 -0.105405
v 0.651986 -0.000000 -0.105405
v 0.639458 -0.127196 -0.105405
v 0.602356 -0.249504 -0.105405
v 0.542106 -0.362224 -0.105405
v 0.461024 -0.461024 -0.105405
v 0.362224 -0.542106 -0.105405
v 0.249504 -0.602356 -0.105405
v 0.127196 -0.639458 -0.105405
v -0.000000 -0.651986 -0.105405
v -0.127196 -0.639458 -0.105405
v -0.249504 -0.602356 -0.105405
v -0.362224 -0.542106 -0.105405
v -0.461024 -0.461024 -0.105405
v -0.542106 -0.362224 -0.105405
v -0.602356 -0.249504 -0.105405
v -0.639458 -0.127196 -0.105405
v -0.651986 -0.000000 -0.105405
v -0.639458 0.127196 -0.105405
v -0.602356 0.249504 -0.105405
v -0.542106 0.362224 -0.105405
v -0.461024 0.461024 -0.105405
v -0.362224 0.542106 -0.105405
v -0.249504 0.602356 -0.105405
v -0.127196 0.639458 -0.105405
vn -0.0000 1.0000 -0.0000
vn -0.0000 0.3606 0.9327
vn 0.1951 0.9808 -0.0000
vn 0.0703 0.3536 0.9327
vn 0.3827 0.9239 -0.0000
vn 0.1380 0.3331 0.9327
vn 0.5556 0.8315 -0.0000
vn 0.2003 0.2998 0.9327
vn 0.7071 0.7071 -0.0000
vn 0.2550 0.2550 0.9327
vn 0.8315 0.5556 -0.0000
vn 0.2998 0.2003 0.9327
vn 0.9239 0.3827 -0.0000
vn 0.3331 0.1380 0.9327
vn 0.9808 0.1951 -0.0000
vn 0.3536 0.0703 0.9327
vn 1.0000 -0.0000 -0.0000
vn 0.3606 -0.0000 0.9327
vn 0.9808 -0.1951 -0.0000
vn 0.3536 -0.0703 0.9327
vn 0.9239 -0.3827 -0.0000
vn 0.3331 -0.1380 0.9327
vn 0.8315 -0.5556 -0.0000
vn 0.2998 -0.2003 0.9327
vn 0.7071 -0.7071 -0.0000
vn 0.2550 -0.2550 0.9327
vn 0.5556 -0.8315 -0.0000
vn 0.2003 -0.2998 0.9327
vn 0.3827 -0.9239 -0.0000
vn 0.1380 -0.3331 0.9327
vn 0.1951 -0.9808 -0.0000
vn 0.0703 -0.3536 0.9327
vn -0.0000 -1.0000 -0.0000
vn -0.0000 -0.3606 0.9327
vn -0.1951 -0.9808 -0.0000
vn -0.0703 -0.3536 0.9327
vn -0.3827 -0.9239 -0.0000
vn -0.1380 -0.3331 0.9327
vn -0.5556 -0.8315 -0.0000
vn -0.2003 -0.2998 0.9327
vn -0.7071 -0.7071 -0.0000
vn -0.2550 -0.2550 0.9327
vn -0.8315 -0.5556 -0.0000
vn -0.2998 -0.2003 0.9327
vn -0.9239 -0.3827 -0.0000
vn -0.3331 -0.1380 0.9327
vn -0.9808 -0.1951 -0.0000
vn -0.3536 -0.0703 0.9327
vn -1.0000 -0.0000 -0.0000
vn -0.3606 -0.0000 0.9327
vn -0.9808 0.1951 -0.0000
vn -0.3536 0.0703 0.9327
vn -0.9239 0.3827 -0.0000
vn -0.3331 0.1380 0.9327
vn -0.8315 0.5556 -0.0000
vn -0.2998 0.2003 0.9327
vn -0.7071 0.7071 -0.0000
vn -0.2550 0.2550 0.9327
vn -0.5556 0.8315 -0.0000
vn -0.2003 0.2998 0.9327
vn -0.3827 0.9239 -0.0000
vn -0.1380 0.3331 0.9327
vn -0.1951 0.9808 -0.0000
vn -0.0703 0.3536 0.9327
vn -0.0000 0.9943 0.1064
vn -0.0000 0.9109 0.4127
vn 0.1777 0.8934 0.4127
vn 0.1940 0.9752 0.1064
vn 0.3486 0.8415 0.4127
vn 0.3805 0.9186 0.1064
vn 0.5060 0.7574 0.4127
vn 0.5524 0.8267 0.1064
vn 0.6441 0.6441 0.4127
vn 0.7031 0.7031 0.1064
vn 0.7574 0.5060 0.4127
vn 0.8267 0.5524 0.1064
vn 0.8415 0.3486 0.4127
vn 0.9186 0.3805 0.1064
vn 0.8934 0.1777 0.4127
vn 0.9752 0.1940 0.1064
vn 0.9109 -0.0000 0.4127
vn 0.9943 -0.0000 0.1064
vn 0.8934 -0.1777 0.4127
vn 0.9752 -0.1940 0.1064
vn 0.8415 -0.3486 0.4127
vn 0.9186 -0.3805 0.1064
vn 0.7574 -0.5060 0.4127
vn 0.8267 -0.5524 0.1064
vn 0.6441 -0.6441 0.4127
vn 0.7031 -0.7031 0.1064
vn 0.5060 -0.7574 0.4127
vn 0.5524 -0.8267 0.1064
vn 0.3486 -0.8415 0.4127
vn 0.3805 -0.9186 0.1064
vn 0.1777 -0.8934 0.4127
vn 0.1940 -0.9752 0.1064
vn -0.0000 -0.9109 0.4127
vn -0.0000 -0.9943 0.1064
vn -0.1777 -0.8934 0.4127
vn -0.1940 -0.9752 0.1064
vn -0.3486 -0.8415 0.4127
vn -0.3805 -0.9186 0.1064
vn -0.5060 -0.7574 0.4127
vn -0.5524 -0.8267 0.1064
vn -0.6441 -0.6441 0.4127
vn -0.7031 -0.7031 0.1064
vn -0.7574 -0.5060 0.4127
vn -0.8267 -0.5524 0.1064
vn -0.8415 -0.3486 0.4127
vn -0.9186 -0.3805 0.1064
vn -0.8934 -0.1777 0.4127
vn -0.9752 -0.1940 0.1064
vn -0.9109 -0.0000 0.4127
vn -0.9943 -0.0000 0.1064
vn -0.8934 0.1777 0.4127
vn -0.9752 0.1940 0.1064
vn -0.8415 0.3486 0.4127
vn -0.9186 0.3805 0.1064
vn -0.7574 0.5060 0.4127
vn -0.8267 0.5524 0.1064
vn -0.6441 0.6441 0.4127
vn -0.7031 0.7031 0.1064
vn -0.5060 0.7574 0.4127
vn -0.5524 0.8267 0.1064
vn -0.3486 0.8415 0.4127
vn -0.3805 0.9186 0.1064
vn -0.1777 0.8934 0.4127
vn -0.1940 0.9752 0.1064
vn -0.0000 0.7385 0.6743
vn 0.1441 0.7243 0.6743
vn 0.2826 0.6823 0.6743
vn 0.4103 0.6140 0.6743
vn 0.5222 0.5222 0.6743
vn 0.6140 0.4103 0.6743
vn 0.6823 0.2826 0.6743
vn 0.7243 0.1441 0.6743
vn 0.7385 -0.0000 0.6743
vn 0.7243 -0.1441 0.6743
vn 0.6823 -0.2826 0.6743
vn 0.6140 -0.4103 0.6743
vn 0.5222 -0.5222 0.6743
vn 0.4103 -0.6140 0.6743
vn 0.2826 -0.6823 0.6743
vn 0.1441 -0.7243 0.6743
vn -0.0000 -0.7385 0.6743
vn -0.1441 -0.7243 0.6743
vn -0.2826 -0.6823 0.6743
vn -0.4103 -0.6140 0.6743
vn -0.5222 -0.5222 0.6743
vn -0.6140 -0.4103 0.6743
vn -0.6823 -0.2826 0.6743
vn -0.7243 -0.1441 0.6743
vn -0.7385 -0.0000 0.6743
vn -0.7243 0.1441 0.6743
vn -0.6823 0.2826 0.6743
vn -0.6140 0.4103 0.6743
vn -0.5222 0.5222 0.6743
vn -0.4103 0.6140 0.6743
vn -0.2826 0.6823 0.6743
vn -0.1441 0.7243 0.6743
vn -0.0000 0.5302 0.8479
vn 0.1034 0.5200 0.8479
vn 0.2029 0.4898 0.8479
vn 0.2946 0.4408 0.8479
vn 0.3749 0.3749 0.8479
vn 0.4408 0.2946 0.8479
vn 0.4898 0.2029 0.8479
vn 0.5200 0.1034 0.8479
vn 0.5302 -0.0000 0.8479
vn 0.5200 -0.1034 0.8479
vn 0.4898 -0.2029 0.8479
vn 0.4408 -0.2946 0.8479
vn 0.3749 -0.3749 0.8479
vn 0.2946 -0.4408 0.8479
vn 0.2029 -0.4898 0.8479
vn 0.1034 -0.5200 0.8479
vn -0.0000 -0.5302 0.8479
vn -0.1034 -0.5200 0.8479
vn -0.2029 -0.4898 0.8479
vn -0.2946 -0.4408 0.8479
vn -0.3749 -0.3749 0.8479
vn -0.4408 -0.2946 0.8479
vn -0.4898 -0.2029 0.8479
vn -0.5200 -0.1034 0.8479
vn -0.5302 -0.0000 0.8479
vn -0.5200 0.1034 0.8479
vn -0.4898 0.2029 0.8479
vn -0.4408 0.2946 0.8479
vn -0.3749 0.3749 0.8479
vn -0.2946 0.4408 0.8479
vn -0.2029 0.4898 0.8479
vn -0.1034 0.5200 0.8479
vt 1.000000 0.973649
vt 1.000000 1.000000
vt 0.968750 1.000000
vt 0.968750 0.973649
vt 0.937500 1.000000
vt 0.937500 0.973649
vt 0.906250 1.000000
vt 0.906250 0.973649
vt 0.875000 1.000000
vt 0.875000 0.973649
vt 0.843750 1.000000
vt 0.843750 0.973649
vt 0.812500 1.000000
vt 0.812500 0.973649
vt 0.781250 1.000000
vt 0.781250 0.973649
vt 0.750000 1.000000
vt 0.750000 0.973649
vt 0.718750 1.000000
vt 0.718750 0.973649
vt 0.687500 1.000000
vt 0.687500 0.973649
vt 0.656250 1.000000
vt 0.656250 0.973649
vt 0.625000 1.000000
vt 0.625000 0.973649
vt 0.593750 1.000000
vt 0.593750 0.973649
vt 0.562500 1.000000
vt 0.562500 0.973649
vt 0.531250 1.000000
vt 0.531250 0.973649
vt 0.500000 1.000000
vt 0.500000 0.973649
vt 0.468750 1.000000
vt 0.468750 0.973649
vt 0.437500 1.000000
vt 0.437500 0.973649
vt 0.406250 1.000000
vt 0.406250 0.973649
vt 0.375000 1.000000
vt 0.375000 0.973649
vt 0.343750 1.000000
vt 0.343750 0.973649
vt 0.312500 1.000000
vt 0.312500 0.973649
vt 0.281250 1.000000
vt 0.281250 0.973649
vt 0.250000 1.000000
vt 0.250000 0.973649
vt 0.218750 1.000000
vt 0.218750 0.973649
vt 0.187500 1.000000
vt 0.187500 0.973649
vt 0.156250 1.000000
vt 0.156250 0.973649
vt 0.125000 1.000000
vt 0.125000 0.973649
vt 0.093750 1.000000
vt 0.093750 0.973649
vt 0.062500 1.000000
vt 0.062500 0.973649
vt 0.031250 1.000000
vt 0.031250 0.973649
vt 0.000000 1.000000
vt 0.000000 0.973649
vt 0.031250 0.500000
vt 0.031250 0.600000
vt 0.000000 0.600000
vt 0.000000 0.500000
vt 0.031250 0.700000
vt 0.000000 0.700000
vt 0.031250 0.800000
vt 0.000000 0.800000
vt 0.031250 0.900000
vt 0.000000 0.900000
vt 0.062500 0.500000
vt 0.062500 0.600000
vt 0.062500 0.700000
vt 0.062500 0.800000
vt 0.062500 0.900000
vt 0.093750 0.500000
vt 0.093750 0.600000
vt 0.093750 0.700000
vt 0.093750 0.800000
vt 0.093750 0.900000
vt 0.125000 0.500000
vt 0.125000 0.600000
vt 0.125000 0.700000
vt 0.125000 0.800000
vt 0.125000 0.900000
vt 0.156250 0.500000
vt 0.156250 0.600000
vt 0.156250 0.700000
vt 0.156250 0.800000
vt 0.156250 0.900000
vt 0.187500 0.500000
vt 0.187500 0.600000
vt 0.187500 0.700000
vt 0.187500 0.800000
vt 0.187500 0.900000
vt 0.218750 0.500000
vt 0.218750 0.600000
vt 0.218750 0.700000
vt 0.218750 0.800000
vt 0.218750 0.900000
vt 0.250000 0.500000
vt 0.250000 0.600000
vt 0.250000 0.700000
vt 0.250000 0.800000
vt 0.250000 0.900000
vt 0.281250 0.500000
vt 0.281250 0.600000
vt 0.281250 0.700000
vt 0.281250 0.800000
vt 0.281250 0.900000
vt 0.312500 0.500000
vt 0.312500 0.600000
vt 0.312500 0.700000
vt 0.312500 0.800000
vt 0.312500 0.900000
vt 0.343750 0.500000
vt 0.343750 0.600000
vt 0.343750 0.700000
vt 0.343750 0.800000
vt 0.343750 0.900000
vt 0.375000 0.500000
vt 0.375000 0.600000
vt 0.375000 0.700000
vt 0.375000 0.800000
vt 0.375000 0.900000
vt 0.406250 0.500000
vt 0.406250 0.600000
vt 0.406250 0.700000
vt 0.406250 0.800000
vt 0.406250 0.900000
vt 0.437500 0.500000
vt 0.437500 0.600000
vt 0.437500 0.700000
vt 0.437500 0.800000
vt 0.437500 0.900000
vt 0.468750 0.500000
vt 0.468750 0.600000
vt 0.468750 0.700000
vt 0.468750 0.800000
vt 0.468750 0.900000
vt 0.500000 0.500000
vt 0.500000 0.600000
vt 0.500000 0.700000
vt 0.500000 0.800000
vt 0.500000 0.900000
vt 0.531250 0.500000
vt 0.531250 0.600000
vt 0.531250 0.700000
vt 0.531250 0.800000
vt 0.531250 0.900000
vt 0.562500 0.500000
vt 0.562500 0.600000
vt 0.562500 0.700000
vt 0.562500 0.800000
vt 0.562500 0.900000
vt 0.593750 0.500000
vt 0.593750 0.600000
vt 0.593750 0.700000
vt 0.593750 0.800000
vt 0.593750 0.900000
vt 0.625000 0.500000
vt 0.625000 0.600000
vt 0.625000 0.700000
vt 0.625000 0.800000
vt 0.625000 0.900000
vt 0.656250 0.500000
vt 0.656250 0.600000
vt 0.656250 0.700000
vt 0.656250 0.800000
vt 0.656250 0.900000
vt 0.687500 0.500000
vt 0.687500 0.600000
vt 0.687500 0.700000
vt 0.687500 0.800000
vt 0.687500 0.900000
vt 0.718750 0.500000
vt 0.718750 0.600000
vt 0.718750 0.700000
vt 0.718750 0.800000
vt 0.718750 0.900000
vt 0.750000 0.500000
vt 0.750000 0.600000
vt 0.750000 0.700000
vt 0.750000 0.800000
vt 0.750000 0.900000
vt 0.781250 0.500000
vt 0.781250 0.600000
vt 0.781250 0.700000
vt 0.781250 0.800000
vt 0.781250 0.900000
vt 0.812500 0.500000
vt 0.812500 0.600000
vt 0.812500 0.700000
vt 0.812500 0.800000
vt 0.812500 0.900000
vt 0.843750 0.500000
vt 0.843750 0.600000
vt 0.843750 0.700000
vt 0.843750 0.800000
vt 0.843750 0.900000
vt 0.875000 0.500000
vt 0.875000 0.600000
vt 0.875000 0.700000
vt 0.875000 0.800000
vt 0.875000 0.900000
vt 0.906250 0.500000
vt 0.906250 0.600000
vt 0.906250 0.700000
vt 0.906250 0.800000
vt 0.906250 0.900000
vt 0.937500 0.500000
vt 0.937500 0.600000
vt 0.937500 0.700000
vt 0.937500 0.800000
vt 0.937500 0.900000
vt 0.968750 0.500000
vt 0.968750 0.600000
vt 0.968750 0.700000
vt 0.968750 0.800000
vt 0.968750 0.900000
vt 1.000000 0.500000
vt 1.000000 0.600000
vt 1.000000 0.700000
vt 1.000000 0.800000
vt 1.000000 0.900000
vt 0.031250 0.947297
vt 0.000000 0.947297
vt 0.062500 0.947297
vt 0.093750 0.947297
vt 0.125000 0.947297
vt 0.156250 0.947297
vt 0.187500 0.947297
vt 0.218750 0.947297
vt 0.250000 0.947297
vt 0.281250 0.947297
vt 0.312500 0.947297
vt 0.343750 0.947297
vt 0.375000 0.947297
vt 0.406250 0.947297
vt 0.437500 0.947297
vt 0.468750 0.947297
vt 0.500000 0.947297
vt 0.531250 0.947297
vt 0.562500 0.947297
vt 0.593750 0.947297
vt 0.625000 0.947297
vt 0.656250 0.947297
vt 0.687500 0.947297
vt 0.718750 0.947297
vt 0.750000 0.947297
vt 0.781250 0.947297
vt 0.812500 0.947297
vt 0.843750 0.947297
vt 0.875000 0.947297
vt 0.906250 0.947297
vt 0.937500 0.947297
vt 0.968750 0.947297
vt 1.000000 0.947297
s 1
f 225/1/161 2/2/2 4/3/4 226/4/162
f 226/4/162 4/3/4 6/5/6 227/6/163
f 227/6/163 6/5/6 8/7/8 228/8/164
f 228/8/164 8/7/8 10/9/10 229/10/165
f 229/10/165 10/9/10 12/11/12 230/12/166
f 230/12/166 12/11/12 14/13/14 231/14/167
f 231/14/167 14/13/14 16/15/16 232/16/168
f 232/16/168 16/15/16 18/17/18 233/18/169
f 233/18/169 18/17/18 20/19/20 234/20/170
f 234/20/170 20/19/20 22/21/22 235/22/171
f 235/22/171 22/21/22 24/23/24 236/24/172
f 236/24/172 24/23/24 26/25/26 237/26/173
f 237/26/173 26/25/26 28/27/28 238/28/174
f 238/28/174 28/27/28 30/29/30 239/30/175
f 239/30/175 30/29/30 32/31/32 240/32/176
f 240/32/176 32/31/32 34/33/34 241/34/177
f 241/34/177 34/33/34 36/35/36 242/36/178
f 242/36/178 36/35/36 38/37/38 243/38/179
f 243/38/179 38/37/38 40/39/40 244/40/180
f 244/40/180 40/39/40 42/41/42 245/42/181
f 245/42/181 42/41/42 44/43/44 246/44/182
f 246/44/182 44/43/44 46/45/46 247/46/183
f 247/46/183 46/45/46 48/47/48 248/48/184
f 248/48/184 48/47/48 50/49/50 249/50/185
f 249/50/185 50/49/50 52/51/52 250/52/186
f 250/52/186 52/51/52 54/53/54 251/54/187
f 251/54/187 54/53/54 56/55/56 252/56/188
f 252/56/188 56/55/56 58/57/58 253/58/189
f 253/58/189 58/57/58 60/59/60 254/60/190
f 254/60/190 60/59/60 62/61/62 255/62/191
f 255/62/191 62/61/62 64/63/64 256/64/192
f 256/64/192 64/63/64 2/65/2 225/66/161
f 63/67/63 192/68/63 65/69/1 1/70/1
f 192/68/63 191/71/63 66/72/1 65/69/1
f 191/71/63 190/73/128 67/74/65 66/72/1
f 190/73/128 189/75/127 68/76/66 67/74/65
f 61/77/61 188/78/61 192/68/63 63/67/63
f 188/78/61 187/79/61 191/71/63 192/68/63
f 187/79/61 186/80/126 190/73/128 191/71/63
f 186/80/126 185/81/125 189/75/127 190/73/128
f 59/82/59 184/83/59 188/78/61 61/77/61
f 184/83/59 183/84/59 187/79/61 188/78/61
f 183/84/59 182/85/124 186/80/126 187/79/61
f 182/85/124 181/86/123 185/81/125 186/80/126
f 57/87/57 180/88/57 184/83/59 59/82/59
f 180/88/57 179/89/57 183/84/59 184/83/59
f 179/89/57 178/90/122 182/85/124 183/84/59
f 178/90/122 177/91/121 181/86/123 182/85/124
f 55/92/55 176/93/55 180/88/57 57/87/57
f 176/93/55 175/94/55 179/89/57 180/88/57
f 175/94/55 174/95/120 178/90/122 179/89/57
f 174/95/120 173/96/119 177/91/121 178/90/122
f 53/97/53 172/98/53 176/93/55 55/92/55
f 172/98/53 171/99/53 175/94/55 176/93/55
f 171/99/53 170/100/118 174/95/120 175/94/55
f 170/100/118 169/101/117 173/96/119 174/95/120
f 51/102/51 168/103/51 172/98/53 53/97/53
f 168/103/51 167/104/51 171/99/53 172/98/53
f 167/104/51 166/105/116 170/100/118 171/99/53
f 166/105/116 165/106/115 169/101/117 170/100/118
f 49/107/49 164/108/49 168/103/51 51/102/51
f 164/108/49 163/109/49 167/104/51 168/103/51
f 163/109/49 162/110/114 166/105/116 167/104/51
f 162/110/114 161/111/113 165/106/115 166/105/116
f 47/112/47 160/113/47 164/108/49 49/107/49
f 160/113/47 159/114/47 163/109/49 164/108/49
f 159/114/47 158/115/112 162/110/114 163/109/49
f 158/115/112 157/116/111 161/111/113 162/110/114
f 45/117/45 156/118/45 160/113/47 47/112/47
f 156/118/45 155/119/45 159/114/47 160/113/47
f 155/119/45 154/120/110 158/115/112 159/114/47
f 154/120/110 153/121/109 157/116/111 158/115/112
f 43/122/43 152/123/43 156/118/45 45/117/45
f 152/123/43 151/124/43 155/119/45 156/118/45
f 151/124/43 150/125/108 154/120/110 155/119/45
f 150/125/108 149/126/107 153/121/109 154/120/110
f 41/127/41 148/128/41 152/123/43 43/122/43
f 148/128/41 147/129/41 151/124/43 152/123/43
f 147/129/41 146/130/106 150/125/108 151/124/43
f 146/130/106 145/131/105 149/126/107 150/125/108
f 39/132/39 144/133/39 148/128/41 41/127/41
f 144/133/39 143/134/39 147/129/41 148/128/41
f 143/134/39 142/135/104 146/130/106 147/129/41
f 142/135/104 141/136/103 145/131/105 146/130/106
f 37/137/37 140/138/37 144/133/39 39/132/39
f 140/138/37 139/139/37 143/134/39 144/133/39
f 139/139/37 138/140/102 142/135/104 143/134/39
f 138/140/102 137/141/101 141/136/103 142/135/104
f 35/142/35 136/143/35 140/138/37 37/137/37
f 136/143/35 135/144/35 139/139/37 140/138/37
f 135/144/35 134/145/100 138/140/102 139/139/37
f 134/145/100 133/146/99 137/141/101 138/140/102
f 33/147/33 132/148/33 136/143/35 35/142/35
f 132/148/33 131/149/33 135/144/35 136/143/35
f 131/149/33 130/150/98 134/145/100 135/144/35
f 130/150/98 129/151/97 133/146/99 134/145/100
f 31/152/31 128/153/31 132/148/33 33/147/33
f 128/153/31 127/154/31 131/149/33 132/148/33
f 127/154/31 126/155/96 130/150/98 131/149/33
f 126/155/96 125/156/95 129/151/97 130/150/98
f 29/157/29 124/158/29 128/153/31 31/152/31
f 124/158/29 123/159/29 127/154/31 128/153/31
f 123/159/29 122/160/94 126/155/96 127/154/31
f 122/160/94 121/161/93 125/156/95 126/155/96
f 27/162/27 120/163/27 124/158/29 29/157/29
f 120/163/27 119/164/27 123/159/29 124/158/29
f 119/164/27 118/165/92 122/160/94 123/159/29
f 118/165/92 117/166/91 121/161/93 122/160/94
f 25/167/25 116/168/25 120/163/27 27/162/27
f 116/168/25 115/169/25 119/164/27 120/163/27
f 115/169/25 114/170/90 118/165/92 119/164/27
f 114/170/90 113/171/89 117/166/91 118/165/92
f 23/172/23 112/173/23 116/168/25 25/167/25
f 112/173/23 111/174/23 115/169/25 116/168/25
f 111/174/23 110/175/88 114/170/90 115/169/25
f 110/175/88 109/176/87 113/171/89 114/170/90
f 21/177/21 108/178/21 112/173/23 23/172/23
f 108/178/21 107/179/21 111/174/23 112/173/23
f 107/179/21 106/180/86 110/175/88 111/174/23
f 106/180/86 105/181/85 109/176/87 110/175/88
f 19/182/19 104/183/19 108/178/21 21/177/21
f 104/183/19 103/184/19 107/179/21 108/178/21
f 103/184/19 102/185/84 106/180/86 107/179/21
f 102/185/84 101/186/83 105/181/85 106/180/86
f 17/187/17 100/188/17 104/183/19 19/182/19
f 100/188/17 99/189/17 103/184/19 104/183/19
f 99/189/17 98/190/82 102/185/84 103/184/19
f 98/190/82 97/191/81 101/186/83 102/185/84
f 15/192/15 96/193/15 100/188/17 17/187/17
f 96/193/15 95/194/15 99/189/17 100/188/17
f 95/194/15 94/195/80 98/190/82 99/189/17
f 94/195/80 93/196/79 97/191/81 98/190/82
f 13/197/13 92/198/13 96/193/15 15/192/15
f 92/198/13 91/199/13 95/194/15 96/193/15
f 91/199/13 90/200/78 94/195/80 95/194/15
f 90/200/78 89/201/77 93/196/79 94/195/80
f 11/202/11 88/203/11 92/198/13 13/197/13
f 88/203/11 87/204/11 91/199/13 92/198/13
f 87/204/11 86/205/76 90/200/78 91/199/13
f 86/205/76 85/206/75 89/201/77 90/200/78
f 9/207/9 84/208/9 88/203/11 11/202/11
f 84/208/9 83/209/9 87/204/11 88/203/11
f 83/209/9 82/210/74 86/205/76 87/204/11
f 82/210/74 81/211/73 85/206/75 86/205/76
f 7/212/7 80/213/7 84/208/9 9/207/9
f 80/213/7 79/214/7 83/209/9 84/208/9
f 79/214/7 78/215/72 82/210/74 83/209/9
f 78/215/72 77/216/71 81/211/73 82/210/74
f 5/217/5 76/218/5 80/213/7 7/212/7
f 76/218/5 75/219/5 79/214/7 80/213/7
f 75/219/5 74/220/70 78/215/72 79/214/7
f 74/220/70 73/221/69 77/216/71 78/215/72
f 3/222/3 72/223/3 76/218/5 5/217/5
f 72/223/3 71/224/3 75/219/5 76/218/5
f 71/224/3 70/225/68 74/220/70 75/219/5
f 70/225/68 69/226/67 73/221/69 74/220/70
f 1/227/1 65/228/1 72/223/3 3/222/3
f 65/228/1 66/229/1 71/224/3 72/223/3
f 66/229/1 67/230/65 70/225/68 71/224/3
f 67/230/65 68/231/66 69/226/67 70/225/68
f 189/75/127 224/232/160 193/233/129 68/76/66
f 185/81/125 223/234/159 224/232/160 189/75/127
f 181/86/123 222/235/158 223/234/159 185/81/125
f 177/91/121 221/236/157 222/235/158 181/86/123
f 173/96/119 220/237/156 221/236/157 177/91/121
f 169/101/117 219/238/155 220/237/156 173/96/119
f 165/106/115 218/239/154 219/238/155 169/101/117
f 161/111/113 217/240/153 218/239/154 165/106/115
f 157/116/111 216/241/152 217/240/153 161/111/113
f 153/121/109 215/242/151 216/241/152 157/116/111
f 149/126/107 214/243/150 215/242/151 153/121/109
f 145/131/105 213/244/149 214/243/150 149/126/107
f 141/136/103 212/245/148 213/244/149 145/131/105
f 137/141/101 211/246/147 212/245/148 141/136/103
f 133/146/99 210/247/146 211/246/147 137/141/101
f 129/151/97 209/248/145 210/247/146 133/146/99
f 125/156/95 208/249/144 209/248/145 129/151/97
f 121/161/93 207/250/143 208/249/144 125/156/95
f 117/166/91 206/251/142 207/250/143 121/161/93
f 113/171/89 205/252/141 206/251/142 117/166/91
f 109/176/87 204/253/140 205/252/141 113/171/89
f 105/181/85 203/254/139 204/253/140 109/176/87
f 101/186/83 202/255/138 203/254/139 105/181/85
f 97/191/81 201/256/137 202/255/138 101/186/83
f 93/196/79 200/257/136 201/256/137 97/191/81
f 89/201/77 199/258/135 200/257/136 93/196/79
f 85/206/75 198/259/134 199/258/135 89/201/77
f 81/211/73 197/260/133 198/259/134 85/206/75
f 77/216/71 196/261/132 197/260/133 81/211/73
f 73/221/69 195/262/131 196/261/132 77/216/71
f 69/226/67 194/263/130 195/262/131 73/221/69
f 68/231/66 193/264/129 194/263/130 69/226/67
f 224/232/160 256/64/192 225/66/161 193/233/129
f 223/234/159 255/62/191 256/64/192 224/232/160
f 222/235/158 254/60/190 255/62/191 223/234/159
f 221/236/157 253/58/189 254/60/190 222/235/158
f 220/237/156 252/56/188 253/58/189 221/236/157
f 219/238/155 251/54/187 252/56/188 220/237/156
f 218/239/154 250/52/186 251/54/187 219/238/155
f 217/240/153 249/50/185 250/52/186 218/239/154
f 216/241/152 248/48/184 249/50/185 217/240/153
f 215/242/151 247/46/183 248/48/184 216/241/152
f 214/243/150 246/44/182 247/46/183 215/242/151
f 213/244/149 245/42/181 246/44/182 214/243/150
f 212/245/148 244/40/180 245/42/181 213/244/149
f 211/246/147 243/38/179 244/40/180 212/245/148
f 210/247/146 242/36/178 243/38/179 211/246/147
f 209/248/145 241/34/177 242/36/178 210/247/146
f 208/249/144 240/32/176 241/34/177 209/248/145
f 207/250/143 239/30/175 240/32/176 208/249/144
f 206/251/142 238/28/174 239/30/175 207/250/143
f 205/252/141 237/26/173 238/28/174 206/251/142
f 204/253/140 236/24/172 237/26/173 205/252/141
f 203/254/139 235/22/171 236/24/172 204/253/140
f 202/255/138 234/20/170 235/22/171 203/254/139
f 201/256/137 233/18/169 234/20/170 202/255/138
f 200/257/136 232/16/168 233/18/169 201/256/137
f 199/258/135 231/14/167 232/16/168 200/257/136
f 198/259/134 230/12/166 231/14/167 199/258/135
f 197/260/133 229/10/165 230/12/166 198/259/134
f 196/261/132 228/8/164 229/10/165 197/260/133
f 195/262/131 227/6/163 228/8/164 196/261/132
f 194/263/130 226/4/162 227/6/163 195/262/131
f 193/264/129 225/1/161 226/4/162 194/263/130
