# Blender 4.5.1 LTS
# www.blender.org
mtllib cono_laser_1.mtl
o Cylinder.001
v 0.000000 1.000000 -2.000000
v 0.000000 0.695095 0.000000
v 0.195090 0.980785 -2.000000
v 0.135606 0.681739 0.000000
v 0.382683 0.923880 -2.000000
v 0.266001 0.642184 0.000000
v 0.555570 0.831470 -2.000000
v 0.386174 0.577951 0.000000
v 0.707107 0.707107 -2.000000
v 0.491507 0.491507 0.000000
v 0.831470 0.555570 -2.000000
v 0.577951 0.386174 0.000000
v 0.923880 0.382683 -2.000000
v 0.642184 0.266001 0.000000
v 0.980785 0.195090 -2.000000
v 0.681739 0.135606 0.000000
v 1.000000 0.000000 -2.000000
v 0.695095 -0.000000 0.000000
v 0.980785 -0.195090 -2.000000
v 0.681739 -0.135606 0.000000
v 0.923880 -0.382683 -2.000000
v 0.642184 -0.266001 0.000000
v 0.831470 -0.555570 -2.000000
v 0.577951 -0.386174 0.000000
v 0.707107 -0.707107 -2.000000
v 0.491507 -0.491507 0.000000
v 0.555570 -0.831470 -2.000000
v 0.386174 -0.577951 0.000000
v 0.382683 -0.923879 -2.000000
v 0.266001 -0.642184 0.000000
v 0.195090 -0.980785 -2.000000
v 0.135606 -0.681739 0.000000
v 0.000000 -1.000000 -2.000000
v 0.000000 -0.695095 -0.000000
v -0.195090 -0.980785 -2.000000
v -0.135606 -0.681739 0.000000
v -0.382683 -0.923879 -2.000000
v -0.266001 -0.642184 0.000000
v -0.555570 -0.831470 -2.000000
v -0.386174 -0.577951 0.000000
v -0.707107 -0.707107 -2.000000
v -0.491507 -0.491507 0.000000
v -0.831470 -0.555570 -2.000000
v -0.577951 -0.386174 0.000000
v -0.923880 -0.382683 -2.000000
v -0.642184 -0.266001 0.000000
v -0.980785 -0.195090 -2.000000
v -0.681739 -0.135606 0.000000
v -1.000000 0.000000 -2.000000
v -0.695095 -0.000000 0.000000
v -0.980785 0.195090 -2.000000
v -0.681739 0.135606 0.000000
v -0.923880 0.382683 -2.000000
v -0.642184 0.266001 0.000000
v -0.831470 0.555570 -2.000000
v -0.577951 0.386174 0.000000
v -0.707107 0.707107 -2.000000
v -0.491507 0.491507 0.000000
v -0.555570 0.831470 -2.000000
v -0.386174 0.577951 0.000000
v -0.382683 0.923880 -2.000000
v -0.266001 0.642184 0.000000
v -0.195090 0.980785 -2.000000
v -0.135606 0.681739 0.000000
v 0.000000 1.000000 -1.600000
v 0.000000 1.000000 -1.200000
v 0.000000 1.000000 -0.800000
v 0.000000 0.912779 -0.400000
v 0.178074 0.895240 -0.400000
v 0.195090 0.980785 -0.800000
v 0.195090 0.980785 -1.200000
v 0.195090 0.980785 -1.600000
v 0.349305 0.843297 -0.400000
v 0.382683 0.923880 -0.800000
v 0.382683 0.923880 -1.200000
v 0.382683 0.923880 -1.600000
v 0.507113 0.758948 -0.400000
v 0.555570 0.831470 -0.800000
v 0.555570 0.831470 -1.200000
v 0.555570 0.831470 -1.600000
v 0.645432 0.645432 -0.400000
v 0.707107 0.707107 -0.800000
v 0.707107 0.707107 -1.200000
v 0.707107 0.707107 -1.600000
v 0.758948 0.507113 -0.400000
v 0.831470 0.555570 -0.800000
v 0.831470 0.555570 -1.200000
v 0.831470 0.555570 -1.600000
v 0.843297 0.349305 -0.400000
v 0.923880 0.382683 -0.800000
v 0.923880 0.382683 -1.200000
v 0.923880 0.382683 -1.600000
v 0.895240 0.178074 -0.400000
v 0.980785 0.195090 -0.800000
v 0.980785 0.195090 -1.200000
v 0.980785 0.195090 -1.600000
v 0.912779 -0.000000 -0.400000
v 1.000000 -0.000000 -0.800000
v 1.000000 0.000000 -1.200000
v 1.000000 0.000000 -1.600000
v 0.895240 -0.178074 -0.400000
v 0.980785 -0.195090 -0.800000
v 0.980785 -0.195090 -1.200000
v 0.980785 -0.195090 -1.600000
v 0.843297 -0.349305 -0.400000
v 0.923880 -0.382683 -0.800000
v 0.923880 -0.382683 -1.200000
v 0.923880 -0.382683 -1.600000
v 0.758948 -0.507113 -0.400000
v 0.831470 -0.555570 -0.800000
v 0.831470 -0.555570 -1.200000
v 0.831470 -0.555570 -1.600000
v 0.645432 -0.645432 -0.400000
v 0.707107 -0.707107 -0.800000
v 0.707107 -0.707107 -1.200000
v 0.707107 -0.707107 -1.600000
v 0.507113 -0.758948 -0.400000
v 0.555570 -0.831470 -0.800000
v 0.555570 -0.831470 -1.200000
v 0.555570 -0.831470 -1.600000
v 0.349305 -0.843297 -0.400000
v 0.382683 -0.923880 -0.800000
v 0.382683 -0.923880 -1.200000
v 0.382683 -0.923880 -1.600000
v 0.178074 -0.895240 -0.400000
v 0.195090 -0.980785 -0.800000
v 0.195090 -0.980785 -1.200000
v 0.195090 -0.980785 -1.600000
v 0.000000 -0.912778 -0.400000
v 0.000000 -1.000000 -0.800000
v 0.000000 -1.000000 -1.200000
v 0.000000 -1.000000 -1.600000
v -0.178074 -0.895240 -0.400000
v -0.195090 -0.980785 -0.800000
v -0.195090 -0.980785 -1.200000
v -0.195090 -0.980785 -1.600000
v -0.349305 -0.843297 -0.400000
v -0.382683 -0.923880 -0.800000
v -0.382683 -0.923880 -1.200000
v -0.382683 -0.923880 -1.600000
v -0.507113 -0.758948 -0.400000
v -0.555570 -0.831470 -0.800000
v -0.555570 -0.831470 -1.200000
v -0.555570 -0.831470 -1.600000
v -0.645432 -0.645432 -0.400000
v -0.707107 -0.707107 -0.800000
v -0.707107 -0.707107 -1.200000
v -0.707107 -0.707107 -1.600000
v -0.758948 -0.507113 -0.400000
v -0.831470 -0.555570 -0.800000
v -0.831470 -0.555570 -1.200000
v -0.831470 -0.555570 -1.600000
v -0.843297 -0.349305 -0.400000
v -0.923880 -0.382683 -0.800000
v -0.923880 -0.382683 -1.200000
v -0.923880 -0.382683 -1.600000
v -0.895240 -0.178074 -0.400000
v -0.980785 -0.195090 -0.800000
v -0.980785 -0.195090 -1.200000
v -0.980785 -0.195090 -1.600000
v -0.912779 -0.000000 -0.400000
v -1.000000 -0.000000 -0.800000
v -1.000000 0.000000 -1.200000
v -1.000000 0.000000 -1.600000
v -0.895240 0.178074 -0.400000
v -0.980785 0.195090 -0.800000
v -0.980785 0.195090 -1.200000
v -0.980785 0.195090 -1.600000
v -0.843297 0.349305 -0.400000
v -0.923880 0.382683 -0.800000
v -0.923880 0.382683 -1.200000
v -0.923880 0.382683 -1.600000
v -0.758948 0.507113 -0.400000
v -0.831470 0.555570 -0.800000
v -0.831470 0.555570 -1.200000
v -0.831470 0.555570 -1.600000
v -0.645432 0.645432 -0.400000
v -0.707107 0.707107 -0.800000
v -0.707107 0.707107 -1.200000
v -0.707107 0.707107 -1.600000
v -0.507113 0.758948 -0.400000
v -0.555570 0.831470 -0.800000
v -0.555570 0.831470 -1.200000
v -0.555570 0.831470 -1.600000
v -0.349305 0.843297 -0.400000
v -0.382683 0.923880 -0.800000
v -0.382683 0.923880 -1.200000
v -0.382683 0.923880 -1.600000
v -0.178074 0.895240 -0.400000
v -0.195090 0.980785 -0.800000
v -0.195090 0.980785 -1.200000
v -0.195090 0.980785 -1.600000
vn -0.0000 1.0000 -0.0000
vn -0.0000 0.8784 0.4780
vn 0.1951 0.9808 -0.0000
vn 0.1714 0.8615 0.4780
vn 0.3827 0.9239 -0.0000
vn 0.3361 0.8115 0.4780
vn 0.5556 0.8315 -0.0000
vn 0.4880 0.7303 0.4780
vn 0.7071 0.7071 -0.0000
vn 0.6211 0.6211 0.4780
vn 0.8315 0.5556 -0.0000
vn 0.7303 0.4880 0.4780
vn 0.9239 0.3827 -0.0000
vn 0.8115 0.3361 0.4780
vn 0.9808 0.1951 -0.0000
vn 0.8615 0.1714 0.4780
vn 1.0000 -0.0000 -0.0000
vn 0.8784 -0.0000 0.4780
vn 0.9808 -0.1951 -0.0000
vn 0.8615 -0.1714 0.4780
vn 0.9239 -0.3827 -0.0000
vn 0.8115 -0.3361 0.4780
vn 0.8315 -0.5556 -0.0000
vn 0.7303 -0.4880 0.4780
vn 0.7071 -0.7071 -0.0000
vn 0.6211 -0.6211 0.4780
vn 0.5556 -0.8315 -0.0000
vn 0.4880 -0.7303 0.4780
vn 0.3827 -0.9239 -0.0000
vn 0.3361 -0.8115 0.4780
vn 0.1951 -0.9808 -0.0000
vn 0.1714 -0.8615 0.4780
vn -0.0000 -1.0000 -0.0000
vn -0.0000 -0.8784 0.4780
vn -0.1951 -0.9808 -0.0000
vn -0.1714 -0.8615 0.4780
vn -0.3827 -0.9239 -0.0000
vn -0.3361 -0.8115 0.4780
vn -0.5556 -0.8315 -0.0000
vn -0.4880 -0.7303 0.4780
vn -0.7071 -0.7071 -0.0000
vn -0.6211 -0.6211 0.4780
vn -0.8315 -0.5556 -0.0000
vn -0.7303 -0.4880 0.4780
vn -0.9239 -0.3827 -0.0000
vn -0.8115 -0.3361 0.4780
vn -0.9808 -0.1951 -0.0000
vn -0.8615 -0.1714 0.4780
vn -1.0000 -0.0000 -0.0000
vn -0.8784 -0.0000 0.4780
vn -0.9808 0.1951 -0.0000
vn -0.8615 0.1714 0.4780
vn -0.9239 0.3827 -0.0000
vn -0.8115 0.3361 0.4780
vn -0.8315 0.5556 -0.0000
vn -0.7303 0.4880 0.4780
vn -0.7071 0.7071 -0.0000
vn -0.6211 0.6211 0.4780
vn -0.5556 0.8315 -0.0000
vn -0.4880 0.7303 0.4780
vn -0.3827 0.9239 -0.0000
vn -0.3361 0.8115 0.4780
vn -0.1951 0.9808 -0.0000
vn -0.1714 0.8615 0.4780
vn -0.0000 0.9943 0.1064
vn -0.0000 0.9382 0.3462
vn 0.1830 0.9201 0.3462
vn 0.1940 0.9752 0.1064
vn 0.3590 0.8668 0.3462
vn 0.3805 0.9186 0.1064
vn 0.5212 0.7801 0.3462
vn 0.5524 0.8267 0.1064
vn 0.6634 0.6634 0.3462
vn 0.7031 0.7031 0.1064
vn 0.7801 0.5212 0.3462
vn 0.8267 0.5524 0.1064
vn 0.8668 0.3590 0.3462
vn 0.9186 0.3805 0.1064
vn 0.9201 0.1830 0.3462
vn 0.9752 0.1940 0.1064
vn 0.9382 -0.0000 0.3462
vn 0.9943 -0.0000 0.1064
vn 0.9201 -0.1830 0.3462
vn 0.9752 -0.1940 0.1064
vn 0.8668 -0.3590 0.3462
vn 0.9186 -0.3805 0.1064
vn 0.7801 -0.5212 0.3462
vn 0.8267 -0.5524 0.1064
vn 0.6634 -0.6634 0.3462
vn 0.7031 -0.7031 0.1064
vn 0.5212 -0.7801 0.3462
vn 0.5524 -0.8267 0.1064
vn 0.3590 -0.8668 0.3462
vn 0.3805 -0.9186 0.1064
vn 0.1830 -0.9201 0.3462
vn 0.1940 -0.9752 0.1064
vn -0.0000 -0.9382 0.3462
vn -0.0000 -0.9943 0.1064
vn -0.1830 -0.9201 0.3462
vn -0.1940 -0.9752 0.1064
vn -0.3590 -0.8668 0.3462
vn -0.3805 -0.9186 0.1064
vn -0.5212 -0.7801 0.3462
vn -0.5524 -0.8267 0.1064
vn -0.6634 -0.6634 0.3462
vn -0.7031 -0.7031 0.1064
vn -0.7801 -0.5212 0.3462
vn -0.8267 -0.5524 0.1064
vn -0.8668 -0.3590 0.3462
vn -0.9186 -0.3805 0.1064
vn -0.9201 -0.1830 0.3462
vn -0.9752 -0.1940 0.1064
vn -0.9382 -0.0000 0.3462
vn -0.9943 -0.0000 0.1064
vn -0.9201 0.1830 0.3462
vn -0.9752 0.1940 0.1064
vn -0.8668 0.3590 0.3462
vn -0.9186 0.3805 0.1064
vn -0.7801 0.5212 0.3462
vn -0.8267 0.5524 0.1064
vn -0.6634 0.6634 0.3462
vn -0.7031 0.7031 0.1064
vn -0.5212 0.7801 0.3462
vn -0.5524 0.8267 0.1064
vn -0.3590 0.8668 0.3462
vn -0.3805 0.9186 0.1064
vn -0.1830 0.9201 0.3462
vn -0.1940 0.9752 0.1064
vt 1.000000 0.900000
vt 1.000000 1.000000
vt 0.968750 1.000000
vt 0.968750 0.900000
vt 0.937500 1.000000
vt 0.937500 0.900000
vt 0.906250 1.000000
vt 0.906250 0.900000
vt 0.875000 1.000000
vt 0.875000 0.900000
vt 0.843750 1.000000
vt 0.843750 0.900000
vt 0.812500 1.000000
vt 0.812500 0.900000
vt 0.781250 1.000000
vt 0.781250 0.900000
vt 0.750000 1.000000
vt 0.750000 0.900000
vt 0.718750 1.000000
vt 0.718750 0.900000
vt 0.687500 1.000000
vt 0.687500 0.900000
vt 0.656250 1.000000
vt 0.656250 0.900000
vt 0.625000 1.000000
vt 0.625000 0.900000
vt 0.593750 1.000000
vt 0.593750 0.900000
vt 0.562500 1.000000
vt 0.562500 0.900000
vt 0.531250 1.000000
vt 0.531250 0.900000
vt 0.500000 1.000000
vt 0.500000 0.900000
vt 0.468750 1.000000
vt 0.468750 0.900000
vt 0.437500 1.000000
vt 0.437500 0.900000
vt 0.406250 1.000000
vt 0.406250 0.900000
vt 0.375000 1.000000
vt 0.375000 0.900000
vt 0.343750 1.000000
vt 0.343750 0.900000
vt 0.312500 1.000000
vt 0.312500 0.900000
vt 0.281250 1.000000
vt 0.281250 0.900000
vt 0.250000 1.000000
vt 0.250000 0.900000
vt 0.218750 1.000000
vt 0.218750 0.900000
vt 0.187500 1.000000
vt 0.187500 0.900000
vt 0.156250 1.000000
vt 0.156250 0.900000
vt 0.125000 1.000000
vt 0.125000 0.900000
vt 0.093750 1.000000
vt 0.093750 0.900000
vt 0.062500 1.000000
vt 0.062500 0.900000
vt 0.031250 1.000000
vt 0.031250 0.900000
vt 0.000000 1.000000
vt 0.000000 0.900000
vt 0.031250 0.500000
vt 0.031250 0.600000
vt 0.000000 0.600000
vt 0.000000 0.500000
vt 0.031250 0.700000
vt 0.000000 0.700000
vt 0.031250 0.800000
vt 0.000000 0.800000
vt 0.062500 0.500000
vt 0.062500 0.600000
vt 0.062500 0.700000
vt 0.062500 0.800000
vt 0.093750 0.500000
vt 0.093750 0.600000
vt 0.093750 0.700000
vt 0.093750 0.800000
vt 0.125000 0.500000
vt 0.125000 0.600000
vt 0.125000 0.700000
vt 0.125000 0.800000
vt 0.156250 0.500000
vt 0.156250 0.600000
vt 0.156250 0.700000
vt 0.156250 0.800000
vt 0.187500 0.500000
vt 0.187500 0.600000
vt 0.187500 0.700000
vt 0.187500 0.800000
vt 0.218750 0.500000
vt 0.218750 0.600000
vt 0.218750 0.700000
vt 0.218750 0.800000
vt 0.250000 0.500000
vt 0.250000 0.600000
vt 0.250000 0.700000
vt 0.250000 0.800000
vt 0.281250 0.500000
vt 0.281250 0.600000
vt 0.281250 0.700000
vt 0.281250 0.800000
vt 0.312500 0.500000
vt 0.312500 0.600000
vt 0.312500 0.700000
vt 0.312500 0.800000
vt 0.343750 0.500000
vt 0.343750 0.600000
vt 0.343750 0.700000
vt 0.343750 0.800000
vt 0.375000 0.500000
vt 0.375000 0.600000
vt 0.375000 0.700000
vt 0.375000 0.800000
vt 0.406250 0.500000
vt 0.406250 0.600000
vt 0.406250 0.700000
vt 0.406250 0.800000
vt 0.437500 0.500000
vt 0.437500 0.600000
vt 0.437500 0.700000
vt 0.437500 0.800000
vt 0.468750 0.500000
vt 0.468750 0.600000
vt 0.468750 0.700000
vt 0.468750 0.800000
vt 0.500000 0.500000
vt 0.500000 0.600000
vt 0.500000 0.700000
vt 0.500000 0.800000
vt 0.531250 0.500000
vt 0.531250 0.600000
vt 0.531250 0.700000
vt 0.531250 0.800000
vt 0.562500 0.500000
vt 0.562500 0.600000
vt 0.562500 0.700000
vt 0.562500 0.800000
vt 0.593750 0.500000
vt 0.593750 0.600000
vt 0.593750 0.700000
vt 0.593750 0.800000
vt 0.625000 0.500000
vt 0.625000 0.600000
vt 0.625000 0.700000
vt 0.625000 0.800000
vt 0.656250 0.500000
vt 0.656250 0.600000
vt 0.656250 0.700000
vt 0.656250 0.800000
vt 0.687500 0.500000
vt 0.687500 0.600000
vt 0.687500 0.700000
vt 0.687500 0.800000
vt 0.718750 0.500000
vt 0.718750 0.600000
vt 0.718750 0.700000
vt 0.718750 0.800000
vt 0.750000 0.500000
vt 0.750000 0.600000
vt 0.750000 0.700000
vt 0.750000 0.800000
vt 0.781250 0.500000
vt 0.781250 0.600000
vt 0.781250 0.700000
vt 0.781250 0.800000
vt 0.812500 0.500000
vt 0.812500 0.600000
vt 0.812500 0.700000
vt 0.812500 0.800000
vt 0.843750 0.500000
vt 0.843750 0.600000
vt 0.843750 0.700000
vt 0.843750 0.800000
vt 0.875000 0.500000
vt 0.875000 0.600000
vt 0.875000 0.700000
vt 0.875000 0.800000
vt 0.906250 0.500000
vt 0.906250 0.600000
vt 0.906250 0.700000
vt 0.906250 0.800000
vt 0.937500 0.500000
vt 0.937500 0.600000
vt 0.937500 0.700000
vt 0.937500 0.800000
vt 0.968750 0.500000
vt 0.968750 0.600000
vt 0.968750 0.700000
vt 0.968750 0.800000
vt 1.000000 0.500000
vt 1.000000 0.600000
vt 1.000000 0.700000
vt 1.000000 0.800000
s 1
f 68/1/66 2/2/2 4/3/4 69/4/67
f 69/4/67 4/3/4 6/5/6 73/6/69
f 73/6/69 6/5/6 8/7/8 77/8/71
f 77/8/71 8/7/8 10/9/10 81/10/73
f 81/10/73 10/9/10 12/11/12 85/12/75
f 85/12/75 12/11/12 14/13/14 89/14/77
f 89/14/77 14/13/14 16/15/16 93/16/79
f 93/16/79 16/15/16 18/17/18 97/18/81
f 97/18/81 18/17/18 20/19/20 101/20/83
f 101/20/83 20/19/20 22/21/22 105/22/85
f 105/22/85 22/21/22 24/23/24 109/24/87
f 109/24/87 24/23/24 26/25/26 113/26/89
f 113/26/89 26/25/26 28/27/28 117/28/91
f 117/28/91 28/27/28 30/29/30 121/30/93
f 121/30/93 30/29/30 32/31/32 125/32/95
f 125/32/95 32/31/32 34/33/34 129/34/97
f 129/34/97 34/33/34 36/35/36 133/36/99
f 133/36/99 36/35/36 38/37/38 137/38/101
f 137/38/101 38/37/38 40/39/40 141/40/103
f 141/40/103 40/39/40 42/41/42 145/42/105
f 145/42/105 42/41/42 44/43/44 149/44/107
f 149/44/107 44/43/44 46/45/46 153/46/109
f 153/46/109 46/45/46 48/47/48 157/48/111
f 157/48/111 48/47/48 50/49/50 161/50/113
f 161/50/113 50/49/50 52/51/52 165/52/115
f 165/52/115 52/51/52 54/53/54 169/54/117
f 169/54/117 54/53/54 56/55/56 173/56/119
f 173/56/119 56/55/56 58/57/58 177/58/121
f 177/58/121 58/57/58 60/59/60 181/60/123
f 181/60/123 60/59/60 62/61/62 185/62/125
f 185/62/125 62/61/62 64/63/64 189/64/127
f 189/64/127 64/63/64 2/65/2 68/66/66
f 63/67/63 192/68/63 65/69/1 1/70/1
f 192/68/63 191/71/63 66/72/1 65/69/1
f 191/71/63 190/73/128 67/74/65 66/72/1
f 190/73/128 189/64/127 68/66/66 67/74/65
f 61/75/61 188/76/61 192/68/63 63/67/63
f 188/76/61 187/77/61 191/71/63 192/68/63
f 187/77/61 186/78/126 190/73/128 191/71/63
f 186/78/126 185/62/125 189/64/127 190/73/128
f 59/79/59 184/80/59 188/76/61 61/75/61
f 184/80/59 183/81/59 187/77/61 188/76/61
f 183/81/59 182/82/124 186/78/126 187/77/61
f 182/82/124 181/60/123 185/62/125 186/78/126
f 57/83/57 180/84/57 184/80/59 59/79/59
f 180/84/57 179/85/57 183/81/59 184/80/59
f 179/85/57 178/86/122 182/82/124 183/81/59
f 178/86/122 177/58/121 181/60/123 182/82/124
f 55/87/55 176/88/55 180/84/57 57/83/57
f 176/88/55 175/89/55 179/85/57 180/84/57
f 175/89/55 174/90/120 178/86/122 179/85/57
f 174/90/120 173/56/119 177/58/121 178/86/122
f 53/91/53 172/92/53 176/88/55 55/87/55
f 172/92/53 171/93/53 175/89/55 176/88/55
f 171/93/53 170/94/118 174/90/120 175/89/55
f 170/94/118 169/54/117 173/56/119 174/90/120
f 51/95/51 168/96/51 172/92/53 53/91/53
f 168/96/51 167/97/51 171/93/53 172/92/53
f 167/97/51 166/98/116 170/94/118 171/93/53
f 166/98/116 165/52/115 169/54/117 170/94/118
f 49/99/49 164/100/49 168/96/51 51/95/51
f 164/100/49 163/101/49 167/97/51 168/96/51
f 163/101/49 162/102/114 166/98/116 167/97/51
f 162/102/114 161/50/113 165/52/115 166/98/116
f 47/103/47 160/104/47 164/100/49 49/99/49
f 160/104/47 159/105/47 163/101/49 164/100/49
f 159/105/47 158/106/112 162/102/114 163/101/49
f 158/106/112 157/48/111 161/50/113 162/102/114
f 45/107/45 156/108/45 160/104/47 47/103/47
f 156/108/45 155/109/45 159/105/47 160/104/47
f 155/109/45 154/110/110 158/106/112 159/105/47
f 154/110/110 153/46/109 157/48/111 158/106/112
f 43/111/43 152/112/43 156/108/45 45/107/45
f 152/112/43 151/113/43 155/109/45 156/108/45
f 151/113/43 150/114/108 154/110/110 155/109/45
f 150/114/108 149/44/107 153/46/109 154/110/110
f 41/115/41 148/116/41 152/112/43 43/111/43
f 148/116/41 147/117/41 151/113/43 152/112/43
f 147/117/41 146/118/106 150/114/108 151/113/43
f 146/118/106 145/42/105 149/44/107 150/114/108
f 39/119/39 144/120/39 148/116/41 41/115/41
f 144/120/39 143/121/39 147/117/41 148/116/41
f 143/121/39 142/122/104 146/118/106 147/117/41
f 142/122/104 141/40/103 145/42/105 146/118/106
f 37/123/37 140/124/37 144/120/39 39/119/39
f 140/124/37 139/125/37 143/121/39 144/120/39
f 139/125/37 138/126/102 142/122/104 143/121/39
f 138/126/102 137/38/101 141/40/103 142/122/104
f 35/127/35 136/128/35 140/124/37 37/123/37
f 136/128/35 135/129/35 139/125/37 140/124/37
f 135/129/35 134/130/100 138/126/102 139/125/37
f 134/130/100 133/36/99 137/38/101 138/126/102
f 33/131/33 132/132/33 136/128/35 35/127/35
f 132/132/33 131/133/33 135/129/35 136/128/35
f 131/133/33 130/134/98 134/130/100 135/129/35
f 130/134/98 129/34/97 133/36/99 134/130/100
f 31/135/31 128/136/31 132/132/33 33/131/33
f 128/136/31 127/137/31 131/133/33 132/132/33
f 127/137/31 126/138/96 130/134/98 131/133/33
f 126/138/96 125/32/95 129/34/97 130/134/98
f 29/139/29 124/140/29 128/136/31 31/135/31
f 124/140/29 123/141/29 127/137/31 128/136/31
f 123/141/29 122/142/94 126/138/96 127/137/31
f 122/142/94 121/30/93 125/32/95 126/138/96
f 27/143/27 120/144/27 124/140/29 29/139/29
f 120/144/27 119/145/27 123/141/29 124/140/29
f 119/145/27 118/146/92 122/142/94 123/141/29
f 118/146/92 117/28/91 121/30/93 122/142/94
f 25/147/25 116/148/25 120/144/27 27/143/27
f 116/148/25 115/149/25 119/145/27 120/144/27
f 115/149/25 114/150/90 118/146/92 119/145/27
f 114/150/90 113/26/89 117/28/91 118/146/92
f 23/151/23 112/152/23 116/148/25 25/147/25
f 112/152/23 111/153/23 115/149/25 116/148/25
f 111/153/23 110/154/88 114/150/90 115/149/25
f 110/154/88 109/24/87 113/26/89 114/150/90
f 21/155/21 108/156/21 112/152/23 23/151/23
f 108/156/21 107/157/21 111/153/23 112/152/23
f 107/157/21 106/158/86 110/154/88 111/153/23
f 106/158/86 105/22/85 109/24/87 110/154/88
f 19/159/19 104/160/19 108/156/21 21/155/21
f 104/160/19 103/161/19 107/157/21 108/156/21
f 103/161/19 102/162/84 106/158/86 107/157/21
f 102/162/84 101/20/83 105/22/85 106/158/86
f 17/163/17 100/164/17 104/160/19 19/159/19
f 100/164/17 99/165/17 103/161/19 104/160/19
f 99/165/17 98/166/82 102/162/84 103/161/19
f 98/166/82 97/18/81 101/20/83 102/162/84
f 15/167/15 96/168/15 100/164/17 17/163/17
f 96/168/15 95/169/15 99/165/17 100/164/17
f 95/169/15 94/170/80 98/166/82 99/165/17
f 94/170/80 93/16/79 97/18/81 98/166/82
f 13/171/13 92/172/13 96/168/15 15/167/15
f 92/172/13 91/173/13 95/169/15 96/168/15
f 91/173/13 90/174/78 94/170/80 95/169/15
f 90/174/78 89/14/77 93/16/79 94/170/80
f 11/175/11 88/176/11 92/172/13 13/171/13
f 88/176/11 87/177/11 91/173/13 92/172/13
f 87/177/11 86/178/76 90/174/78 91/173/13
f 86/178/76 85/12/75 89/14/77 90/174/78
f 9/179/9 84/180/9 88/176/11 11/175/11
f 84/180/9 83/181/9 87/177/11 88/176/11
f 83/181/9 82/182/74 86/178/76 87/177/11
f 82/182/74 81/10/73 85/12/75 86/178/76
f 7/183/7 80/184/7 84/180/9 9/179/9
f 80/184/7 79/185/7 83/181/9 84/180/9
f 79/185/7 78/186/72 82/182/74 83/181/9
f 78/186/72 77/8/71 81/10/73 82/182/74
f 5/187/5 76/188/5 80/184/7 7/183/7
f 76/188/5 75/189/5 79/185/7 80/184/7
f 75/189/5 74/190/70 78/186/72 79/185/7
f 74/190/70 73/6/69 77/8/71 78/186/72
f 3/191/3 72/192/3 76/188/5 5/187/5
f 72/192/3 71/193/3 75/189/5 76/188/5
f 71/193/3 70/194/68 74/190/70 75/189/5
f 70/194/68 69/4/67 73/6/69 74/190/70
f 1/195/1 65/196/1 72/192/3 3/191/3
f 65/196/1 66/197/1 71/193/3 72/192/3
f 66/197/1 67/198/65 70/194/68 71/193/3
f 67/198/65 68/1/66 69/4/67 70/194/68
