# Blender 4.5.1 LTS
# www.blender.org
mtllib cono_laser.mtl
o Cylinder
v -0.000000 1.803185 -0.933193
v 0.000000 0.426895 0.218904
v 0.351784 1.768537 -0.933193
v 0.083283 0.418692 0.218904
v 0.690049 1.665926 -0.933193
v 0.163366 0.394400 0.218904
v 1.001796 1.499293 -0.933193
v 0.237170 0.354950 0.218904
v 1.275044 1.275044 -0.933193
v 0.301860 0.301860 0.218904
v 1.499293 1.001796 -0.933193
v 0.354950 0.237170 0.218904
v 1.665926 0.690049 -0.933193
v 0.394400 0.163366 0.218904
v 1.768537 0.351784 -0.933193
v 0.418692 0.083283 0.218904
v 1.803185 0.000000 -0.933193
v 0.426895 -0.000000 0.218904
v 1.768537 -0.351784 -0.933193
v 0.418692 -0.083283 0.218904
v 1.665926 -0.690049 -0.933193
v 0.394400 -0.163366 0.218904
v 1.499293 -1.001796 -0.933193
v 0.354950 -0.237170 0.218904
v 1.275044 -1.275044 -0.933193
v 0.301860 -0.301861 0.218904
v 1.001796 -1.499293 -0.933193
v 0.237170 -0.354950 0.218904
v 0.690049 -1.665926 -0.933193
v 0.163366 -0.394400 0.218904
v 0.351784 -1.768537 -0.933193
v 0.083283 -0.418692 0.218904
v -0.000000 -1.803185 -0.933193
v 0.000000 -0.426895 0.218904
v -0.351784 -1.768537 -0.933193
v -0.083283 -0.418692 0.218904
v -0.690049 -1.665926 -0.933193
v -0.163366 -0.394400 0.218904
v -1.001796 -1.499293 -0.933193
v -0.237170 -0.354950 0.218904
v -1.275044 -1.275044 -0.933193
v -0.301860 -0.301861 0.218904
v -1.499293 -1.001796 -0.933193
v -0.354950 -0.237170 0.218904
v -1.665926 -0.690049 -0.933193
v -0.394400 -0.163366 0.218904
v -1.768537 -0.351784 -0.933193
v -0.418692 -0.083283 0.218904
v -1.803185 0.000000 -0.933193
v -0.426895 -0.000000 0.218904
v -1.768537 0.351784 -0.933193
v -0.418692 0.083283 0.218904
v -1.665926 0.690049 -0.933193
v -0.394400 0.163366 0.218904
v -1.499293 1.001796 -0.933193
v -0.354950 0.237170 0.218904
v -1.275044 1.275044 -0.933193
v -0.301860 0.301860 0.218904
v -1.001796 1.499293 -0.933193
v -0.237170 0.354950 0.218904
v -0.690049 1.665926 -0.933193
v -0.163366 0.394400 0.218904
v -0.351784 1.768537 -0.933193
v -0.083283 0.418692 0.218904
v -0.000000 1.498820 -0.645169
v -0.000000 1.194456 -0.357144
v 0.000000 0.840468 -0.069120
v 0.163967 0.824319 -0.069120
v 0.233027 1.171504 -0.357144
v 0.292405 1.470021 -0.645169
v 0.321633 0.776491 -0.069120
v 0.457098 1.103533 -0.357144
v 0.573574 1.384729 -0.645169
v 0.466939 0.698824 -0.069120
v 0.663604 0.993153 -0.357144
v 0.832700 1.246223 -0.645169
v 0.594301 0.594301 -0.069120
v 0.844608 0.844608 -0.357144
v 1.059826 1.059826 -0.645169
v 0.698824 0.466939 -0.069120
v 0.993153 0.663604 -0.357144
v 1.246223 0.832700 -0.645169
v 0.776492 0.321633 -0.069120
v 1.103533 0.457098 -0.357144
v 1.384729 0.573574 -0.645169
v 0.824319 0.163967 -0.069120
v 1.171504 0.233027 -0.357144
v 1.470021 0.292405 -0.645169
v 0.840468 -0.000000 -0.069120
v 1.194456 -0.000000 -0.357144
v 1.498820 0.000000 -0.645169
v 0.824319 -0.163967 -0.069120
v 1.171504 -0.233027 -0.357144
v 1.470021 -0.292405 -0.645169
v 0.776492 -0.321633 -0.069120
v 1.103533 -0.457098 -0.357144
v 1.384729 -0.573574 -0.645169
v 0.698824 -0.466939 -0.069120
v 0.993153 -0.663604 -0.357144
v 1.246223 -0.832700 -0.645169
v 0.594301 -0.594301 -0.069120
v 0.844608 -0.844608 -0.357144
v 1.059826 -1.059826 -0.645169
v 0.466939 -0.698824 -0.069120
v 0.663604 -0.993154 -0.357144
v 0.832700 -1.246223 -0.645169
v 0.321633 -0.776492 -0.069120
v 0.457098 -1.103533 -0.357144
v 0.573574 -1.384729 -0.645169
v 0.163967 -0.824319 -0.069120
v 0.233027 -1.171504 -0.357144
v 0.292405 -1.470021 -0.645169
v 0.000000 -0.840468 -0.069120
v -0.000000 -1.194456 -0.357144
v -0.000000 -1.498820 -0.645169
v -0.163967 -0.824319 -0.069120
v -0.233027 -1.171504 -0.357144
v -0.292405 -1.470021 -0.645169
v -0.321633 -0.776492 -0.069120
v -0.457098 -1.103533 -0.357144
v -0.573574 -1.384729 -0.645169
v -0.466939 -0.698824 -0.069120
v -0.663604 -0.993154 -0.357144
v -0.832700 -1.246223 -0.645169
v -0.594301 -0.594301 -0.069120
v -0.844608 -0.844608 -0.357144
v -1.059826 -1.059826 -0.645169
v -0.698824 -0.466939 -0.069120
v -0.993153 -0.663604 -0.357144
v -1.246223 -0.832700 -0.645169
v -0.776492 -0.321633 -0.069120
v -1.103533 -0.457098 -0.357144
v -1.384729 -0.573574 -0.645169
v -0.824319 -0.163967 -0.069120
v -1.171504 -0.233027 -0.357144
v -1.470021 -0.292405 -0.645169
v -0.840468 -0.000000 -0.069120
v -1.194456 -0.000000 -0.357144
v -1.498820 0.000000 -0.645169
v -0.824319 0.163967 -0.069120
v -1.171504 0.233027 -0.357144
v -1.470021 0.292405 -0.645169
v -0.776492 0.321633 -0.069120
v -1.103533 0.457098 -0.357144
v -1.384729 0.573574 -0.645169
v -0.698824 0.466939 -0.069120
v -0.993153 0.663604 -0.357144
v -1.246223 0.832700 -0.645169
v -0.594301 0.594301 -0.069120
v -0.844608 0.844608 -0.357144
v -1.059826 1.059826 -0.645169
v -0.466939 0.698824 -0.069120
v -0.663604 0.993153 -0.357144
v -0.832700 1.246223 -0.645169
v -0.321633 0.776491 -0.069120
v -0.457098 1.103533 -0.357144
v -0.573574 1.384729 -0.645169
v -0.163967 0.824319 -0.069120
v -0.233027 1.171504 -0.357144
v -0.292405 1.470021 -0.645169
vn -0.0000 0.6873 0.7263
vn -0.0000 0.5715 0.8206
vn 0.1341 0.6741 0.7263
vn 0.1115 0.5605 0.8206
vn 0.2630 0.6350 0.7263
vn 0.2187 0.5280 0.8206
vn 0.3819 0.5715 0.7263
vn 0.3175 0.4752 0.8206
vn 0.4860 0.4860 0.7263
vn 0.4041 0.4041 0.8206
vn 0.5715 0.3819 0.7263
vn 0.4752 0.3175 0.8206
vn 0.6350 0.2630 0.7263
vn 0.5280 0.2187 0.8206
vn 0.6741 0.1341 0.7263
vn 0.5605 0.1115 0.8206
vn 0.6873 -0.0000 0.7263
vn 0.5715 -0.0000 0.8206
vn 0.6741 -0.1341 0.7263
vn 0.5605 -0.1115 0.8206
vn 0.6350 -0.2630 0.7263
vn 0.5280 -0.2187 0.8206
vn 0.5715 -0.3819 0.7263
vn 0.4752 -0.3175 0.8206
vn 0.4860 -0.4860 0.7263
vn 0.4041 -0.4041 0.8206
vn 0.3819 -0.5715 0.7263
vn 0.3175 -0.4752 0.8206
vn 0.2630 -0.6350 0.7263
vn 0.2187 -0.5280 0.8206
vn 0.1341 -0.6741 0.7263
vn 0.1115 -0.5605 0.8206
vn -0.0000 -0.6873 0.7263
vn -0.0000 -0.5715 0.8206
vn -0.1341 -0.6741 0.7263
vn -0.1115 -0.5605 0.8206
vn -0.2630 -0.6350 0.7263
vn -0.2187 -0.5280 0.8206
vn -0.3819 -0.5715 0.7263
vn -0.3175 -0.4752 0.8206
vn -0.4860 -0.4860 0.7263
vn -0.4041 -0.4041 0.8206
vn -0.5715 -0.3819 0.7263
vn -0.4752 -0.3175 0.8206
vn -0.6350 -0.2630 0.7263
vn -0.5280 -0.2187 0.8206
vn -0.6741 -0.1341 0.7263
vn -0.5605 -0.1115 0.8206
vn -0.6873 -0.0000 0.7263
vn -0.5715 -0.0000 0.8206
vn -0.6741 0.1341 0.7263
vn -0.5605 0.1115 0.8206
vn -0.6350 0.2630 0.7263
vn -0.5280 0.2187 0.8206
vn -0.5715 0.3819 0.7263
vn -0.4752 0.3175 0.8206
vn -0.4860 0.4860 0.7263
vn -0.4041 0.4041 0.8206
vn -0.3819 0.5715 0.7263
vn -0.3175 0.4752 0.8206
vn -0.2630 0.6350 0.7263
vn -0.2187 0.5280 0.8206
vn -0.1341 0.6741 0.7263
vn -0.1115 0.5605 0.8206
vn -0.0000 0.6610 0.7504
vn -0.0000 0.6032 0.7976
vn 0.1177 0.5916 0.7976
vn 0.1290 0.6483 0.7504
vn 0.2308 0.5573 0.7976
vn 0.2530 0.6107 0.7504
vn 0.3351 0.5016 0.7976
vn 0.3672 0.5496 0.7504
vn 0.4265 0.4265 0.7976
vn 0.4674 0.4674 0.7504
vn 0.5016 0.3351 0.7976
vn 0.5496 0.3672 0.7504
vn 0.5573 0.2308 0.7976
vn 0.6107 0.2530 0.7504
vn 0.5916 0.1177 0.7976
vn 0.6483 0.1290 0.7504
vn 0.6032 -0.0000 0.7976
vn 0.6610 -0.0000 0.7504
vn 0.5916 -0.1177 0.7976
vn 0.6483 -0.1290 0.7504
vn 0.5573 -0.2308 0.7976
vn 0.6107 -0.2530 0.7504
vn 0.5016 -0.3351 0.7976
vn 0.5496 -0.3672 0.7504
vn 0.4265 -0.4265 0.7976
vn 0.4674 -0.4674 0.7504
vn 0.3351 -0.5016 0.7976
vn 0.3672 -0.5496 0.7504
vn 0.2308 -0.5573 0.7976
vn 0.2530 -0.6107 0.7504
vn 0.1177 -0.5916 0.7976
vn 0.1290 -0.6483 0.7504
vn -0.0000 -0.6032 0.7976
vn -0.0000 -0.6610 0.7504
vn -0.1177 -0.5916 0.7976
vn -0.1290 -0.6483 0.7504
vn -0.2308 -0.5573 0.7976
vn -0.2530 -0.6107 0.7504
vn -0.3351 -0.5016 0.7976
vn -0.3672 -0.5496 0.7504
vn -0.4265 -0.4265 0.7976
vn -0.4674 -0.4674 0.7504
vn -0.5016 -0.3351 0.7976
vn -0.5496 -0.3672 0.7504
vn -0.5573 -0.2308 0.7976
vn -0.6107 -0.2530 0.7504
vn -0.5916 -0.1177 0.7976
vn -0.6483 -0.1290 0.7504
vn -0.6032 -0.0000 0.7976
vn -0.6610 -0.0000 0.7504
vn -0.5916 0.1177 0.7976
vn -0.6483 0.1290 0.7504
vn -0.5573 0.2308 0.7976
vn -0.6107 0.2530 0.7504
vn -0.5016 0.3351 0.7976
vn -0.5496 0.3672 0.7504
vn -0.4265 0.4265 0.7976
vn -0.4674 0.4674 0.7504
vn -0.3351 0.5016 0.7976
vn -0.3672 0.5496 0.7504
vn -0.2308 0.5573 0.7976
vn -0.2530 0.6107 0.7504
vn -0.1177 0.5916 0.7976
vn -0.1290 0.6483 0.7504
vt 1.000000 0.875000
vt 1.000000 1.000000
vt 0.968750 1.000000
vt 0.968750 0.875000
vt 0.937500 1.000000
vt 0.937500 0.875000
vt 0.906250 1.000000
vt 0.906250 0.875000
vt 0.875000 1.000000
vt 0.875000 0.875000
vt 0.843750 1.000000
vt 0.843750 0.875000
vt 0.812500 1.000000
vt 0.812500 0.875000
vt 0.781250 1.000000
vt 0.781250 0.875000
vt 0.750000 1.000000
vt 0.750000 0.875000
vt 0.718750 1.000000
vt 0.718750 0.875000
vt 0.687500 1.000000
vt 0.687500 0.875000
vt 0.656250 1.000000
vt 0.656250 0.875000
vt 0.625000 1.000000
vt 0.625000 0.875000
vt 0.593750 1.000000
vt 0.593750 0.875000
vt 0.562500 1.000000
vt 0.562500 0.875000
vt 0.531250 1.000000
vt 0.531250 0.875000
vt 0.500000 1.000000
vt 0.500000 0.875000
vt 0.468750 1.000000
vt 0.468750 0.875000
vt 0.437500 1.000000
vt 0.437500 0.875000
vt 0.406250 1.000000
vt 0.406250 0.875000
vt 0.375000 1.000000
vt 0.375000 0.875000
vt 0.343750 1.000000
vt 0.343750 0.875000
vt 0.312500 1.000000
vt 0.312500 0.875000
vt 0.281250 1.000000
vt 0.281250 0.875000
vt 0.250000 1.000000
vt 0.250000 0.875000
vt 0.218750 1.000000
vt 0.218750 0.875000
vt 0.187500 1.000000
vt 0.187500 0.875000
vt 0.156250 1.000000
vt 0.156250 0.875000
vt 0.125000 1.000000
vt 0.125000 0.875000
vt 0.093750 1.000000
vt 0.093750 0.875000
vt 0.062500 1.000000
vt 0.062500 0.875000
vt 0.031250 1.000000
vt 0.031250 0.875000
vt 0.000000 1.000000
vt 0.000000 0.875000
vt 0.031250 0.500000
vt 0.031250 0.625000
vt 0.000000 0.625000
vt 0.000000 0.500000
vt 0.031250 0.750000
vt 0.000000 0.750000
vt 0.062500 0.500000
vt 0.062500 0.625000
vt 0.062500 0.750000
vt 0.093750 0.500000
vt 0.093750 0.625000
vt 0.093750 0.750000
vt 0.125000 0.500000
vt 0.125000 0.625000
vt 0.125000 0.750000
vt 0.156250 0.500000
vt 0.156250 0.625000
vt 0.156250 0.750000
vt 0.187500 0.500000
vt 0.187500 0.625000
vt 0.187500 0.750000
vt 0.218750 0.500000
vt 0.218750 0.625000
vt 0.218750 0.750000
vt 0.250000 0.500000
vt 0.250000 0.625000
vt 0.250000 0.750000
vt 0.281250 0.500000
vt 0.281250 0.625000
vt 0.281250 0.750000
vt 0.312500 0.500000
vt 0.312500 0.625000
vt 0.312500 0.750000
vt 0.343750 0.500000
vt 0.343750 0.625000
vt 0.343750 0.750000
vt 0.375000 0.500000
vt 0.375000 0.625000
vt 0.375000 0.750000
vt 0.406250 0.500000
vt 0.406250 0.625000
vt 0.406250 0.750000
vt 0.437500 0.500000
vt 0.437500 0.625000
vt 0.437500 0.750000
vt 0.468750 0.500000
vt 0.468750 0.625000
vt 0.468750 0.750000
vt 0.500000 0.500000
vt 0.500000 0.625000
vt 0.500000 0.750000
vt 0.531250 0.500000
vt 0.531250 0.625000
vt 0.531250 0.750000
vt 0.562500 0.500000
vt 0.562500 0.625000
vt 0.562500 0.750000
vt 0.593750 0.500000
vt 0.593750 0.625000
vt 0.593750 0.750000
vt 0.625000 0.500000
vt 0.625000 0.625000
vt 0.625000 0.750000
vt 0.656250 0.500000
vt 0.656250 0.625000
vt 0.656250 0.750000
vt 0.687500 0.500000
vt 0.687500 0.625000
vt 0.687500 0.750000
vt 0.718750 0.500000
vt 0.718750 0.625000
vt 0.718750 0.750000
vt 0.750000 0.500000
vt 0.750000 0.625000
vt 0.750000 0.750000
vt 0.781250 0.500000
vt 0.781250 0.625000
vt 0.781250 0.750000
vt 0.812500 0.500000
vt 0.812500 0.625000
vt 0.812500 0.750000
vt 0.843750 0.500000
vt 0.843750 0.625000
vt 0.843750 0.750000
vt 0.875000 0.500000
vt 0.875000 0.625000
vt 0.875000 0.750000
vt 0.906250 0.500000
vt 0.906250 0.625000
vt 0.906250 0.750000
vt 0.937500 0.500000
vt 0.937500 0.625000
vt 0.937500 0.750000
vt 0.968750 0.500000
vt 0.968750 0.625000
vt 0.968750 0.750000
vt 1.000000 0.500000
vt 1.000000 0.625000
vt 1.000000 0.750000
s 1
f 67/1/66 2/2/2 4/3/4 68/4/67
f 68/4/67 4/3/4 6/5/6 71/6/69
f 71/6/69 6/5/6 8/7/8 74/8/71
f 74/8/71 8/7/8 10/9/10 77/10/73
f 77/10/73 10/9/10 12/11/12 80/12/75
f 80/12/75 12/11/12 14/13/14 83/14/77
f 83/14/77 14/13/14 16/15/16 86/16/79
f 86/16/79 16/15/16 18/17/18 89/18/81
f 89/18/81 18/17/18 20/19/20 92/20/83
f 92/20/83 20/19/20 22/21/22 95/22/85
f 95/22/85 22/21/22 24/23/24 98/24/87
f 98/24/87 24/23/24 26/25/26 101/26/89
f 101/26/89 26/25/26 28/27/28 104/28/91
f 104/28/91 28/27/28 30/29/30 107/30/93
f 107/30/93 30/29/30 32/31/32 110/32/95
f 110/32/95 32/31/32 34/33/34 113/34/97
f 113/34/97 34/33/34 36/35/36 116/36/99
f 116/36/99 36/35/36 38/37/38 119/38/101
f 119/38/101 38/37/38 40/39/40 122/40/103
f 122/40/103 40/39/40 42/41/42 125/42/105
f 125/42/105 42/41/42 44/43/44 128/44/107
f 128/44/107 44/43/44 46/45/46 131/46/109
f 131/46/109 46/45/46 48/47/48 134/48/111
f 134/48/111 48/47/48 50/49/50 137/50/113
f 137/50/113 50/49/50 52/51/52 140/52/115
f 140/52/115 52/51/52 54/53/54 143/54/117
f 143/54/117 54/53/54 56/55/56 146/56/119
f 146/56/119 56/55/56 58/57/58 149/58/121
f 149/58/121 58/57/58 60/59/60 152/60/123
f 152/60/123 60/59/60 62/61/62 155/62/125
f 155/62/125 62/61/62 64/63/64 158/64/127
f 158/64/127 64/63/64 2/65/2 67/66/66
f 63/67/63 160/68/63 65/69/1 1/70/1
f 160/68/63 159/71/128 66/72/65 65/69/1
f 159/71/128 158/64/127 67/66/66 66/72/65
f 61/73/61 157/74/61 160/68/63 63/67/63
f 157/74/61 156/75/126 159/71/128 160/68/63
f 156/75/126 155/62/125 158/64/127 159/71/128
f 59/76/59 154/77/59 157/74/61 61/73/61
f 154/77/59 153/78/124 156/75/126 157/74/61
f 153/78/124 152/60/123 155/62/125 156/75/126
f 57/79/57 151/80/57 154/77/59 59/76/59
f 151/80/57 150/81/122 153/78/124 154/77/59
f 150/81/122 149/58/121 152/60/123 153/78/124
f 55/82/55 148/83/55 151/80/57 57/79/57
f 148/83/55 147/84/120 150/81/122 151/80/57
f 147/84/120 146/56/119 149/58/121 150/81/122
f 53/85/53 145/86/53 148/83/55 55/82/55
f 145/86/53 144/87/118 147/84/120 148/83/55
f 144/87/118 143/54/117 146/56/119 147/84/120
f 51/88/51 142/89/51 145/86/53 53/85/53
f 142/89/51 141/90/116 144/87/118 145/86/53
f 141/90/116 140/52/115 143/54/117 144/87/118
f 49/91/49 139/92/49 142/89/51 51/88/51
f 139/92/49 138/93/114 141/90/116 142/89/51
f 138/93/114 137/50/113 140/52/115 141/90/116
f 47/94/47 136/95/47 139/92/49 49/91/49
f 136/95/47 135/96/112 138/93/114 139/92/49
f 135/96/112 134/48/111 137/50/113 138/93/114
f 45/97/45 133/98/45 136/95/47 47/94/47
f 133/98/45 132/99/110 135/96/112 136/95/47
f 132/99/110 131/46/109 134/48/111 135/96/112
f 43/100/43 130/101/43 133/98/45 45/97/45
f 130/101/43 129/102/108 132/99/110 133/98/45
f 129/102/108 128/44/107 131/46/109 132/99/110
f 41/103/41 127/104/41 130/101/43 43/100/43
f 127/104/41 126/105/106 129/102/108 130/101/43
f 126/105/106 125/42/105 128/44/107 129/102/108
f 39/106/39 124/107/39 127/104/41 41/103/41
f 124/107/39 123/108/104 126/105/106 127/104/41
f 123/108/104 122/40/103 125/42/105 126/105/106
f 37/109/37 121/110/37 124/107/39 39/106/39
f 121/110/37 120/111/102 123/108/104 124/107/39
f 120/111/102 119/38/101 122/40/103 123/108/104
f 35/112/35 118/113/35 121/110/37 37/109/37
f 118/113/35 117/114/100 120/111/102 121/110/37
f 117/114/100 116/36/99 119/38/101 120/111/102
f 33/115/33 115/116/33 118/113/35 35/112/35
f 115/116/33 114/117/98 117/114/100 118/113/35
f 114/117/98 113/34/97 116/36/99 117/114/100
f 31/118/31 112/119/31 115/116/33 33/115/33
f 112/119/31 111/120/96 114/117/98 115/116/33
f 111/120/96 110/32/95 113/34/97 114/117/98
f 29/121/29 109/122/29 112/119/31 31/118/31
f 109/122/29 108/123/94 111/120/96 112/119/31
f 108/123/94 107/30/93 110/32/95 111/120/96
f 27/124/27 106/125/27 109/122/29 29/121/29
f 106/125/27 105/126/92 108/123/94 109/122/29
f 105/126/92 104/28/91 107/30/93 108/123/94
f 25/127/25 103/128/25 106/125/27 27/124/27
f 103/128/25 102/129/90 105/126/92 106/125/27
f 102/129/90 101/26/89 104/28/91 105/126/92
f 23/130/23 100/131/23 103/128/25 25/127/25
f 100/131/23 99/132/88 102/129/90 103/128/25
f 99/132/88 98/24/87 101/26/89 102/129/90
f 21/133/21 97/134/21 100/131/23 23/130/23
f 97/134/21 96/135/86 99/132/88 100/131/23
f 96/135/86 95/22/85 98/24/87 99/132/88
f 19/136/19 94/137/19 97/134/21 21/133/21
f 94/137/19 93/138/84 96/135/86 97/134/21
f 93/138/84 92/20/83 95/22/85 96/135/86
f 17/139/17 91/140/17 94/137/19 19/136/19
f 91/140/17 90/141/82 93/138/84 94/137/19
f 90/141/82 89/18/81 92/20/83 93/138/84
f 15/142/15 88/143/15 91/140/17 17/139/17
f 88/143/15 87/144/80 90/141/82 91/140/17
f 87/144/80 86/16/79 89/18/81 90/141/82
f 13/145/13 85/146/13 88/143/15 15/142/15
f 85/146/13 84/147/78 87/144/80 88/143/15
f 84/147/78 83/14/77 86/16/79 87/144/80
f 11/148/11 82/149/11 85/146/13 13/145/13
f 82/149/11 81/150/76 84/147/78 85/146/13
f 81/150/76 80/12/75 83/14/77 84/147/78
f 9/151/9 79/152/9 82/149/11 11/148/11
f 79/152/9 78/153/74 81/150/76 82/149/11
f 78/153/74 77/10/73 80/12/75 81/150/76
f 7/154/7 76/155/7 79/152/9 9/151/9
f 76/155/7 75/156/72 78/153/74 79/152/9
f 75/156/72 74/8/71 77/10/73 78/153/74
f 5/157/5 73/158/5 76/155/7 7/154/7
f 73/158/5 72/159/70 75/156/72 76/155/7
f 72/159/70 71/6/69 74/8/71 75/156/72
f 3/160/3 70/161/3 73/158/5 5/157/5
f 70/161/3 69/162/68 72/159/70 73/158/5
f 69/162/68 68/4/67 71/6/69 72/159/70
f 1/163/1 65/164/1 70/161/3 3/160/3
f 65/164/1 66/165/65 69/162/68 70/161/3
f 66/165/65 67/1/66 68/4/67 69/162/68
o Cylinder.001
v 0.000000 1.000000 -2.000000
v 0.000000 0.695095 0.000000
v 0.195090 0.980785 -2.000000
v 0.135606 0.681739 0.000000
v 0.382683 0.923880 -2.000000
v 0.266001 0.642184 0.000000
v 0.555570 0.831470 -2.000000
v 0.386174 0.577951 0.000000
v 0.707107 0.707107 -2.000000
v 0.491507 0.491507 0.000000
v 0.831470 0.555570 -2.000000
v 0.577951 0.386174 0.000000
v 0.923880 0.382683 -2.000000
v 0.642184 0.266001 0.000000
v 0.980785 0.195090 -2.000000
v 0.681739 0.135606 0.000000
v 1.000000 0.000000 -2.000000
v 0.695095 -0.000000 0.000000
v 0.980785 -0.195090 -2.000000
v 0.681739 -0.135606 0.000000
v 0.923880 -0.382683 -2.000000
v 0.642184 -0.266001 0.000000
v 0.831470 -0.555570 -2.000000
v 0.577951 -0.386174 0.000000
v 0.707107 -0.707107 -2.000000
v 0.491507 -0.491507 0.000000
v 0.555570 -0.831470 -2.000000
v 0.386174 -0.577951 0.000000
v 0.382683 -0.923879 -2.000000
v 0.266001 -0.642184 0.000000
v 0.195090 -0.980785 -2.000000
v 0.135606 -0.681739 0.000000
v 0.000000 -1.000000 -2.000000
v 0.000000 -0.695095 -0.000000
v -0.195090 -0.980785 -2.000000
v -0.135606 -0.681739 0.000000
v -0.382683 -0.923879 -2.000000
v -0.266001 -0.642184 0.000000
v -0.555570 -0.831470 -2.000000
v -0.386174 -0.577951 0.000000
v -0.707107 -0.707107 -2.000000
v -0.491507 -0.491507 0.000000
v -0.831470 -0.555570 -2.000000
v -0.577951 -0.386174 0.000000
v -0.923880 -0.382683 -2.000000
v -0.642184 -0.266001 0.000000
v -0.980785 -0.195090 -2.000000
v -0.681739 -0.135606 0.000000
v -1.000000 0.000000 -2.000000
v -0.695095 -0.000000 0.000000
v -0.980785 0.195090 -2.000000
v -0.681739 0.135606 0.000000
v -0.923880 0.382683 -2.000000
v -0.642184 0.266001 0.000000
v -0.831470 0.555570 -2.000000
v -0.577951 0.386174 0.000000
v -0.707107 0.707107 -2.000000
v -0.491507 0.491507 0.000000
v -0.555570 0.831470 -2.000000
v -0.386174 0.577951 0.000000
v -0.382683 0.923880 -2.000000
v -0.266001 0.642184 0.000000
v -0.195090 0.980785 -2.000000
v -0.135606 0.681739 0.000000
v 0.000000 1.000000 -1.600000
v 0.000000 1.000000 -1.200000
v 0.000000 1.000000 -0.800000
v 0.000000 0.912779 -0.400000
v 0.178074 0.895240 -0.400000
v 0.195090 0.980785 -0.800000
v 0.195090 0.980785 -1.200000
v 0.195090 0.980785 -1.600000
v 0.349305 0.843297 -0.400000
v 0.382683 0.923880 -0.800000
v 0.382683 0.923880 -1.200000
v 0.382683 0.923880 -1.600000
v 0.507113 0.758948 -0.400000
v 0.555570 0.831470 -0.800000
v 0.555570 0.831470 -1.200000
v 0.555570 0.831470 -1.600000
v 0.645432 0.645432 -0.400000
v 0.707107 0.707107 -0.800000
v 0.707107 0.707107 -1.200000
v 0.707107 0.707107 -1.600000
v 0.758948 0.507113 -0.400000
v 0.831470 0.555570 -0.800000
v 0.831470 0.555570 -1.200000
v 0.831470 0.555570 -1.600000
v 0.843297 0.349305 -0.400000
v 0.923880 0.382683 -0.800000
v 0.923880 0.382683 -1.200000
v 0.923880 0.382683 -1.600000
v 0.895240 0.178074 -0.400000
v 0.980785 0.195090 -0.800000
v 0.980785 0.195090 -1.200000
v 0.980785 0.195090 -1.600000
v 0.912779 -0.000000 -0.400000
v 1.000000 -0.000000 -0.800000
v 1.000000 0.000000 -1.200000
v 1.000000 0.000000 -1.600000
v 0.895240 -0.178074 -0.400000
v 0.980785 -0.195090 -0.800000
v 0.980785 -0.195090 -1.200000
v 0.980785 -0.195090 -1.600000
v 0.843297 -0.349305 -0.400000
v 0.923880 -0.382683 -0.800000
v 0.923880 -0.382683 -1.200000
v 0.923880 -0.382683 -1.600000
v 0.758948 -0.507113 -0.400000
v 0.831470 -0.555570 -0.800000
v 0.831470 -0.555570 -1.200000
v 0.831470 -0.555570 -1.600000
v 0.645432 -0.645432 -0.400000
v 0.707107 -0.707107 -0.800000
v 0.707107 -0.707107 -1.200000
v 0.707107 -0.707107 -1.600000
v 0.507113 -0.758948 -0.400000
v 0.555570 -0.831470 -0.800000
v 0.555570 -0.831470 -1.200000
v 0.555570 -0.831470 -1.600000
v 0.349305 -0.843297 -0.400000
v 0.382683 -0.923880 -0.800000
v 0.382683 -0.923880 -1.200000
v 0.382683 -0.923880 -1.600000
v 0.178074 -0.895240 -0.400000
v 0.195090 -0.980785 -0.800000
v 0.195090 -0.980785 -1.200000
v 0.195090 -0.980785 -1.600000
v 0.000000 -0.912778 -0.400000
v 0.000000 -1.000000 -0.800000
v 0.000000 -1.000000 -1.200000
v 0.000000 -1.000000 -1.600000
v -0.178074 -0.895240 -0.400000
v -0.195090 -0.980785 -0.800000
v -0.195090 -0.980785 -1.200000
v -0.195090 -0.980785 -1.600000
v -0.349305 -0.843297 -0.400000
v -0.382683 -0.923880 -0.800000
v -0.382683 -0.923880 -1.200000
v -0.382683 -0.923880 -1.600000
v -0.507113 -0.758948 -0.400000
v -0.555570 -0.831470 -0.800000
v -0.555570 -0.831470 -1.200000
v -0.555570 -0.831470 -1.600000
v -0.645432 -0.645432 -0.400000
v -0.707107 -0.707107 -0.800000
v -0.707107 -0.707107 -1.200000
v -0.707107 -0.707107 -1.600000
v -0.758948 -0.507113 -0.400000
v -0.831470 -0.555570 -0.800000
v -0.831470 -0.555570 -1.200000
v -0.831470 -0.555570 -1.600000
v -0.843297 -0.349305 -0.400000
v -0.923880 -0.382683 -0.800000
v -0.923880 -0.382683 -1.200000
v -0.923880 -0.382683 -1.600000
v -0.895240 -0.178074 -0.400000
v -0.980785 -0.195090 -0.800000
v -0.980785 -0.195090 -1.200000
v -0.980785 -0.195090 -1.600000
v -0.912779 -0.000000 -0.400000
v -1.000000 -0.000000 -0.800000
v -1.000000 0.000000 -1.200000
v -1.000000 0.000000 -1.600000
v -0.895240 0.178074 -0.400000
v -0.980785 0.195090 -0.800000
v -0.980785 0.195090 -1.200000
v -0.980785 0.195090 -1.600000
v -0.843297 0.349305 -0.400000
v -0.923880 0.382683 -0.800000
v -0.923880 0.382683 -1.200000
v -0.923880 0.382683 -1.600000
v -0.758948 0.507113 -0.400000
v -0.831470 0.555570 -0.800000
v -0.831470 0.555570 -1.200000
v -0.831470 0.555570 -1.600000
v -0.645432 0.645432 -0.400000
v -0.707107 0.707107 -0.800000
v -0.707107 0.707107 -1.200000
v -0.707107 0.707107 -1.600000
v -0.507113 0.758948 -0.400000
v -0.555570 0.831470 -0.800000
v -0.555570 0.831470 -1.200000
v -0.555570 0.831470 -1.600000
v -0.349305 0.843297 -0.400000
v -0.382683 0.923880 -0.800000
v -0.382683 0.923880 -1.200000
v -0.382683 0.923880 -1.600000
v -0.178074 0.895240 -0.400000
v -0.195090 0.980785 -0.800000
v -0.195090 0.980785 -1.200000
v -0.195090 0.980785 -1.600000
vn -0.0000 1.0000 -0.0000
vn -0.0000 0.8784 0.4780
vn 0.1951 0.9808 -0.0000
vn 0.1714 0.8615 0.4780
vn 0.3827 0.9239 -0.0000
vn 0.3361 0.8115 0.4780
vn 0.5556 0.8315 -0.0000
vn 0.4880 0.7303 0.4780
vn 0.7071 0.7071 -0.0000
vn 0.6211 0.6211 0.4780
vn 0.8315 0.5556 -0.0000
vn 0.7303 0.4880 0.4780
vn 0.9239 0.3827 -0.0000
vn 0.8115 0.3361 0.4780
vn 0.9808 0.1951 -0.0000
vn 0.8615 0.1714 0.4780
vn 1.0000 -0.0000 -0.0000
vn 0.8784 -0.0000 0.4780
vn 0.9808 -0.1951 -0.0000
vn 0.8615 -0.1714 0.4780
vn 0.9239 -0.3827 -0.0000
vn 0.8115 -0.3361 0.4780
vn 0.8315 -0.5556 -0.0000
vn 0.7303 -0.4880 0.4780
vn 0.7071 -0.7071 -0.0000
vn 0.6211 -0.6211 0.4780
vn 0.5556 -0.8315 -0.0000
vn 0.4880 -0.7303 0.4780
vn 0.3827 -0.9239 -0.0000
vn 0.3361 -0.8115 0.4780
vn 0.1951 -0.9808 -0.0000
vn 0.1714 -0.8615 0.4780
vn -0.0000 -1.0000 -0.0000
vn -0.0000 -0.8784 0.4780
vn -0.1951 -0.9808 -0.0000
vn -0.1714 -0.8615 0.4780
vn -0.3827 -0.9239 -0.0000
vn -0.3361 -0.8115 0.4780
vn -0.5556 -0.8315 -0.0000
vn -0.4880 -0.7303 0.4780
vn -0.7071 -0.7071 -0.0000
vn -0.6211 -0.6211 0.4780
vn -0.8315 -0.5556 -0.0000
vn -0.7303 -0.4880 0.4780
vn -0.9239 -0.3827 -0.0000
vn -0.8115 -0.3361 0.4780
vn -0.9808 -0.1951 -0.0000
vn -0.8615 -0.1714 0.4780
vn -1.0000 -0.0000 -0.0000
vn -0.8784 -0.0000 0.4780
vn -0.9808 0.1951 -0.0000
vn -0.8615 0.1714 0.4780
vn -0.9239 0.3827 -0.0000
vn -0.8115 0.3361 0.4780
vn -0.8315 0.5556 -0.0000
vn -0.7303 0.4880 0.4780
vn -0.7071 0.7071 -0.0000
vn -0.6211 0.6211 0.4780
vn -0.5556 0.8315 -0.0000
vn -0.4880 0.7303 0.4780
vn -0.3827 0.9239 -0.0000
vn -0.3361 0.8115 0.4780
vn -0.1951 0.9808 -0.0000
vn -0.1714 0.8615 0.4780
vn -0.0000 0.9943 0.1064
vn -0.0000 0.9382 0.3462
vn 0.1830 0.9201 0.3462
vn 0.1940 0.9752 0.1064
vn 0.3590 0.8668 0.3462
vn 0.3805 0.9186 0.1064
vn 0.5212 0.7801 0.3462
vn 0.5524 0.8267 0.1064
vn 0.6634 0.6634 0.3462
vn 0.7031 0.7031 0.1064
vn 0.7801 0.5212 0.3462
vn 0.8267 0.5524 0.1064
vn 0.8668 0.3590 0.3462
vn 0.9186 0.3805 0.1064
vn 0.9201 0.1830 0.3462
vn 0.9752 0.1940 0.1064
vn 0.9382 -0.0000 0.3462
vn 0.9943 -0.0000 0.1064
vn 0.9201 -0.1830 0.3462
vn 0.9752 -0.1940 0.1064
vn 0.8668 -0.3590 0.3462
vn 0.9186 -0.3805 0.1064
vn 0.7801 -0.5212 0.3462
vn 0.8267 -0.5524 0.1064
vn 0.6634 -0.6634 0.3462
vn 0.7031 -0.7031 0.1064
vn 0.5212 -0.7801 0.3462
vn 0.5524 -0.8267 0.1064
vn 0.3590 -0.8668 0.3462
vn 0.3805 -0.9186 0.1064
vn 0.1830 -0.9201 0.3462
vn 0.1940 -0.9752 0.1064
vn -0.0000 -0.9382 0.3462
vn -0.0000 -0.9943 0.1064
vn -0.1830 -0.9201 0.3462
vn -0.1940 -0.9752 0.1064
vn -0.3590 -0.8668 0.3462
vn -0.3805 -0.9186 0.1064
vn -0.5212 -0.7801 0.3462
vn -0.5524 -0.8267 0.1064
vn -0.6634 -0.6634 0.3462
vn -0.7031 -0.7031 0.1064
vn -0.7801 -0.5212 0.3462
vn -0.8267 -0.5524 0.1064
vn -0.8668 -0.3590 0.3462
vn -0.9186 -0.3805 0.1064
vn -0.9201 -0.1830 0.3462
vn -0.9752 -0.1940 0.1064
vn -0.9382 -0.0000 0.3462
vn -0.9943 -0.0000 0.1064
vn -0.9201 0.1830 0.3462
vn -0.9752 0.1940 0.1064
vn -0.8668 0.3590 0.3462
vn -0.9186 0.3805 0.1064
vn -0.7801 0.5212 0.3462
vn -0.8267 0.5524 0.1064
vn -0.6634 0.6634 0.3462
vn -0.7031 0.7031 0.1064
vn -0.5212 0.7801 0.3462
vn -0.5524 0.8267 0.1064
vn -0.3590 0.8668 0.3462
vn -0.3805 0.9186 0.1064
vn -0.1830 0.9201 0.3462
vn -0.1940 0.9752 0.1064
vt 1.000000 0.900000
vt 1.000000 1.000000
vt 0.968750 1.000000
vt 0.968750 0.900000
vt 0.937500 1.000000
vt 0.937500 0.900000
vt 0.906250 1.000000
vt 0.906250 0.900000
vt 0.875000 1.000000
vt 0.875000 0.900000
vt 0.843750 1.000000
vt 0.843750 0.900000
vt 0.812500 1.000000
vt 0.812500 0.900000
vt 0.781250 1.000000
vt 0.781250 0.900000
vt 0.750000 1.000000
vt 0.750000 0.900000
vt 0.718750 1.000000
vt 0.718750 0.900000
vt 0.687500 1.000000
vt 0.687500 0.900000
vt 0.656250 1.000000
vt 0.656250 0.900000
vt 0.625000 1.000000
vt 0.625000 0.900000
vt 0.593750 1.000000
vt 0.593750 0.900000
vt 0.562500 1.000000
vt 0.562500 0.900000
vt 0.531250 1.000000
vt 0.531250 0.900000
vt 0.500000 1.000000
vt 0.500000 0.900000
vt 0.468750 1.000000
vt 0.468750 0.900000
vt 0.437500 1.000000
vt 0.437500 0.900000
vt 0.406250 1.000000
vt 0.406250 0.900000
vt 0.375000 1.000000
vt 0.375000 0.900000
vt 0.343750 1.000000
vt 0.343750 0.900000
vt 0.312500 1.000000
vt 0.312500 0.900000
vt 0.281250 1.000000
vt 0.281250 0.900000
vt 0.250000 1.000000
vt 0.250000 0.900000
vt 0.218750 1.000000
vt 0.218750 0.900000
vt 0.187500 1.000000
vt 0.187500 0.900000
vt 0.156250 1.000000
vt 0.156250 0.900000
vt 0.125000 1.000000
vt 0.125000 0.900000
vt 0.093750 1.000000
vt 0.093750 0.900000
vt 0.062500 1.000000
vt 0.062500 0.900000
vt 0.031250 1.000000
vt 0.031250 0.900000
vt 0.000000 1.000000
vt 0.000000 0.900000
vt 0.031250 0.500000
vt 0.031250 0.600000
vt 0.000000 0.600000
vt 0.000000 0.500000
vt 0.031250 0.700000
vt 0.000000 0.700000
vt 0.031250 0.800000
vt 0.000000 0.800000
vt 0.062500 0.500000
vt 0.062500 0.600000
vt 0.062500 0.700000
vt 0.062500 0.800000
vt 0.093750 0.500000
vt 0.093750 0.600000
vt 0.093750 0.700000
vt 0.093750 0.800000
vt 0.125000 0.500000
vt 0.125000 0.600000
vt 0.125000 0.700000
vt 0.125000 0.800000
vt 0.156250 0.500000
vt 0.156250 0.600000
vt 0.156250 0.700000
vt 0.156250 0.800000
vt 0.187500 0.500000
vt 0.187500 0.600000
vt 0.187500 0.700000
vt 0.187500 0.800000
vt 0.218750 0.500000
vt 0.218750 0.600000
vt 0.218750 0.700000
vt 0.218750 0.800000
vt 0.250000 0.500000
vt 0.250000 0.600000
vt 0.250000 0.700000
vt 0.250000 0.800000
vt 0.281250 0.500000
vt 0.281250 0.600000
vt 0.281250 0.700000
vt 0.281250 0.800000
vt 0.312500 0.500000
vt 0.312500 0.600000
vt 0.312500 0.700000
vt 0.312500 0.800000
vt 0.343750 0.500000
vt 0.343750 0.600000
vt 0.343750 0.700000
vt 0.343750 0.800000
vt 0.375000 0.500000
vt 0.375000 0.600000
vt 0.375000 0.700000
vt 0.375000 0.800000
vt 0.406250 0.500000
vt 0.406250 0.600000
vt 0.406250 0.700000
vt 0.406250 0.800000
vt 0.437500 0.500000
vt 0.437500 0.600000
vt 0.437500 0.700000
vt 0.437500 0.800000
vt 0.468750 0.500000
vt 0.468750 0.600000
vt 0.468750 0.700000
vt 0.468750 0.800000
vt 0.500000 0.500000
vt 0.500000 0.600000
vt 0.500000 0.700000
vt 0.500000 0.800000
vt 0.531250 0.500000
vt 0.531250 0.600000
vt 0.531250 0.700000
vt 0.531250 0.800000
vt 0.562500 0.500000
vt 0.562500 0.600000
vt 0.562500 0.700000
vt 0.562500 0.800000
vt 0.593750 0.500000
vt 0.593750 0.600000
vt 0.593750 0.700000
vt 0.593750 0.800000
vt 0.625000 0.500000
vt 0.625000 0.600000
vt 0.625000 0.700000
vt 0.625000 0.800000
vt 0.656250 0.500000
vt 0.656250 0.600000
vt 0.656250 0.700000
vt 0.656250 0.800000
vt 0.687500 0.500000
vt 0.687500 0.600000
vt 0.687500 0.700000
vt 0.687500 0.800000
vt 0.718750 0.500000
vt 0.718750 0.600000
vt 0.718750 0.700000
vt 0.718750 0.800000
vt 0.750000 0.500000
vt 0.750000 0.600000
vt 0.750000 0.700000
vt 0.750000 0.800000
vt 0.781250 0.500000
vt 0.781250 0.600000
vt 0.781250 0.700000
vt 0.781250 0.800000
vt 0.812500 0.500000
vt 0.812500 0.600000
vt 0.812500 0.700000
vt 0.812500 0.800000
vt 0.843750 0.500000
vt 0.843750 0.600000
vt 0.843750 0.700000
vt 0.843750 0.800000
vt 0.875000 0.500000
vt 0.875000 0.600000
vt 0.875000 0.700000
vt 0.875000 0.800000
vt 0.906250 0.500000
vt 0.906250 0.600000
vt 0.906250 0.700000
vt 0.906250 0.800000
vt 0.937500 0.500000
vt 0.937500 0.600000
vt 0.937500 0.700000
vt 0.937500 0.800000
vt 0.968750 0.500000
vt 0.968750 0.600000
vt 0.968750 0.700000
vt 0.968750 0.800000
vt 1.000000 0.500000
vt 1.000000 0.600000
vt 1.000000 0.700000
vt 1.000000 0.800000
s 1
f 228/166/194 162/167/130 164/168/132 229/169/195
f 229/169/195 164/168/132 166/170/134 233/171/197
f 233/171/197 166/170/134 168/172/136 237/173/199
f 237/173/199 168/172/136 170/174/138 241/175/201
f 241/175/201 170/174/138 172/176/140 245/177/203
f 245/177/203 172/176/140 174/178/142 249/179/205
f 249/179/205 174/178/142 176/180/144 253/181/207
f 253/181/207 176/180/144 178/182/146 257/183/209
f 257/183/209 178/182/146 180/184/148 261/185/211
f 261/185/211 180/184/148 182/186/150 265/187/213
f 265/187/213 182/186/150 184/188/152 269/189/215
f 269/189/215 184/188/152 186/190/154 273/191/217
f 273/191/217 186/190/154 188/192/156 277/193/219
f 277/193/219 188/192/156 190/194/158 281/195/221
f 281/195/221 190/194/158 192/196/160 285/197/223
f 285/197/223 192/196/160 194/198/162 289/199/225
f 289/199/225 194/198/162 196/200/164 293/201/227
f 293/201/227 196/200/164 198/202/166 297/203/229
f 297/203/229 198/202/166 200/204/168 301/205/231
f 301/205/231 200/204/168 202/206/170 305/207/233
f 305/207/233 202/206/170 204/208/172 309/209/235
f 309/209/235 204/208/172 206/210/174 313/211/237
f 313/211/237 206/210/174 208/212/176 317/213/239
f 317/213/239 208/212/176 210/214/178 321/215/241
f 321/215/241 210/214/178 212/216/180 325/217/243
f 325/217/243 212/216/180 214/218/182 329/219/245
f 329/219/245 214/218/182 216/220/184 333/221/247
f 333/221/247 216/220/184 218/222/186 337/223/249
f 337/223/249 218/222/186 220/224/188 341/225/251
f 341/225/251 220/224/188 222/226/190 345/227/253
f 345/227/253 222/226/190 224/228/192 349/229/255
f 349/229/255 224/228/192 162/230/130 228/231/194
f 223/232/191 352/233/191 225/234/129 161/235/129
f 352/233/191 351/236/191 226/237/129 225/234/129
f 351/236/191 350/238/256 227/239/193 226/237/129
f 350/238/256 349/229/255 228/231/194 227/239/193
f 221/240/189 348/241/189 352/233/191 223/232/191
f 348/241/189 347/242/189 351/236/191 352/233/191
f 347/242/189 346/243/254 350/238/256 351/236/191
f 346/243/254 345/227/253 349/229/255 350/238/256
f 219/244/187 344/245/187 348/241/189 221/240/189
f 344/245/187 343/246/187 347/242/189 348/241/189
f 343/246/187 342/247/252 346/243/254 347/242/189
f 342/247/252 341/225/251 345/227/253 346/243/254
f 217/248/185 340/249/185 344/245/187 219/244/187
f 340/249/185 339/250/185 343/246/187 344/245/187
f 339/250/185 338/251/250 342/247/252 343/246/187
f 338/251/250 337/223/249 341/225/251 342/247/252
f 215/252/183 336/253/183 340/249/185 217/248/185
f 336/253/183 335/254/183 339/250/185 340/249/185
f 335/254/183 334/255/248 338/251/250 339/250/185
f 334/255/248 333/221/247 337/223/249 338/251/250
f 213/256/181 332/257/181 336/253/183 215/252/183
f 332/257/181 331/258/181 335/254/183 336/253/183
f 331/258/181 330/259/246 334/255/248 335/254/183
f 330/259/246 329/219/245 333/221/247 334/255/248
f 211/260/179 328/261/179 332/257/181 213/256/181
f 328/261/179 327/262/179 331/258/181 332/257/181
f 327/262/179 326/263/244 330/259/246 331/258/181
f 326/263/244 325/217/243 329/219/245 330/259/246
f 209/264/177 324/265/177 328/261/179 211/260/179
f 324/265/177 323/266/177 327/262/179 328/261/179
f 323/266/177 322/267/242 326/263/244 327/262/179
f 322/267/242 321/215/241 325/217/243 326/263/244
f 207/268/175 320/269/175 324/265/177 209/264/177
f 320/269/175 319/270/175 323/266/177 324/265/177
f 319/270/175 318/271/240 322/267/242 323/266/177
f 318/271/240 317/213/239 321/215/241 322/267/242
f 205/272/173 316/273/173 320/269/175 207/268/175
f 316/273/173 315/274/173 319/270/175 320/269/175
f 315/274/173 314/275/238 318/271/240 319/270/175
f 314/275/238 313/211/237 317/213/239 318/271/240
f 203/276/171 312/277/171 316/273/173 205/272/173
f 312/277/171 311/278/171 315/274/173 316/273/173
f 311/278/171 310/279/236 314/275/238 315/274/173
f 310/279/236 309/209/235 313/211/237 314/275/238
f 201/280/169 308/281/169 312/277/171 203/276/171
f 308/281/169 307/282/169 311/278/171 312/277/171
f 307/282/169 306/283/234 310/279/236 311/278/171
f 306/283/234 305/207/233 309/209/235 310/279/236
f 199/284/167 304/285/167 308/281/169 201/280/169
f 304/285/167 303/286/167 307/282/169 308/281/169
f 303/286/167 302/287/232 306/283/234 307/282/169
f 302/287/232 301/205/231 305/207/233 306/283/234
f 197/288/165 300/289/165 304/285/167 199/284/167
f 300/289/165 299/290/165 303/286/167 304/285/167
f 299/290/165 298/291/230 302/287/232 303/286/167
f 298/291/230 297/203/229 301/205/231 302/287/232
f 195/292/163 296/293/163 300/289/165 197/288/165
f 296/293/163 295/294/163 299/290/165 300/289/165
f 295/294/163 294/295/228 298/291/230 299/290/165
f 294/295/228 293/201/227 297/203/229 298/291/230
f 193/296/161 292/297/161 296/293/163 195/292/163
f 292/297/161 291/298/161 295/294/163 296/293/163
f 291/298/161 290/299/226 294/295/228 295/294/163
f 290/299/226 289/199/225 293/201/227 294/295/228
f 191/300/159 288/301/159 292/297/161 193/296/161
f 288/301/159 287/302/159 291/298/161 292/297/161
f 287/302/159 286/303/224 290/299/226 291/298/161
f 286/303/224 285/197/223 289/199/225 290/299/226
f 189/304/157 284/305/157 288/301/159 191/300/159
f 284/305/157 283/306/157 287/302/159 288/301/159
f 283/306/157 282/307/222 286/303/224 287/302/159
f 282/307/222 281/195/221 285/197/223 286/303/224
f 187/308/155 280/309/155 284/305/157 189/304/157
f 280/309/155 279/310/155 283/306/157 284/305/157
f 279/310/155 278/311/220 282/307/222 283/306/157
f 278/311/220 277/193/219 281/195/221 282/307/222
f 185/312/153 276/313/153 280/309/155 187/308/155
f 276/313/153 275/314/153 279/310/155 280/309/155
f 275/314/153 274/315/218 278/311/220 279/310/155
f 274/315/218 273/191/217 277/193/219 278/311/220
f 183/316/151 272/317/151 276/313/153 185/312/153
f 272/317/151 271/318/151 275/314/153 276/313/153
f 271/318/151 270/319/216 274/315/218 275/314/153
f 270/319/216 269/189/215 273/191/217 274/315/218
f 181/320/149 268/321/149 272/317/151 183/316/151
f 268/321/149 267/322/149 271/318/151 272/317/151
f 267/322/149 266/323/214 270/319/216 271/318/151
f 266/323/214 265/187/213 269/189/215 270/319/216
f 179/324/147 264/325/147 268/321/149 181/320/149
f 264/325/147 263/326/147 267/322/149 268/321/149
f 263/326/147 262/327/212 266/323/214 267/322/149
f 262/327/212 261/185/211 265/187/213 266/323/214
f 177/328/145 260/329/145 264/325/147 179/324/147
f 260/329/145 259/330/145 263/326/147 264/325/147
f 259/330/145 258/331/210 262/327/212 263/326/147
f 258/331/210 257/183/209 261/185/211 262/327/212
f 175/332/143 256/333/143 260/329/145 177/328/145
f 256/333/143 255/334/143 259/330/145 260/329/145
f 255/334/143 254/335/208 258/331/210 259/330/145
f 254/335/208 253/181/207 257/183/209 258/331/210
f 173/336/141 252/337/141 256/333/143 175/332/143
f 252/337/141 251/338/141 255/334/143 256/333/143
f 251/338/141 250/339/206 254/335/208 255/334/143
f 250/339/206 249/179/205 253/181/207 254/335/208
f 171/340/139 248/341/139 252/337/141 173/336/141
f 248/341/139 247/342/139 251/338/141 252/337/141
f 247/342/139 246/343/204 250/339/206 251/338/141
f 246/343/204 245/177/203 249/179/205 250/339/206
f 169/344/137 244/345/137 248/341/139 171/340/139
f 244/345/137 243/346/137 247/342/139 248/341/139
f 243/346/137 242/347/202 246/343/204 247/342/139
f 242/347/202 241/175/201 245/177/203 246/343/204
f 167/348/135 240/349/135 244/345/137 169/344/137
f 240/349/135 239/350/135 243/346/137 244/345/137
f 239/350/135 238/351/200 242/347/202 243/346/137
f 238/351/200 237/173/199 241/175/201 242/347/202
f 165/352/133 236/353/133 240/349/135 167/348/135
f 236/353/133 235/354/133 239/350/135 240/349/135
f 235/354/133 234/355/198 238/351/200 239/350/135
f 234/355/198 233/171/197 237/173/199 238/351/200
f 163/356/131 232/357/131 236/353/133 165/352/133
f 232/357/131 231/358/131 235/354/133 236/353/133
f 231/358/131 230/359/196 234/355/198 235/354/133
f 230/359/196 229/169/195 233/171/197 234/355/198
f 161/360/129 225/361/129 232/357/131 163/356/131
f 225/361/129 226/362/129 231/358/131 232/357/131
f 226/362/129 227/363/193 230/359/196 231/358/131
f 227/363/193 228/166/194 229/169/195 230/359/196
