# Blender 4.4.3
# www.blender.org
mtllib Untitled.mtl
o Cylinder
v -0.161109 0.061132 -0.777755
v 1.218541 5.570354 2.443917
v 0.071259 0.059407 -0.796194
v 0.555617 5.570354 2.591490
v 0.299871 0.058027 -0.751033
v -0.122913 5.570354 2.562457
v 0.506938 0.057105 -0.645435
v -0.770809 5.570354 2.358797
v 0.676635 0.056630 -0.487898
v -1.343916 5.570354 1.994388
v 0.795497 0.057196 -0.290496
v -1.803180 5.570354 1.494065
v 0.855655 0.058455 -0.071252
v -2.117301 5.570354 0.891924
v 0.855969 0.060296 0.154207
v -2.264874 5.570354 0.229001
v 0.799038 0.062858 0.368714
v -2.235841 5.570354 -0.449529
v 0.691064 0.065819 0.560004
v -2.032180 5.570354 -1.097425
v 0.540837 0.068791 0.716842
v -1.667772 5.570354 -1.670532
v 0.358753 0.071465 0.830810
v -1.167449 5.570354 -2.129796
v 0.156119 0.073582 0.896181
v -0.565308 5.570354 -2.443917
v -0.055355 0.075093 0.909447
v 0.097615 5.570354 -2.591490
v -0.263242 0.076667 0.868488
v 0.776145 5.570354 -2.562457
v -0.454868 0.077662 0.775969
v 1.424041 5.570354 -2.358796
v -0.618143 0.077827 0.637085
v 1.997148 5.570354 -1.994388
v -0.740997 0.077170 0.462275
v 2.456412 5.570354 -1.494065
v -0.816748 0.075750 0.259091
v 2.770533 5.570354 -0.891925
v -0.838806 0.073617 0.039408
v 2.918106 5.570354 -0.229001
v -0.803225 0.071083 -0.181747
v 2.889073 5.570354 0.449529
v -0.711258 0.068386 -0.386636
v 2.685413 5.570354 1.097425
v -0.566987 0.065785 -0.563330
v 2.321004 5.570354 1.670532
v -0.379299 0.063297 -0.697632
v 1.820681 5.570354 2.129796
v -0.221203 0.556765 -0.200083
v -0.392486 0.913132 -0.056606
v -0.460667 1.293633 0.128116
v -0.413545 1.727843 0.250376
v -0.389068 2.155167 0.276987
v -0.527168 2.582066 0.450298
v -0.572720 3.008965 0.930961
v -0.384928 3.435863 1.395934
v -0.060636 3.862761 1.640531
v 0.259448 4.270137 1.736505
v 0.553675 4.644509 1.873861
v 0.924682 5.055356 2.125661
v 0.349465 5.055356 2.198727
v 0.059090 4.644509 1.840834
v -0.167745 4.270137 1.620710
v -0.410424 3.862761 1.452891
v -0.648649 3.435863 1.137511
v -0.716777 3.008964 0.620779
v -0.535538 2.582066 0.147495
v -0.308253 2.155167 0.020810
v -0.295650 1.728178 0.052404
v -0.334137 1.295952 -0.003347
v -0.271959 0.913705 -0.132037
v -0.117862 0.556765 -0.229809
v -0.224780 5.055356 2.119550
v -0.408686 4.644509 1.677347
v -0.548938 4.270137 1.391006
v -0.702363 3.862761 1.171997
v -0.836175 3.435863 0.809069
v -0.766851 3.008964 0.281332
v -0.455376 2.582066 -0.139686
v -0.154625 2.155167 -0.191645
v -0.124203 1.728167 -0.093724
v -0.176686 1.297650 -0.090657
v -0.136667 0.914270 -0.169884
v -0.010606 0.556765 -0.230532
v -0.758291 5.055356 1.893816
v -0.815071 4.644509 1.395535
v -0.850290 4.270137 1.065673
v -0.908367 3.862761 0.814689
v -0.924363 3.435863 0.435595
v -0.716280 3.008964 -0.056503
v -0.301044 2.582066 -0.383413
v 0.050810 2.155167 -0.338942
v 0.081459 1.727811 -0.171292
v -0.004184 1.297248 -0.121366
v 0.001293 0.914385 -0.165728
v 0.089896 0.556765 -0.201201
v -1.214310 5.055356 1.537471
v -1.130449 4.644509 1.016767
v -1.050088 4.270137 0.666943
v -1.004650 3.862761 0.408758
v -0.899819 3.435863 0.050252
v -0.569952 3.008964 -0.360681
v -0.089995 2.582066 -0.566200
v 0.279652 2.155167 -0.415255
v 0.295652 1.727604 -0.172553
v 0.163607 1.295000 -0.092270
v 0.128278 0.914064 -0.119565
v 0.177401 0.556765 -0.144946
v -1.561685 5.055356 1.075493
v -1.332662 4.644509 0.569694
v -1.129118 4.270137 0.229684
v -0.978880 3.862761 -0.008462
v -0.761859 3.435863 -0.309574
v -0.344365 3.008964 -0.603335
v 0.154100 2.582066 -0.679783
v 0.507861 2.155167 -0.431568
v 0.491504 1.727878 -0.112125
v 0.307569 1.293210 -0.007500
v 0.230709 0.913552 -0.035926
v 0.244535 0.556765 -0.066458
v -1.777035 5.055356 0.539996
v -1.408722 4.644509 0.087617
v -1.082544 4.270137 -0.207446
v -0.830676 3.862761 -0.398206
v -0.524474 3.435863 -0.605900
v -0.065577 3.008964 -0.765337
v 0.412186 2.582066 -0.726128
v 0.725143 2.155167 -0.401764
v 0.665932 1.728263 -0.020361
v 0.423233 1.293318 0.111194
v 0.301579 0.913472 0.074640
v 0.285686 0.556765 0.027173
v -1.846247 5.055356 -0.032118
v -1.355567 4.644509 -0.394488
v -0.919175 4.270137 -0.608623
v -0.574461 3.862761 -0.723761
v -0.213255 3.435863 -0.813710
v 0.235286 3.008964 -0.840627
v 0.665336 2.582066 -0.711476
v 0.926634 2.155167 -0.332983
v 0.819605 1.728269 0.095334
v 0.519611 1.295983 0.245602
v 0.348352 0.913259 0.196339
v 0.301805 0.556765 0.126312
v -1.765300 5.055356 -0.601793
v -1.179795 4.644509 -0.842961
v -0.658631 4.270137 -0.944278
v -0.247289 3.862761 -0.950107
v 0.130306 3.435863 -0.916274
v 0.537562 3.008964 -0.835498
v 0.904851 2.582066 -0.642675
v 1.107513 2.155167 -0.227242
v 0.947656 1.728269 0.232156
v 0.592862 1.301177 0.393359
v 0.372350 0.913950 0.322885
v 0.296099 0.556765 0.225077
v -1.540347 5.055356 -1.130491
v -0.896463 4.644509 -1.228052
v -0.324859 4.270137 -1.195930
v 0.115110 3.862761 -1.073384
v 0.474064 3.435863 -0.921895
v 0.817811 3.008964 -0.761360
v 1.120831 2.582066 -0.525222
v 1.260595 2.155167 -0.088185
v 1.043997 1.728269 0.387465
v 0.638821 1.307606 0.549892
v 0.371947 0.915624 0.449937
v 0.268805 0.556765 0.318443
v -1.187126 5.055356 -1.582756
v -0.527204 4.644509 -1.525829
v 0.054738 4.270137 -1.351669
v 0.485988 3.862761 -1.100407
v 0.796872 3.435863 -0.845474
v 1.066978 3.008964 -0.630361
v 1.301600 2.582066 -0.363410
v 1.377549 2.155167 0.082190
v 1.101371 1.728269 0.558481
v 0.649690 1.313949 0.710801
v 0.343912 0.917837 0.573020
v 0.220947 0.556765 0.401341
v -0.729774 5.055356 -1.928461
v -0.098036 4.644509 -1.719231
v 0.452944 4.270137 -1.407842
v 0.835814 3.862761 -1.041792
v 1.077588 3.435863 -0.708244
v 1.277675 3.008964 -0.451444
v 1.440738 2.582066 -0.165914
v 1.448083 2.155167 0.280926
v 1.116065 1.728269 0.736037
v 0.627819 1.320400 0.866754
v 0.289624 0.919977 0.684954
v 0.155281 0.556765 0.469169
v -0.199174 5.055356 -2.144682
v 0.362737 4.644509 -1.798326
v 0.845005 4.270137 -1.367236
v 1.149143 3.862761 -0.914519
v 1.316359 3.435863 -0.520177
v 1.441952 3.008964 -0.233887
v 1.530744 2.582066 0.059719
v 1.469791 2.155167 0.488948
v 1.085493 1.728269 0.911472
v 0.562368 1.324319 1.009838
v 0.209874 0.922330 0.779975
v 0.073175 0.556765 0.518495
v 0.369092 5.055356 -2.217095
v 0.826244 4.644509 -1.760022
v 1.204600 4.270137 -1.240493
v 1.421872 3.862761 -0.726496
v 1.506346 3.435863 -0.290071
v 1.552763 3.008964 0.013407
v 1.564169 2.582066 0.304914
v 1.437939 2.155167 0.700595
v 1.003792 1.728269 1.078341
v 0.467237 1.327697 1.129838
v 0.109066 0.924710 0.851908
v -0.018792 0.556765 0.545604
v 0.936990 5.055356 -2.140829
v 1.264289 4.644509 -1.607560
v 1.523225 4.270137 -1.032958
v 1.643795 3.862761 -0.485819
v 1.640115 3.435863 -0.027867
v 1.603251 3.008964 0.281118
v 1.534159 2.582066 0.558139
v 1.346361 2.155167 0.908042
v 0.885896 1.728269 1.217466
v 0.333718 1.328781 1.217932
v -0.008689 0.925622 0.892504
v -0.116415 0.556765 0.549427
v 1.466459 5.055356 -1.920788
v 1.650268 4.644509 -1.350095
v 1.784086 4.270137 -0.752712
v 1.804741 3.862761 -0.200368
v 1.710436 3.435863 0.258385
v 1.586833 3.008964 0.558177
v 1.440294 2.582066 0.798499
v 1.204662 2.155167 1.085196
v 0.721075 1.728269 1.326802
v 0.184986 1.329036 1.267540
v -0.134778 0.925805 0.899251
v -0.212834 0.556765 0.528014
v 1.921823 5.055356 -1.571395
v 1.960019 4.644509 -1.002459
v 1.969810 4.270137 -0.413687
v 1.892707 3.862761 0.120520
v 1.709383 3.435863 0.558631
v 1.498303 3.008964 0.830481
v 1.286651 2.582066 1.007385
v 1.016253 2.155167 1.224704
v 0.536182 1.728269 1.390110
v 0.015676 1.327543 1.271288
v -0.261061 0.925685 0.872217
v -0.300272 0.556765 0.483307
v 2.272108 5.055356 -1.115764
v 2.172868 4.644509 -0.584956
v 2.066219 4.270137 -0.040595
v 1.898563 3.862761 0.463343
v 1.630644 3.435863 0.859270
v 1.342473 3.008964 1.074092
v 1.075829 2.582066 1.177021
v 0.785133 2.155167 1.316545
v 0.326787 1.728269 1.404191
v -0.146695 1.324528 1.229825
v -0.377570 0.924217 0.808931
v -0.374461 0.556765 0.415625
v 2.493152 5.055356 -0.584307
v 2.272967 4.644509 -0.122992
v 2.066550 4.270137 0.351884
v 1.814247 3.862761 0.809478
v 1.470519 3.435863 1.142031
v 1.131161 3.008964 1.270021
v 0.818176 2.582066 1.290351
v 0.541933 2.155167 1.344069
v 0.118762 1.728269 1.363430
v -0.304318 1.320371 1.140220
v -0.474052 0.921911 0.714411
v -0.428017 0.556765 0.331742
v 2.569316 5.055356 -0.012847
v 2.250825 4.644509 0.353831
v 1.965679 4.270137 0.740438
v 1.649465 3.862761 1.120461
v 1.250707 3.435863 1.371805
v 0.864825 3.008964 1.411254
v 0.536174 2.582066 1.331500
v 0.291313 2.155167 1.306371
v -0.078694 1.728269 1.267842
v -0.430841 1.313931 1.012090
v -0.544535 0.919531 0.594718
v -0.458449 0.556765 0.233336
v 2.494716 5.055356 0.559739
v 2.104755 4.644509 0.813268
v 1.766029 4.270137 1.096957
v 1.410792 3.862761 1.383479
v 0.973359 3.435863 1.543641
v 0.557682 3.008964 1.481340
v 0.254106 2.582066 1.294834
v 0.048543 2.155167 1.199845
v -0.252277 1.728269 1.119632
v -0.528305 1.306920 0.848034
v -0.582766 0.917262 0.459112
v -0.461478 0.556765 0.130772
v 2.273805 5.055356 1.094132
v 1.841867 4.644509 1.222652
v 1.477348 4.270137 1.395553
v 1.099500 3.862761 1.585621
v 0.645452 3.435863 1.643516
v 0.230775 3.008964 1.467417
v -0.017276 2.582066 1.179995
v -0.153434 2.155167 1.030648
v -0.378709 1.728269 0.931474
v -0.579318 1.300611 0.668376
v -0.587163 0.915412 0.316641
v -0.436920 0.556765 0.027416
v 1.921236 5.055356 1.553349
v 1.478299 4.644509 1.551565
v 1.113606 4.270137 1.614424
v 0.733539 3.862761 1.705911
v 0.287433 3.435863 1.655441
v -0.076083 3.008964 1.367428
v -0.252749 2.582066 0.990470
v -0.303457 2.155167 0.808548
v -0.456571 1.727954 0.708733
v -0.587573 1.295707 0.476423
v -0.555417 0.914020 0.176921
v -0.385632 0.556765 -0.066265
v 1.460976 5.055356 1.905398
v 1.038525 4.644509 1.774599
v 0.697807 4.270137 1.732759
v 0.336731 3.862761 1.727440
v -0.072629 3.435863 1.569840
v -0.351302 3.008964 1.185847
v -0.429648 2.582066 0.740303
v -0.386226 2.155167 0.549116
v -0.467686 1.727561 0.476566
v -0.546205 1.293305 0.294619
v -0.489222 0.913254 0.049280
v -0.312632 0.556765 -0.144184
v -0.037753 0.367150 -0.395494
v 0.099120 0.366727 -0.381707
v 0.225305 0.366518 -0.330243
v 0.330274 0.366666 -0.245205
v 0.406784 0.366881 -0.134919
v 0.449705 0.367121 -0.009544
v 0.458800 0.367436 0.120605
v 0.436624 0.367840 0.246990
v 0.385897 0.368261 0.363030
v 0.310135 0.368643 0.462411
v 0.213166 0.368965 0.539832
v 0.100092 0.369194 0.590928
v -0.022268 0.369339 0.612093
v -0.147054 0.369403 0.601741
v -0.265359 0.369373 0.560734
v -0.370398 0.369238 0.489734
v -0.453716 0.369311 0.392672
v -0.509274 0.369321 0.276639
v -0.533194 0.369241 0.147608
v -0.522670 0.369047 0.015649
v -0.477634 0.368762 -0.111352
v -0.400665 0.368419 -0.224100
v -0.297390 0.368016 -0.312587
v -0.173408 0.367582 -0.371594
vn -0.1374 0.7879 -0.6004
vn 0.2581 -0.6053 0.7530
vn 0.0270 0.7957 -0.6051
vn 0.0536 -0.6144 0.7872
vn 0.1869 0.8012 -0.5684
vn -0.1508 -0.6227 0.7678
vn 0.3323 0.8045 -0.4923
vn -0.3417 -0.6299 0.6975
vn 0.4526 0.8054 -0.3827
vn -0.5074 -0.6355 0.5820
vn 0.5407 0.8038 -0.2482
vn -0.6379 -0.6392 0.4295
vn 0.5928 0.7992 -0.0993
vn -0.7258 -0.6409 0.2500
vn 0.6084 0.7918 0.0543
vn -0.7661 -0.6404 0.0544
vn 0.5888 0.7814 0.2068
vn -0.7563 -0.6378 -0.1453
vn 0.5337 0.7683 0.3533
vn -0.6967 -0.6332 -0.3370
vn 0.4423 0.7534 0.4867
vn -0.5902 -0.6268 -0.5086
vn 0.3157 0.7380 0.5964
vn -0.4426 -0.6190 -0.6488
vn 0.1595 0.7236 0.6715
vn -0.2625 -0.6102 -0.7475
vn -0.0166 0.7112 0.7027
vn -0.0610 -0.6009 -0.7970
vn -0.1984 0.7012 0.6848
vn 0.1484 -0.5919 -0.7922
vn -0.3717 0.6946 0.6159
vn 0.3510 -0.5838 -0.7321
vn -0.5200 0.6932 0.4990
vn 0.5319 -0.5772 -0.6196
vn -0.6281 0.6978 0.3444
vn 0.6771 -0.5727 -0.4622
vn -0.6870 0.7073 0.1666
vn 0.7752 -0.5707 -0.2709
vn -0.6931 0.7206 -0.0181
vn 0.8185 -0.5714 -0.0601
vn -0.6487 0.7360 -0.1935
vn 0.8037 -0.5747 0.1543
vn -0.5622 0.7511 -0.3460
vn 0.7325 -0.5802 0.3561
vn -0.4420 0.7651 -0.4683
vn 0.6108 -0.5876 0.5307
vn -0.2970 0.7775 -0.5544
vn 0.4485 -0.5962 0.6659
vn -0.4178 0.3677 -0.8308
vn -0.6472 0.1283 -0.7514
vn -0.8079 0.2042 -0.5528
vn -0.9228 0.1520 -0.3541
vn -0.9822 -0.1321 -0.1333
vn -0.9028 -0.3950 0.1700
vn -0.7580 -0.4312 0.4895
vn -0.5802 -0.2716 0.7678
vn -0.3503 -0.0961 0.9317
vn -0.1264 -0.1939 0.9728
vn 0.0647 -0.4784 0.8757
vn 0.1985 -0.6042 0.7717
vn -0.0100 -0.6187 0.7856
vn -0.1687 -0.5041 0.8470
vn -0.3836 -0.2209 0.8967
vn -0.5883 -0.1093 0.8012
vn -0.7664 -0.2697 0.5830
vn -0.8653 -0.4290 0.2592
vn -0.8958 -0.4331 -0.0998
vn -0.8714 -0.2451 -0.4250
vn -0.7761 0.0482 -0.6288
vn -0.6159 0.1790 -0.7672
vn -0.4126 0.1634 -0.8961
vn -0.1764 0.4146 -0.8927
vn -0.2117 -0.6336 0.7441
vn -0.3807 -0.5364 0.7533
vn -0.6081 -0.2656 0.7481
vn -0.7827 -0.1358 0.6074
vn -0.8984 -0.2681 0.3478
vn -0.9082 -0.4184 0.0020
vn -0.8147 -0.4612 -0.3516
vn -0.6669 -0.3573 -0.6539
vn -0.5257 -0.0889 -0.8460
vn -0.3505 0.1167 -0.9293
vn -0.1332 0.1695 -0.9765
vn 0.0779 0.4443 -0.8925
vn -0.3926 -0.6479 0.6527
vn -0.5528 -0.5725 0.6055
vn -0.7775 -0.3223 0.5400
vn -0.9165 -0.1730 0.3607
vn -0.9608 -0.2664 0.0767
vn -0.8784 -0.3993 -0.2628
vn -0.6722 -0.4758 -0.5673
vn -0.4119 -0.4555 -0.7892
vn -0.2027 -0.2436 -0.9484
vn -0.0225 0.0182 -0.9996
vn 0.1754 0.1446 -0.9738
vn 0.3296 0.4543 -0.8276
vn -0.5412 -0.6609 0.5199
vn -0.6720 -0.6094 0.4207
vn -0.8749 -0.3855 0.2930
vn -0.9724 -0.2186 0.0813
vn -0.9415 -0.2657 -0.2074
vn -0.7733 -0.3710 -0.5142
vn -0.4867 -0.4774 -0.7316
vn -0.1652 -0.5320 -0.8305
vn 0.1084 -0.3910 -0.9140
vn 0.3174 -0.1091 -0.9420
vn 0.4819 0.0877 -0.8718
vn 0.5610 0.4449 -0.6981
vn -0.6495 -0.6717 0.3564
vn -0.7333 -0.6441 0.2177
vn -0.8927 -0.4494 0.0338
vn -0.9411 -0.2696 -0.2043
vn -0.8372 -0.2656 -0.4781
vn -0.5996 -0.3353 -0.7267
vn -0.2801 -0.4669 -0.8387
vn 0.0324 -0.5851 -0.8103
vn 0.3173 -0.5097 -0.7997
vn 0.5736 -0.2460 -0.7813
vn 0.7332 0.0025 -0.6800
vn 0.7520 0.4168 -0.5107
vn -0.7123 -0.6801 0.1736
vn -0.7382 -0.6744 0.0145
vn -0.8346 -0.5092 -0.2100
vn -0.8239 -0.3228 -0.4658
vn -0.6562 -0.2664 -0.7060
vn -0.3765 -0.2949 -0.8782
vn -0.0688 -0.4450 -0.8929
vn 0.1876 -0.6161 -0.7650
vn 0.4305 -0.5987 -0.6754
vn 0.6988 -0.3720 -0.6110
vn 0.8759 -0.1020 -0.4715
vn 0.8793 0.3693 -0.3007
vn -0.7278 -0.6856 -0.0168
vn -0.6934 -0.6992 -0.1743
vn -0.7151 -0.5621 -0.4154
vn -0.6372 -0.3757 -0.6729
vn -0.4204 -0.2683 -0.8668
vn -0.1292 -0.2511 -0.9593
vn 0.1398 -0.4121 -0.9003
vn 0.3279 -0.6274 -0.7063
vn 0.5071 -0.6614 -0.5527
vn 0.7489 -0.4856 -0.4508
vn 0.9327 -0.2192 -0.2863
vn 0.9473 0.3048 -0.0983
vn -0.6965 -0.6881 -0.2036
vn -0.6082 -0.7176 -0.3393
vn -0.5550 -0.6064 -0.5695
vn -0.4117 -0.4254 -0.8060
vn -0.1626 -0.2726 -0.9483
vn 0.1165 -0.2082 -0.9711
vn 0.3422 -0.3705 -0.8635
vn 0.4646 -0.6222 -0.6301
vn 0.5710 -0.7017 -0.4260
vn 0.7634 -0.5806 -0.2830
vn 0.9339 -0.3446 -0.0958
vn 0.9686 0.2224 0.1113
vn -0.6212 -0.6873 -0.3764
vn -0.4923 -0.7292 -0.4754
vn -0.3752 -0.6409 -0.6696
vn -0.1802 -0.4705 -0.8638
vn 0.0849 -0.2824 -0.9555
vn 0.3442 -0.1709 -0.9232
vn 0.5353 -0.3221 -0.7808
vn 0.6041 -0.5981 -0.5266
vn 0.6294 -0.7216 -0.2884
vn 0.7493 -0.6533 -0.1086
vn 0.8799 -0.4645 0.1002
vn 0.9336 0.1248 0.3359
vn -0.5063 -0.6834 -0.5260
vn -0.3533 -0.7339 -0.5802
vn -0.1914 -0.6639 -0.7229
vn 0.0362 -0.5071 -0.8611
vn 0.3062 -0.2964 -0.9046
vn 0.5458 -0.1450 -0.8253
vn 0.7103 -0.2707 -0.6497
vn 0.7376 -0.5553 -0.3841
vn 0.6804 -0.7201 -0.1362
vn 0.7120 -0.6998 0.0580
vn 0.7776 -0.5633 0.2793
vn 0.8306 0.0228 0.5564
vn -0.3578 -0.6763 -0.6440
vn -0.1974 -0.7317 -0.6525
vn -0.0114 -0.6747 -0.7380
vn 0.2286 -0.5318 -0.8155
vn 0.4961 -0.3132 -0.8098
vn 0.7154 -0.1344 -0.6856
vn 0.8517 -0.2222 -0.4747
vn 0.8405 -0.5014 -0.2053
vn 0.7145 -0.6990 0.0312
vn 0.6536 -0.7243 0.2195
vn 0.6402 -0.6364 0.4302
vn 0.6612 -0.0715 0.7468
vn -0.1833 -0.6662 -0.7229
vn -0.0294 -0.7223 -0.6909
vn 0.1623 -0.6731 -0.7215
vn 0.3997 -0.5429 -0.7386
vn 0.6561 -0.3297 -0.6788
vn 0.8502 -0.1366 -0.5084
vn 0.9470 -0.1811 -0.2655
vn 0.9028 -0.4300 0.0069
vn 0.7238 -0.6521 0.2256
vn 0.5756 -0.7249 0.3784
vn 0.4835 -0.6827 0.5479
vn 0.4407 -0.1492 0.8852
vn 0.0078 -0.6534 -0.7570
vn 0.1460 -0.7058 -0.6932
vn 0.3325 -0.6581 -0.6755
vn 0.5547 -0.5393 -0.6336
vn 0.7854 -0.3433 -0.5150
vn 0.9426 -0.1504 -0.2981
vn 0.9894 -0.1429 -0.0259
vn 0.9072 -0.3397 0.2481
vn 0.6892 -0.5813 0.4326
vn 0.4723 -0.7026 0.5322
vn 0.3138 -0.7055 0.6355
vn 0.1942 -0.2058 0.9591
vn 0.2046 -0.6387 -0.7418
vn 0.3245 -0.6816 -0.6558
vn 0.4990 -0.6292 -0.5959
vn 0.6940 -0.5198 -0.4982
vn 0.8794 -0.3513 -0.3212
vn 0.9828 -0.1735 -0.0634
vn 0.9677 -0.1139 0.2249
vn 0.8399 -0.2420 0.4858
vn 0.5952 -0.4739 0.6490
vn 0.3315 -0.6563 0.6778
vn 0.1332 -0.7063 0.6952
vn -0.0603 -0.2404 0.9688
vn 0.3944 -0.6228 -0.6757
vn 0.4965 -0.6510 -0.5741
vn 0.6554 -0.5863 -0.4761
vn 0.8119 -0.4833 -0.3275
vn 0.9311 -0.3505 -0.1012
vn 0.9625 -0.2019 0.1811
vn 0.8803 -0.0979 0.4641
vn 0.6985 -0.1325 0.7033
vn 0.4333 -0.3460 0.8322
vn 0.1506 -0.5793 0.8011
vn -0.0561 -0.6874 0.7241
vn -0.3059 -0.2528 0.9179
vn 0.5635 -0.6070 -0.5604
vn 0.6492 -0.6155 -0.4469
vn 0.7874 -0.5310 -0.3132
vn 0.8930 -0.4332 -0.1218
vn 0.9302 -0.3425 0.1324
vn 0.8789 -0.2335 0.4159
vn 0.7310 -0.0937 0.6760
vn 0.4999 -0.0352 0.8654
vn 0.2090 -0.1981 0.9576
vn -0.0711 -0.4789 0.8750
vn -0.2580 -0.6461 0.7183
vn -0.5362 -0.2425 0.8085
vn 0.6981 -0.5927 -0.4017
vn 0.7679 -0.5772 -0.2777
vn 0.8771 -0.4672 -0.1113
vn 0.9209 -0.3742 0.1088
vn 0.8714 -0.3300 0.3631
vn 0.7377 -0.2673 0.6199
vn 0.5297 -0.1039 0.8418
vn 0.2591 0.0479 0.9647
vn -0.0478 -0.0521 0.9975
vn -0.3188 -0.3567 0.8781
vn -0.4692 -0.5802 0.6658
vn -0.7363 -0.2069 0.6443
vn 0.7861 -0.5814 -0.2099
vn 0.8391 -0.5389 -0.0746
vn 0.9094 -0.3992 0.1170
vn 0.8857 -0.3123 0.3436
vn 0.7563 -0.3186 0.5714
vn 0.5495 -0.3010 0.7794
vn 0.2884 -0.1251 0.9493
vn -0.0017 0.1056 0.9944
vn -0.3059 0.0793 0.9488
vn -0.5602 -0.2253 0.7971
vn -0.6746 -0.4870 0.5548
vn -0.8884 -0.1473 0.4348
vn 0.8188 -0.5741 0.0008
vn 0.8507 -0.5047 0.1471
vn 0.8750 -0.3327 0.3516
vn 0.7879 -0.2520 0.5619
vn 0.5914 -0.3069 0.7457
vn 0.3261 -0.3332 0.8847
vn 0.0238 -0.1561 0.9875
vn -0.2621 0.1341 0.9557
vn -0.5328 0.1756 0.8278
vn -0.7615 -0.1036 0.6398
vn -0.8427 -0.3757 0.3857
vn -0.9796 -0.0653 0.1902
vn 0.7922 -0.5715 0.2138
vn 0.7974 -0.4779 0.3683
vn 0.7724 -0.2716 0.5741
vn 0.6296 -0.1939 0.7523
vn 0.3846 -0.2940 0.8750
vn 0.0827 -0.3633 0.9280
vn -0.2417 -0.1961 0.9503
vn -0.5094 0.1356 0.8498
vn -0.7207 0.2352 0.6522
vn -0.9038 0.0070 0.4279
vn -0.9537 -0.2513 0.1654
vn -0.9973 0.0288 -0.0669
vn 0.7079 -0.5739 0.4117
vn 0.6810 -0.4611 0.5689
vn 0.6059 -0.2240 0.7633
vn 0.4200 -0.1470 0.8955
vn 0.1481 -0.2838 0.9474
vn -0.1632 -0.3905 0.9060
vn -0.4888 -0.2428 0.8379
vn -0.7265 0.1098 0.6784
vn -0.8600 0.2630 0.4373
vn -0.9773 0.0959 0.1888
vn -0.9882 -0.1319 -0.0779
vn -0.9396 0.1283 -0.3172
vn 0.5727 -0.5806 0.5786
vn 0.5097 -0.4557 0.7298
vn 0.3891 -0.1954 0.9002
vn 0.1751 -0.1155 0.9778
vn -0.1030 -0.2780 0.9550
vn -0.3941 -0.4126 0.8212
vn -0.6910 -0.2954 0.6598
vn -0.8908 0.0533 0.4513
vn -0.9466 0.2560 0.1960
vn -0.9850 0.1600 -0.0642
vn -0.9439 -0.0215 -0.3296
vn -0.8152 0.2208 -0.5355
vn 0.3981 -0.5911 0.7015
vn 0.2980 -0.4618 0.8355
vn 0.1384 -0.1854 0.9729
vn -0.0880 -0.0988 0.9912
vn -0.3519 -0.2750 0.8947
vn -0.5970 -0.4260 0.6798
vn -0.8323 -0.3481 0.4313
vn -0.9846 -0.0291 0.1725
vn -0.9724 0.2213 -0.0741
vn -0.9276 0.1987 -0.3162
vn -0.8282 0.0650 -0.5566
vn -0.6362 0.3026 -0.7097
vn -0.0164 0.7288 -0.6845
vn 0.1684 0.7429 -0.6479
vn 0.3381 0.7510 -0.5672
vn 0.4813 0.7527 -0.4493
vn 0.5902 0.7489 -0.3014
vn 0.6594 0.7392 -0.1370
vn 0.6896 0.7235 0.0305
vn 0.6841 0.7016 0.1995
vn 0.6401 0.6734 0.3699
vn 0.5520 0.6409 0.5333
vn 0.4177 0.6065 0.6766
vn 0.2420 0.5733 0.7828
vn 0.0381 0.5435 0.8386
vn -0.1782 0.5189 0.8361
vn -0.3901 0.5029 0.7713
vn -0.5795 0.4980 0.6450
vn -0.7249 0.5044 0.4691
vn -0.8120 0.5228 0.2596
vn -0.8336 0.5512 0.0367
vn -0.7912 0.5854 -0.1769
vn -0.6941 0.6213 -0.3636
vn -0.5561 0.6549 -0.5118
vn -0.3889 0.6846 -0.6165
vn -0.2050 0.7096 -0.6742
vt 1.000000 0.923077
vt 1.000000 1.000000
vt 0.958333 1.000000
vt 0.958333 0.923077
vt 0.916667 1.000000
vt 0.916667 0.923077
vt 0.875000 1.000000
vt 0.875000 0.923077
vt 0.833333 1.000000
vt 0.833333 0.923077
vt 0.791667 1.000000
vt 0.791667 0.923077
vt 0.750000 1.000000
vt 0.750000 0.923077
vt 0.708333 1.000000
vt 0.708333 0.923077
vt 0.666667 1.000000
vt 0.666667 0.923077
vt 0.625000 1.000000
vt 0.625000 0.923077
vt 0.583333 1.000000
vt 0.583333 0.923077
vt 0.541666 1.000000
vt 0.541666 0.923077
vt 0.500000 1.000000
vt 0.500000 0.923077
vt 0.458333 1.000000
vt 0.458333 0.923077
vt 0.416666 1.000000
vt 0.416667 0.923077
vt 0.375000 1.000000
vt 0.375000 0.923077
vt 0.333333 1.000000
vt 0.333333 0.923077
vt 0.291667 1.000000
vt 0.291667 0.923077
vt 0.250000 1.000000
vt 0.250000 0.923077
vt 0.208333 1.000000
vt 0.208333 0.923077
vt 0.166666 1.000000
vt 0.166666 0.923077
vt 0.125000 1.000000
vt 0.125000 0.923077
vt 0.083333 1.000000
vt 0.083333 0.923077
vt 0.041666 1.000000
vt 0.041666 0.923077
vt -0.000000 1.000000
vt -0.000000 0.923077
vt 0.041666 0.038462
vt 0.041666 0.076923
vt -0.000000 0.076923
vt -0.000000 0.038462
vt 0.041666 0.153846
vt -0.000000 0.153846
vt 0.041666 0.230769
vt -0.000000 0.230769
vt 0.041666 0.307692
vt -0.000000 0.307692
vt 0.041666 0.384615
vt -0.000000 0.384615
vt 0.041666 0.461538
vt -0.000000 0.461538
vt 0.041666 0.538462
vt -0.000000 0.538462
vt 0.041666 0.615385
vt -0.000000 0.615385
vt 0.041666 0.692308
vt -0.000000 0.692308
vt 0.041666 0.769231
vt -0.000000 0.769231
vt 0.041666 0.846154
vt -0.000000 0.846154
vt 0.083333 0.038462
vt 0.083333 0.076923
vt 0.083333 0.153846
vt 0.083333 0.230769
vt 0.083333 0.307692
vt 0.083333 0.384615
vt 0.083333 0.461538
vt 0.083333 0.538462
vt 0.083333 0.615385
vt 0.083333 0.692308
vt 0.083333 0.769231
vt 0.083333 0.846154
vt 0.125000 0.038462
vt 0.125000 0.076923
vt 0.125000 0.153846
vt 0.125000 0.230769
vt 0.125000 0.307692
vt 0.125000 0.384615
vt 0.125000 0.461538
vt 0.125000 0.538462
vt 0.125000 0.615385
vt 0.125000 0.692308
vt 0.125000 0.769231
vt 0.125000 0.846154
vt 0.166666 0.038462
vt 0.166666 0.076923
vt 0.166666 0.153846
vt 0.166667 0.230769
vt 0.166666 0.307692
vt 0.166666 0.384615
vt 0.166667 0.461538
vt 0.166667 0.538462
vt 0.166667 0.615385
vt 0.166667 0.692308
vt 0.166667 0.769231
vt 0.166667 0.846154
vt 0.208333 0.038462
vt 0.208333 0.076923
vt 0.208333 0.153846
vt 0.208333 0.230769
vt 0.208333 0.307692
vt 0.208333 0.384615
vt 0.208333 0.461538
vt 0.208333 0.538461
vt 0.208333 0.615385
vt 0.208333 0.692308
vt 0.208333 0.769231
vt 0.208333 0.846154
vt 0.250000 0.038462
vt 0.250000 0.076923
vt 0.250000 0.153846
vt 0.250000 0.230769
vt 0.250000 0.307692
vt 0.250000 0.384615
vt 0.250000 0.461538
vt 0.250000 0.538461
vt 0.250000 0.615385
vt 0.250000 0.692308
vt 0.250000 0.769231
vt 0.250000 0.846154
vt 0.291667 0.038462
vt 0.291667 0.076923
vt 0.291667 0.153846
vt 0.291667 0.230769
vt 0.291667 0.307692
vt 0.291667 0.384615
vt 0.291667 0.461538
vt 0.291667 0.538462
vt 0.291667 0.615385
vt 0.291666 0.692308
vt 0.291667 0.769231
vt 0.291667 0.846154
vt 0.333333 0.038462
vt 0.333333 0.076923
vt 0.333333 0.153846
vt 0.333333 0.230769
vt 0.333333 0.307692
vt 0.333333 0.384615
vt 0.333333 0.461538
vt 0.333333 0.538462
vt 0.333333 0.615385
vt 0.333333 0.692308
vt 0.333333 0.769231
vt 0.333333 0.846154
vt 0.375000 0.038462
vt 0.375000 0.076923
vt 0.375000 0.153846
vt 0.375000 0.230769
vt 0.375000 0.307692
vt 0.375000 0.384615
vt 0.375000 0.461538
vt 0.375000 0.538462
vt 0.375000 0.615385
vt 0.375000 0.692308
vt 0.375000 0.769231
vt 0.375000 0.846154
vt 0.416666 0.038462
vt 0.416667 0.076923
vt 0.416667 0.153846
vt 0.416666 0.230769
vt 0.416667 0.307692
vt 0.416666 0.384615
vt 0.416666 0.461538
vt 0.416667 0.538462
vt 0.416666 0.615385
vt 0.416667 0.692308
vt 0.416667 0.769231
vt 0.416666 0.846154
vt 0.458333 0.038462
vt 0.458333 0.076923
vt 0.458333 0.153846
vt 0.458333 0.230769
vt 0.458333 0.307692
vt 0.458333 0.384615
vt 0.458333 0.461538
vt 0.458333 0.538462
vt 0.458333 0.615385
vt 0.458333 0.692308
vt 0.458333 0.769231
vt 0.458333 0.846154
vt 0.500000 0.038462
vt 0.500000 0.076923
vt 0.500000 0.153846
vt 0.500000 0.230769
vt 0.500000 0.307692
vt 0.500000 0.384615
vt 0.500000 0.461538
vt 0.500000 0.538461
vt 0.500000 0.615385
vt 0.500000 0.692308
vt 0.500000 0.769231
vt 0.500000 0.846154
vt 0.541667 0.038462
vt 0.541666 0.076923
vt 0.541666 0.153846
vt 0.541666 0.230769
vt 0.541666 0.307692
vt 0.541666 0.384615
vt 0.541666 0.461538
vt 0.541666 0.538462
vt 0.541666 0.615385
vt 0.541666 0.692308
vt 0.541666 0.769231
vt 0.541666 0.846154
vt 0.583333 0.038462
vt 0.583333 0.076923
vt 0.583333 0.153846
vt 0.583333 0.230769
vt 0.583333 0.307692
vt 0.583333 0.384615
vt 0.583333 0.461538
vt 0.583333 0.538462
vt 0.583333 0.615385
vt 0.583333 0.692308
vt 0.583333 0.769231
vt 0.583333 0.846154
vt 0.625000 0.038462
vt 0.625000 0.076923
vt 0.625000 0.153846
vt 0.625000 0.230769
vt 0.625000 0.307692
vt 0.625000 0.384615
vt 0.625000 0.461538
vt 0.625000 0.538462
vt 0.625000 0.615385
vt 0.625000 0.692308
vt 0.625000 0.769231
vt 0.625000 0.846154
vt 0.666666 0.038462
vt 0.666667 0.076923
vt 0.666667 0.153846
vt 0.666667 0.230769
vt 0.666667 0.307692
vt 0.666667 0.384615
vt 0.666667 0.461538
vt 0.666667 0.538462
vt 0.666667 0.615385
vt 0.666667 0.692308
vt 0.666667 0.769231
vt 0.666667 0.846154
vt 0.708333 0.038462
vt 0.708333 0.076923
vt 0.708333 0.153846
vt 0.708333 0.230769
vt 0.708333 0.307692
vt 0.708333 0.384615
vt 0.708333 0.461538
vt 0.708333 0.538462
vt 0.708333 0.615385
vt 0.708333 0.692308
vt 0.708333 0.769231
vt 0.708333 0.846154
vt 0.750000 0.038462
vt 0.750000 0.076923
vt 0.750000 0.153846
vt 0.750000 0.230769
vt 0.750000 0.307692
vt 0.750000 0.384615
vt 0.750000 0.461538
vt 0.750000 0.538461
vt 0.750000 0.615385
vt 0.750000 0.692308
vt 0.750000 0.769231
vt 0.750000 0.846154
vt 0.791667 0.038462
vt 0.791667 0.076923
vt 0.791666 0.153846
vt 0.791667 0.230769
vt 0.791667 0.307692
vt 0.791667 0.384615
vt 0.791667 0.461538
vt 0.791667 0.538462
vt 0.791667 0.615385
vt 0.791667 0.692308
vt 0.791667 0.769231
vt 0.791667 0.846154
vt 0.833333 0.038462
vt 0.833333 0.076923
vt 0.833333 0.153846
vt 0.833333 0.230769
vt 0.833333 0.307692
vt 0.833333 0.384615
vt 0.833333 0.461538
vt 0.833333 0.538462
vt 0.833333 0.615385
vt 0.833333 0.692308
vt 0.833333 0.769231
vt 0.833333 0.846154
vt 0.875000 0.038462
vt 0.875000 0.076923
vt 0.875000 0.153846
vt 0.875000 0.230769
vt 0.875000 0.307692
vt 0.875000 0.384615
vt 0.875000 0.461538
vt 0.875000 0.538462
vt 0.875000 0.615385
vt 0.875000 0.692308
vt 0.875000 0.769231
vt 0.875000 0.846154
vt 0.916667 0.038462
vt 0.916667 0.076923
vt 0.916667 0.153846
vt 0.916667 0.230769
vt 0.916667 0.307692
vt 0.916667 0.384615
vt 0.916666 0.461538
vt 0.916667 0.538462
vt 0.916667 0.615385
vt 0.916667 0.692308
vt 0.916667 0.769231
vt 0.916667 0.846154
vt 0.958333 0.038462
vt 0.958333 0.076923
vt 0.958333 0.153846
vt 0.958333 0.230769
vt 0.958333 0.307692
vt 0.958333 0.384615
vt 0.958333 0.461538
vt 0.958333 0.538462
vt 0.958333 0.615385
vt 0.958333 0.692308
vt 0.958333 0.769231
vt 0.958333 0.846154
vt 1.000000 0.038462
vt 1.000000 0.076923
vt 1.000000 0.153846
vt 1.000000 0.230769
vt 1.000000 0.307692
vt 1.000000 0.384615
vt 1.000000 0.461538
vt 1.000000 0.538462
vt 1.000000 0.615385
vt 1.000000 0.692308
vt 1.000000 0.769231
vt 1.000000 0.846154
vt 1.000000 0.000000
vt 0.958333 0.000000
vt 0.916667 0.000000
vt 0.875000 0.000000
vt 0.833333 0.000000
vt 0.791667 0.000000
vt 0.750000 0.000000
vt 0.708333 0.000000
vt 0.666667 0.000000
vt 0.625000 0.000000
vt 0.583333 0.000000
vt 0.541666 0.000000
vt 0.500000 0.000000
vt 0.458333 0.000000
vt 0.416666 0.000000
vt 0.375000 0.000000
vt 0.333333 0.000000
vt 0.291667 0.000000
vt 0.250000 0.000000
vt 0.208333 0.000000
vt 0.166666 0.000000
vt 0.125000 0.000000
vt 0.083333 0.000000
vt 0.041666 0.000000
vt -0.000000 0.000000
s 1
f 60/1/60 2/2/2 4/3/4 61/4/61
f 61/4/61 4/3/4 6/5/6 73/6/73
f 73/6/73 6/5/6 8/7/8 85/8/85
f 85/8/85 8/7/8 10/9/10 97/10/97
f 97/10/97 10/9/10 12/11/12 109/12/109
f 109/12/109 12/11/12 14/13/14 121/14/121
f 121/14/121 14/13/14 16/15/16 133/16/133
f 133/16/133 16/15/16 18/17/18 145/18/145
f 145/18/145 18/17/18 20/19/20 157/20/157
f 157/20/157 20/19/20 22/21/22 169/22/169
f 169/22/169 22/21/22 24/23/24 181/24/181
f 181/24/181 24/23/24 26/25/26 193/26/193
f 193/26/193 26/25/26 28/27/28 205/28/205
f 205/28/205 28/27/28 30/29/30 217/30/217
f 217/30/217 30/29/30 32/31/32 229/32/229
f 229/32/229 32/31/32 34/33/34 241/34/241
f 241/34/241 34/33/34 36/35/36 253/36/253
f 253/36/253 36/35/36 38/37/38 265/38/265
f 265/38/265 38/37/38 40/39/40 277/40/277
f 277/40/277 40/39/40 42/41/42 289/42/289
f 289/42/289 42/41/42 44/43/44 301/44/301
f 301/44/301 44/43/44 46/45/46 313/46/313
f 313/46/313 46/45/46 48/47/48 325/48/325
f 325/48/325 48/47/48 2/49/2 60/50/60
f 359/51/359 336/52/336 49/53/49 360/54/360
f 336/52/336 335/55/335 50/56/50 49/53/49
f 335/55/335 334/57/334 51/58/51 50/56/50
f 334/57/334 333/59/333 52/60/52 51/58/51
f 333/59/333 332/61/332 53/62/53 52/60/52
f 332/61/332 331/63/331 54/64/54 53/62/53
f 331/63/331 330/65/330 55/66/55 54/64/54
f 330/65/330 329/67/329 56/68/56 55/66/55
f 329/67/329 328/69/328 57/70/57 56/68/56
f 328/69/328 327/71/327 58/72/58 57/70/57
f 327/71/327 326/73/326 59/74/59 58/72/58
f 326/73/326 325/48/325 60/50/60 59/74/59
f 358/75/358 324/76/324 336/52/336 359/51/359
f 324/76/324 323/77/323 335/55/335 336/52/336
f 323/77/323 322/78/322 334/57/334 335/55/335
f 322/78/322 321/79/321 333/59/333 334/57/334
f 321/79/321 320/80/320 332/61/332 333/59/333
f 320/80/320 319/81/319 331/63/331 332/61/332
f 319/81/319 318/82/318 330/65/330 331/63/331
f 318/82/318 317/83/317 329/67/329 330/65/330
f 317/83/317 316/84/316 328/69/328 329/67/329
f 316/84/316 315/85/315 327/71/327 328/69/328
f 315/85/315 314/86/314 326/73/326 327/71/327
f 314/86/314 313/46/313 325/48/325 326/73/326
f 357/87/357 312/88/312 324/76/324 358/75/358
f 312/88/312 311/89/311 323/77/323 324/76/324
f 311/89/311 310/90/310 322/78/322 323/77/323
f 310/90/310 309/91/309 321/79/321 322/78/322
f 309/91/309 308/92/308 320/80/320 321/79/321
f 308/92/308 307/93/307 319/81/319 320/80/320
f 307/93/307 306/94/306 318/82/318 319/81/319
f 306/94/306 305/95/305 317/83/317 318/82/318
f 305/95/305 304/96/304 316/84/316 317/83/317
f 304/96/304 303/97/303 315/85/315 316/84/316
f 303/97/303 302/98/302 314/86/314 315/85/315
f 302/98/302 301/44/301 313/46/313 314/86/314
f 356/99/356 300/100/300 312/88/312 357/87/357
f 300/100/300 299/101/299 311/89/311 312/88/312
f 299/101/299 298/102/298 310/90/310 311/89/311
f 298/102/298 297/103/297 309/91/309 310/90/310
f 297/103/297 296/104/296 308/92/308 309/91/309
f 296/104/296 295/105/295 307/93/307 308/92/308
f 295/105/295 294/106/294 306/94/306 307/93/307
f 294/106/294 293/107/293 305/95/305 306/94/306
f 293/107/293 292/108/292 304/96/304 305/95/305
f 292/108/292 291/109/291 303/97/303 304/96/304
f 291/109/291 290/110/290 302/98/302 303/97/303
f 290/110/290 289/42/289 301/44/301 302/98/302
f 355/111/355 288/112/288 300/100/300 356/99/356
f 288/112/288 287/113/287 299/101/299 300/100/300
f 287/113/287 286/114/286 298/102/298 299/101/299
f 286/114/286 285/115/285 297/103/297 298/102/298
f 285/115/285 284/116/284 296/104/296 297/103/297
f 284/116/284 283/117/283 295/105/295 296/104/296
f 283/117/283 282/118/282 294/106/294 295/105/295
f 282/118/282 281/119/281 293/107/293 294/106/294
f 281/119/281 280/120/280 292/108/292 293/107/293
f 280/120/280 279/121/279 291/109/291 292/108/292
f 279/121/279 278/122/278 290/110/290 291/109/291
f 278/122/278 277/40/277 289/42/289 290/110/290
f 354/123/354 276/124/276 288/112/288 355/111/355
f 276/124/276 275/125/275 287/113/287 288/112/288
f 275/125/275 274/126/274 286/114/286 287/113/287
f 274/126/274 273/127/273 285/115/285 286/114/286
f 273/127/273 272/128/272 284/116/284 285/115/285
f 272/128/272 271/129/271 283/117/283 284/116/284
f 271/129/271 270/130/270 282/118/282 283/117/283
f 270/130/270 269/131/269 281/119/281 282/118/282
f 269/131/269 268/132/268 280/120/280 281/119/281
f 268/132/268 267/133/267 279/121/279 280/120/280
f 267/133/267 266/134/266 278/122/278 279/121/279
f 266/134/266 265/38/265 277/40/277 278/122/278
f 353/135/353 264/136/264 276/124/276 354/123/354
f 264/136/264 263/137/263 275/125/275 276/124/276
f 263/137/263 262/138/262 274/126/274 275/125/275
f 262/138/262 261/139/261 273/127/273 274/126/274
f 261/139/261 260/140/260 272/128/272 273/127/273
f 260/140/260 259/141/259 271/129/271 272/128/272
f 259/141/259 258/142/258 270/130/270 271/129/271
f 258/142/258 257/143/257 269/131/269 270/130/270
f 257/143/257 256/144/256 268/132/268 269/131/269
f 256/144/256 255/145/255 267/133/267 268/132/268
f 255/145/255 254/146/254 266/134/266 267/133/267
f 254/146/254 253/36/253 265/38/265 266/134/266
f 352/147/352 252/148/252 264/136/264 353/135/353
f 252/148/252 251/149/251 263/137/263 264/136/264
f 251/149/251 250/150/250 262/138/262 263/137/263
f 250/150/250 249/151/249 261/139/261 262/138/262
f 249/151/249 248/152/248 260/140/260 261/139/261
f 248/152/248 247/153/247 259/141/259 260/140/260
f 247/153/247 246/154/246 258/142/258 259/141/259
f 246/154/246 245/155/245 257/143/257 258/142/258
f 245/155/245 244/156/244 256/144/256 257/143/257
f 244/156/244 243/157/243 255/145/255 256/144/256
f 243/157/243 242/158/242 254/146/254 255/145/255
f 242/158/242 241/34/241 253/36/253 254/146/254
f 351/159/351 240/160/240 252/148/252 352/147/352
f 240/160/240 239/161/239 251/149/251 252/148/252
f 239/161/239 238/162/238 250/150/250 251/149/251
f 238/162/238 237/163/237 249/151/249 250/150/250
f 237/163/237 236/164/236 248/152/248 249/151/249
f 236/164/236 235/165/235 247/153/247 248/152/248
f 235/165/235 234/166/234 246/154/246 247/153/247
f 234/166/234 233/167/233 245/155/245 246/154/246
f 233/167/233 232/168/232 244/156/244 245/155/245
f 232/168/232 231/169/231 243/157/243 244/156/244
f 231/169/231 230/170/230 242/158/242 243/157/243
f 230/170/230 229/32/229 241/34/241 242/158/242
f 350/171/350 228/172/228 240/160/240 351/159/351
f 228/172/228 227/173/227 239/161/239 240/160/240
f 227/173/227 226/174/226 238/162/238 239/161/239
f 226/174/226 225/175/225 237/163/237 238/162/238
f 225/175/225 224/176/224 236/164/236 237/163/237
f 224/176/224 223/177/223 235/165/235 236/164/236
f 223/177/223 222/178/222 234/166/234 235/165/235
f 222/178/222 221/179/221 233/167/233 234/166/234
f 221/179/221 220/180/220 232/168/232 233/167/233
f 220/180/220 219/181/219 231/169/231 232/168/232
f 219/181/219 218/182/218 230/170/230 231/169/231
f 218/182/218 217/30/217 229/32/229 230/170/230
f 349/183/349 216/184/216 228/172/228 350/171/350
f 216/184/216 215/185/215 227/173/227 228/172/228
f 215/185/215 214/186/214 226/174/226 227/173/227
f 214/186/214 213/187/213 225/175/225 226/174/226
f 213/187/213 212/188/212 224/176/224 225/175/225
f 212/188/212 211/189/211 223/177/223 224/176/224
f 211/189/211 210/190/210 222/178/222 223/177/223
f 210/190/210 209/191/209 221/179/221 222/178/222
f 209/191/209 208/192/208 220/180/220 221/179/221
f 208/192/208 207/193/207 219/181/219 220/180/220
f 207/193/207 206/194/206 218/182/218 219/181/219
f 206/194/206 205/28/205 217/30/217 218/182/218
f 348/195/348 204/196/204 216/184/216 349/183/349
f 204/196/204 203/197/203 215/185/215 216/184/216
f 203/197/203 202/198/202 214/186/214 215/185/215
f 202/198/202 201/199/201 213/187/213 214/186/214
f 201/199/201 200/200/200 212/188/212 213/187/213
f 200/200/200 199/201/199 211/189/211 212/188/212
f 199/201/199 198/202/198 210/190/210 211/189/211
f 198/202/198 197/203/197 209/191/209 210/190/210
f 197/203/197 196/204/196 208/192/208 209/191/209
f 196/204/196 195/205/195 207/193/207 208/192/208
f 195/205/195 194/206/194 206/194/206 207/193/207
f 194/206/194 193/26/193 205/28/205 206/194/206
f 347/207/347 192/208/192 204/196/204 348/195/348
f 192/208/192 191/209/191 203/197/203 204/196/204
f 191/209/191 190/210/190 202/198/202 203/197/203
f 190/210/190 189/211/189 201/199/201 202/198/202
f 189/211/189 188/212/188 200/200/200 201/199/201
f 188/212/188 187/213/187 199/201/199 200/200/200
f 187/213/187 186/214/186 198/202/198 199/201/199
f 186/214/186 185/215/185 197/203/197 198/202/198
f 185/215/185 184/216/184 196/204/196 197/203/197
f 184/216/184 183/217/183 195/205/195 196/204/196
f 183/217/183 182/218/182 194/206/194 195/205/195
f 182/218/182 181/24/181 193/26/193 194/206/194
f 346/219/346 180/220/180 192/208/192 347/207/347
f 180/220/180 179/221/179 191/209/191 192/208/192
f 179/221/179 178/222/178 190/210/190 191/209/191
f 178/222/178 177/223/177 189/211/189 190/210/190
f 177/223/177 176/224/176 188/212/188 189/211/189
f 176/224/176 175/225/175 187/213/187 188/212/188
f 175/225/175 174/226/174 186/214/186 187/213/187
f 174/226/174 173/227/173 185/215/185 186/214/186
f 173/227/173 172/228/172 184/216/184 185/215/185
f 172/228/172 171/229/171 183/217/183 184/216/184
f 171/229/171 170/230/170 182/218/182 183/217/183
f 170/230/170 169/22/169 181/24/181 182/218/182
f 345/231/345 168/232/168 180/220/180 346/219/346
f 168/232/168 167/233/167 179/221/179 180/220/180
f 167/233/167 166/234/166 178/222/178 179/221/179
f 166/234/166 165/235/165 177/223/177 178/222/178
f 165/235/165 164/236/164 176/224/176 177/223/177
f 164/236/164 163/237/163 175/225/175 176/224/176
f 163/237/163 162/238/162 174/226/174 175/225/175
f 162/238/162 161/239/161 173/227/173 174/226/174
f 161/239/161 160/240/160 172/228/172 173/227/173
f 160/240/160 159/241/159 171/229/171 172/228/172
f 159/241/159 158/242/158 170/230/170 171/229/171
f 158/242/158 157/20/157 169/22/169 170/230/170
f 344/243/344 156/244/156 168/232/168 345/231/345
f 156/244/156 155/245/155 167/233/167 168/232/168
f 155/245/155 154/246/154 166/234/166 167/233/167
f 154/246/154 153/247/153 165/235/165 166/234/166
f 153/247/153 152/248/152 164/236/164 165/235/165
f 152/248/152 151/249/151 163/237/163 164/236/164
f 151/249/151 150/250/150 162/238/162 163/237/163
f 150/250/150 149/251/149 161/239/161 162/238/162
f 149/251/149 148/252/148 160/240/160 161/239/161
f 148/252/148 147/253/147 159/241/159 160/240/160
f 147/253/147 146/254/146 158/242/158 159/241/159
f 146/254/146 145/18/145 157/20/157 158/242/158
f 343/255/343 144/256/144 156/244/156 344/243/344
f 144/256/144 143/257/143 155/245/155 156/244/156
f 143/257/143 142/258/142 154/246/154 155/245/155
f 142/258/142 141/259/141 153/247/153 154/246/154
f 141/259/141 140/260/140 152/248/152 153/247/153
f 140/260/140 139/261/139 151/249/151 152/248/152
f 139/261/139 138/262/138 150/250/150 151/249/151
f 138/262/138 137/263/137 149/251/149 150/250/150
f 137/263/137 136/264/136 148/252/148 149/251/149
f 136/264/136 135/265/135 147/253/147 148/252/148
f 135/265/135 134/266/134 146/254/146 147/253/147
f 134/266/134 133/16/133 145/18/145 146/254/146
f 342/267/342 132/268/132 144/256/144 343/255/343
f 132/268/132 131/269/131 143/257/143 144/256/144
f 131/269/131 130/270/130 142/258/142 143/257/143
f 130/270/130 129/271/129 141/259/141 142/258/142
f 129/271/129 128/272/128 140/260/140 141/259/141
f 128/272/128 127/273/127 139/261/139 140/260/140
f 127/273/127 126/274/126 138/262/138 139/261/139
f 126/274/126 125/275/125 137/263/137 138/262/138
f 125/275/125 124/276/124 136/264/136 137/263/137
f 124/276/124 123/277/123 135/265/135 136/264/136
f 123/277/123 122/278/122 134/266/134 135/265/135
f 122/278/122 121/14/121 133/16/133 134/266/134
f 341/279/341 120/280/120 132/268/132 342/267/342
f 120/280/120 119/281/119 131/269/131 132/268/132
f 119/281/119 118/282/118 130/270/130 131/269/131
f 118/282/118 117/283/117 129/271/129 130/270/130
f 117/283/117 116/284/116 128/272/128 129/271/129
f 116/284/116 115/285/115 127/273/127 128/272/128
f 115/285/115 114/286/114 126/274/126 127/273/127
f 114/286/114 113/287/113 125/275/125 126/274/126
f 113/287/113 112/288/112 124/276/124 125/275/125
f 112/288/112 111/289/111 123/277/123 124/276/124
f 111/289/111 110/290/110 122/278/122 123/277/123
f 110/290/110 109/12/109 121/14/121 122/278/122
f 340/291/340 108/292/108 120/280/120 341/279/341
f 108/292/108 107/293/107 119/281/119 120/280/120
f 107/293/107 106/294/106 118/282/118 119/281/119
f 106/294/106 105/295/105 117/283/117 118/282/118
f 105/295/105 104/296/104 116/284/116 117/283/117
f 104/296/104 103/297/103 115/285/115 116/284/116
f 103/297/103 102/298/102 114/286/114 115/285/115
f 102/298/102 101/299/101 113/287/113 114/286/114
f 101/299/101 100/300/100 112/288/112 113/287/113
f 100/300/100 99/301/99 111/289/111 112/288/112
f 99/301/99 98/302/98 110/290/110 111/289/111
f 98/302/98 97/10/97 109/12/109 110/290/110
f 339/303/339 96/304/96 108/292/108 340/291/340
f 96/304/96 95/305/95 107/293/107 108/292/108
f 95/305/95 94/306/94 106/294/106 107/293/107
f 94/306/94 93/307/93 105/295/105 106/294/106
f 93/307/93 92/308/92 104/296/104 105/295/105
f 92/308/92 91/309/91 103/297/103 104/296/104
f 91/309/91 90/310/90 102/298/102 103/297/103
f 90/310/90 89/311/89 101/299/101 102/298/102
f 89/311/89 88/312/88 100/300/100 101/299/101
f 88/312/88 87/313/87 99/301/99 100/300/100
f 87/313/87 86/314/86 98/302/98 99/301/99
f 86/314/86 85/8/85 97/10/97 98/302/98
f 338/315/338 84/316/84 96/304/96 339/303/339
f 84/316/84 83/317/83 95/305/95 96/304/96
f 83/317/83 82/318/82 94/306/94 95/305/95
f 82/318/82 81/319/81 93/307/93 94/306/94
f 81/319/81 80/320/80 92/308/92 93/307/93
f 80/320/80 79/321/79 91/309/91 92/308/92
f 79/321/79 78/322/78 90/310/90 91/309/91
f 78/322/78 77/323/77 89/311/89 90/310/90
f 77/323/77 76/324/76 88/312/88 89/311/89
f 76/324/76 75/325/75 87/313/87 88/312/88
f 75/325/75 74/326/74 86/314/86 87/313/87
f 74/326/74 73/6/73 85/8/85 86/314/86
f 337/327/337 72/328/72 84/316/84 338/315/338
f 72/328/72 71/329/71 83/317/83 84/316/84
f 71/329/71 70/330/70 82/318/82 83/317/83
f 70/330/70 69/331/69 81/319/81 82/318/82
f 69/331/69 68/332/68 80/320/80 81/319/81
f 68/332/68 67/333/67 79/321/79 80/320/80
f 67/333/67 66/334/66 78/322/78 79/321/79
f 66/334/66 65/335/65 77/323/77 78/322/78
f 65/335/65 64/336/64 76/324/76 77/323/77
f 64/336/64 63/337/63 75/325/75 76/324/76
f 63/337/63 62/338/62 74/326/74 75/325/75
f 62/338/62 61/4/61 73/6/73 74/326/74
f 360/339/360 49/340/49 72/328/72 337/327/337
f 49/340/49 50/341/50 71/329/71 72/328/72
f 50/341/50 51/342/51 70/330/70 71/329/71
f 51/342/51 52/343/52 69/331/69 70/330/70
f 52/343/52 53/344/53 68/332/68 69/331/69
f 53/344/53 54/345/54 67/333/67 68/332/68
f 54/345/54 55/346/55 66/334/66 67/333/67
f 55/346/55 56/347/56 65/335/65 66/334/66
f 56/347/56 57/348/57 64/336/64 65/335/65
f 57/348/57 58/349/58 63/337/63 64/336/64
f 58/349/58 59/350/59 62/338/62 63/337/63
f 59/350/59 60/1/60 61/4/61 62/338/62
f 1/351/1 360/339/360 337/327/337 3/352/3
f 3/352/3 337/327/337 338/315/338 5/353/5
f 5/353/5 338/315/338 339/303/339 7/354/7
f 7/354/7 339/303/339 340/291/340 9/355/9
f 9/355/9 340/291/340 341/279/341 11/356/11
f 11/356/11 341/279/341 342/267/342 13/357/13
f 13/357/13 342/267/342 343/255/343 15/358/15
f 15/358/15 343/255/343 344/243/344 17/359/17
f 17/359/17 344/243/344 345/231/345 19/360/19
f 19/360/19 345/231/345 346/219/346 21/361/21
f 21/361/21 346/219/346 347/207/347 23/362/23
f 23/362/23 347/207/347 348/195/348 25/363/25
f 25/363/25 348/195/348 349/183/349 27/364/27
f 27/364/27 349/183/349 350/171/350 29/365/29
f 29/365/29 350/171/350 351/159/351 31/366/31
f 31/366/31 351/159/351 352/147/352 33/367/33
f 33/367/33 352/147/352 353/135/353 35/368/35
f 35/368/35 353/135/353 354/123/354 37/369/37
f 37/369/37 354/123/354 355/111/355 39/370/39
f 39/370/39 355/111/355 356/99/356 41/371/41
f 41/371/41 356/99/356 357/87/357 43/372/43
f 43/372/43 357/87/357 358/75/358 45/373/45
f 45/373/45 358/75/358 359/51/359 47/374/47
f 47/374/47 359/51/359 360/54/360 1/375/1
